<svg width="57" height="138" viewBox="0 0 57 138" fill="none" xmlns="http://www.w3.org/2000/svg">
<g clip-path="url(#clip0_259_19429)">
<path fill-rule="evenodd" clip-rule="evenodd" d="M2.73742 0.291446C2.41346 1.47315 2.05711 2.60626 1.79794 3.80415C-0.180538 14.5625 -0.557147 25.554 0.680304 36.4224C1.87051 48.532 4.54705 60.4493 8.64961 71.9057C14.1818 88.0508 22.3956 103.149 32.9463 116.568C37.5892 122.175 42.7049 127.374 48.237 132.108C48.3243 132.169 48.4305 132.197 48.5367 132.188C48.643 132.179 48.7426 132.132 48.818 132.057C48.8934 131.982 48.9399 131.882 48.9492 131.776C48.9584 131.67 48.9299 131.564 48.8687 131.476C33.6544 113.188 21.4455 92.5998 12.6991 70.4812C8.64117 59.3332 5.77971 47.786 4.16283 36.0338C2.88027 25.4098 2.63073 14.6867 3.41772 4.01459C3.41772 2.80052 3.41772 1.61885 3.54731 0.404772C3.56139 0.3126 3.53875 0.218566 3.48423 0.142898C3.42972 0.0672296 3.34768 0.0159636 3.25575 7.96281e-05C3.20334 -0.0268376 3.14507 -0.0403527 3.08616 -0.0392435C3.02724 -0.0381343 2.96952 -0.0224679 2.91816 0.00640294C2.86681 0.0352738 2.82341 0.0764588 2.79187 0.1262C2.76032 0.175941 2.74161 0.232707 2.73742 0.291446Z" fill="#F26327"/>
<path fill-rule="evenodd" clip-rule="evenodd" d="M48.7553 131.476C43.2157 129.631 36.0725 126.62 34.0315 125.908L26.6939 123.204C23.9079 122.314 21.5107 121.893 21.3649 123.658C20.5226 125.536 24.4263 126.426 25.2847 126.895L32.4279 129.939C34.7604 130.91 46.3904 135.896 51.3146 137.547C52.0538 137.854 52.8465 138.012 53.6471 138.012C54.4476 138.012 55.2403 137.854 55.9795 137.547C56.4433 137.104 56.7717 136.539 56.9265 135.917C57.0814 135.295 57.0563 134.642 56.8542 134.034C55.7737 131.344 54.4679 128.75 52.9506 126.28C51.0554 122.606 49.4194 118.85 47.7511 115.111C45.2404 109.413 42.8917 103.779 40.705 97.8384C40.6756 97.7046 40.6191 97.5781 40.5389 97.467C40.4587 97.3558 40.3566 97.2622 40.2389 97.192C40.1211 97.1218 39.9902 97.0764 39.8542 97.0586C39.7183 97.0409 39.5801 97.0512 39.4483 97.0888C39.3164 97.1265 39.1937 97.1907 39.0876 97.2775C38.9816 97.3644 38.8945 97.472 38.8316 97.5938C38.7688 97.7156 38.7315 97.849 38.7222 97.9857C38.7129 98.1224 38.7317 98.2596 38.7775 98.3888C39.5874 102.549 40.3973 106.661 41.5473 110.724C43.3482 116.809 45.5783 122.76 48.2208 128.53C48.4766 129.497 48.6553 130.482 48.7553 131.476Z" fill="#F26327"/>
</g>
<defs>
<clipPath id="clip0_259_19429">
<rect width="57" height="138" fill="white"/>
</clipPath>
</defs>
</svg>
