<svg width="275" height="133" viewBox="0 0 275 133" fill="none" xmlns="http://www.w3.org/2000/svg">
<g clip-path="url(#clip0_1169_21441)">
<g style="mix-blend-mode:multiply">
<path opacity="0.05" d="M255.782 114.631C255.782 119.398 201.577 123.204 139.888 123.204C75.4737 123.204 24.3303 119.38 24.3303 114.641C24.3303 109.901 75.6981 94.0058 141.09 94.0239C202.731 94.0239 255.654 109.838 255.782 114.631Z" fill="#F7F7F7"/>
<path opacity="0.1" d="M254.484 114.659C254.612 119.253 198.484 122.86 139.76 122.86C75.5538 122.86 25.7086 119.235 25.7086 114.704C25.7086 110.173 74.9127 95.03 141.106 95.0753C199.782 95.0481 254.323 109.974 254.484 114.659Z" fill="#F0F0F0"/>
<path opacity="0.14" d="M253.217 114.677C253.426 119.108 195.439 122.516 139.663 122.525C75.6821 122.525 27.1351 119.054 27.1351 114.704C27.1351 110.354 74.1594 96.0085 141.058 96.0629C196.817 96.072 252.993 110.182 253.217 114.677Z" fill="#E8E8E8"/>
<path opacity="0.19" d="M251.951 114.704C252.24 118.963 192.394 122.181 139.583 122.181C75.8102 122.181 28.5615 118.882 28.5615 114.74C28.5615 110.599 73.4382 97.0147 141.058 97.0872C193.852 97.0963 251.663 110.363 251.951 114.704Z" fill="#E1E1E1"/>
<path opacity="0.24" d="M250.701 114.722C251.054 118.827 189.332 121.836 139.487 121.836C75.9385 121.836 29.9879 118.719 29.9879 114.777C29.9879 110.834 72.6689 98.0205 141.058 98.1111C190.903 98.1201 250.333 110.535 250.701 114.722Z" fill="#D9D9D9"/>
<path opacity="0.29" d="M249.371 114.74C249.804 118.682 186.223 121.492 139.343 121.492C76.0026 121.492 31.3503 118.556 31.3503 114.804C31.3503 111.052 71.8515 99.0173 141.01 99.1351C187.938 99.1442 248.986 110.708 249.371 114.74Z" fill="#D2D2D2"/>
<path opacity="0.33" d="M248.169 114.767C248.666 118.537 183.242 121.111 139.327 121.111C76.1949 121.165 32.8408 118.392 32.8408 114.767C32.8408 111.143 71.1623 99.9507 141.074 100.087C184.989 100.168 247.656 110.88 248.169 114.767Z" fill="#CACACA"/>
<path opacity="0.38" d="M246.903 114.786C247.48 118.411 180.197 120.803 139.231 120.803C76.3231 120.866 34.2672 118.229 34.2672 114.867C34.2672 111.505 70.409 101.029 141.074 101.183C182.056 101.192 246.326 111.061 246.903 114.786Z" fill="#C2C2C2"/>
<path opacity="0.43" d="M245.653 114.813C246.294 118.247 177.151 120.458 139.151 120.458C76.4513 120.531 35.6937 118.057 35.6937 114.903C35.6937 111.75 69.6717 102.035 141.09 102.216C179.075 102.216 244.979 111.233 245.653 114.813Z" fill="#BBBBBB"/>
<path opacity="0.48" d="M244.386 114.831C245.092 118.102 174.09 120.114 139.054 120.114C76.5475 120.196 37.1201 117.894 37.1201 114.931C37.1201 111.967 68.9185 103.15 141.09 103.222C176.11 103.276 243.649 111.405 244.386 114.831Z" fill="#B3B3B3"/>
<path opacity="0.52" d="M243.12 114.849C243.906 117.957 170.997 119.77 138.942 119.779C76.6758 119.86 38.5145 117.731 38.5145 114.967C38.5145 112.203 68.1332 104.092 141.09 104.246C173.161 104.3 242.303 111.577 243.12 114.849Z" fill="#ACACAC"/>
<path opacity="0.57" d="M241.87 114.876C242.72 117.812 168 119.407 138.878 119.407C76.836 119.498 39.973 117.541 39.973 114.967C39.973 112.393 67.4279 105.116 141.106 105.243C170.196 105.325 240.973 111.786 241.87 114.876Z" fill="#A4A4A4"/>
<path opacity="0.62" d="M240.604 114.894C241.517 117.667 164.955 119.081 138.798 119.09C76.9642 119.199 41.3994 117.404 41.3994 115.03C41.3994 112.656 66.6746 106.149 141.106 106.294C167.247 106.349 239.626 111.931 240.604 114.894Z" fill="#9D9D9D"/>
<path opacity="0.67" d="M239.338 114.921C240.315 117.522 161.909 118.737 138.718 118.746C77.0925 118.864 42.8259 117.232 42.8259 115.057C42.8259 112.882 65.9213 107.164 141.106 107.318C164.281 107.364 238.28 112.103 239.338 114.921Z" fill="#959595"/>
<path opacity="0.71" d="M238.152 114.94C239.194 117.377 158.912 118.392 138.686 118.401C77.2848 118.528 44.3164 117.069 44.3164 115.094C44.3164 113.118 65.1521 108.17 141.186 108.342C161.316 108.388 236.95 112.275 238.152 114.94Z" fill="#8D8D8D"/>
<path opacity="0.76" d="M236.821 114.958C237.927 117.232 155.803 118.057 138.542 118.057C77.3489 118.193 45.6788 116.906 45.6788 115.121C45.6788 113.335 64.4308 109.176 141.122 109.366C158.367 109.402 235.603 112.447 236.821 114.958Z" fill="#868686"/>
<path opacity="0.81" d="M235.555 114.985C236.725 117.087 152.758 117.704 138.445 117.704C77.5412 117.849 47.0892 116.734 47.0892 115.148C47.0892 113.562 63.6615 110.173 141.106 110.372C155.402 110.427 234.257 112.629 235.555 114.985Z" fill="#7E7E7E"/>
<path opacity="0.86" d="M234.305 115.003C235.523 116.942 149.713 117.368 138.365 117.368C77.6054 117.522 48.5317 116.58 48.5317 115.184C48.5317 113.789 62.9563 111.179 141.138 111.405C152.453 111.442 232.911 112.801 234.305 115.003Z" fill="#777777"/>
<path opacity="0.9" d="M233.039 115.03C234.321 116.797 146.667 117.024 138.285 117.024C77.7336 117.187 49.9581 116.408 49.9581 115.212C49.9581 114.015 62.187 112.158 141.138 112.42C149.488 112.457 231.548 112.973 233.039 115.03Z" fill="#6F6F6F"/>
<path opacity="0.95" d="M231.741 115.049C233.087 116.653 143.59 116.68 138.157 116.689C77.8297 116.852 51.3525 116.245 51.3525 115.248C51.3525 114.251 61.4017 113.073 141.106 113.436C146.539 113.472 230.138 113.155 231.741 115.049Z" fill="#686868"/>
<path d="M230.523 115.067C231.901 116.517 140.561 116.335 138.109 116.344C78.006 116.517 52.8109 116.082 52.8109 115.284C52.8109 114.487 60.6804 114.079 141.138 114.478C143.59 114.505 228.84 113.336 230.523 115.067Z" fill="#606060"/>
</g>
<path d="M249.23 114.373C249.795 115.536 249.23 116.248 247.95 115.948L192.57 102.817C191.097 102.557 189.58 102.816 188.278 103.549L170.169 115.198C168.847 115.976 167.354 116.421 165.821 116.492H35.3327C35.0558 116.518 34.7769 116.471 34.5243 116.355C34.2717 116.239 34.0543 116.059 33.8939 115.832C33.7335 115.606 33.6359 115.341 33.6109 115.065C33.5859 114.789 33.6344 114.511 33.7514 114.26L64.1146 36.9737C64.3727 36.3395 64.8077 35.7922 65.3682 35.3966C65.9286 35.001 66.591 34.7737 67.277 34.7415H143.684C145.198 34.6649 146.659 34.1642 147.9 33.297L162.319 22.0417C162.911 21.6341 163.584 21.3592 164.293 21.2362C165.001 21.1131 165.728 21.1447 166.423 21.3289L204.956 34.0661C206.356 34.6027 207.518 35.6207 208.231 36.9362L249.23 114.373Z" fill="url(#paint0_linear_1169_21441)"/>
<path d="M242.585 107.938C243.112 109.007 242.585 109.645 241.437 109.364L191.29 97.4896C189.951 97.259 188.574 97.4976 187.393 98.1649L170.997 108.651C169.8 109.351 168.45 109.751 167.063 109.814H41.8834C41.6321 109.838 41.3789 109.795 41.1495 109.69C40.9201 109.585 40.7227 109.421 40.5774 109.215C40.4321 109.01 40.344 108.769 40.3222 108.518C40.3003 108.268 40.3454 108.016 40.4528 107.788L67.9547 38.5494C68.1896 37.976 68.5834 37.481 69.09 37.1222C69.5967 36.7635 70.1953 36.5558 70.8159 36.5234H147.053C148.407 36.4453 149.711 35.9903 150.818 35.2103L163.863 24.9868C164.404 24.6098 165.022 24.3556 165.672 24.2422C166.323 24.1288 166.99 24.1588 167.628 24.3302L202.528 35.8481C203.788 36.3474 204.833 37.2697 205.483 38.4556L242.585 107.938Z" fill="url(#paint1_linear_1169_21441)"/>
<mask id="mask0_1169_21441" style="mask-type:luminance" maskUnits="userSpaceOnUse" x="40" y="24" width="203" height="86">
<path d="M242.566 107.938C243.074 108.989 242.566 109.627 241.399 109.364L191.252 97.4896C189.922 97.2383 188.546 97.4713 187.374 98.1462L170.96 108.651C169.758 109.337 168.409 109.73 167.025 109.795H41.8458C41.5967 109.82 41.3456 109.778 41.1182 109.674C40.8907 109.57 40.6952 109.407 40.5515 109.203C40.4079 108.999 40.3213 108.76 40.3006 108.511C40.28 108.263 40.326 108.013 40.434 107.788L67.917 38.5307C68.1528 37.9594 68.5473 37.4671 69.0542 37.1116C69.561 36.756 70.1591 36.552 70.7783 36.5235H147.034C148.39 36.4418 149.695 35.9801 150.799 35.1916L163.863 24.968C164.404 24.5907 165.022 24.3377 165.673 24.2274C166.325 24.1171 166.992 24.1523 167.628 24.3303L202.528 35.8482C203.783 36.3454 204.827 37.26 205.483 38.4369L242.566 107.938Z" fill="white"/>
</mask>
<g mask="url(#mask0_1169_21441)">
<g style="mix-blend-mode:color-burn">
<path d="M170.96 108.426L179.148 103.174C172.484 94.1131 158.988 77.2301 116.257 71.8651C95.6123 69.5001 74.7324 70.132 54.2696 73.741L50.6554 81.8448C67.1076 77.0988 103.494 76.386 118.892 81.0757C145.679 89.217 157.425 103.586 161.322 109.627H166.969C168.378 109.561 169.749 109.148 170.96 108.426Z" fill="#3F9BFF"/>
</g>
<path d="M90.3977 47.1007L88.8288 60.2708L90.399 60.4565L91.9678 47.2865L90.3977 47.1007Z" fill="#FFF6CA"/>
<path d="M90.3365 60.5537L88.6611 60.3474L90.2611 46.9348H90.3741L92.0683 47.1412L90.4682 60.4224V60.535L90.3365 60.5537ZM88.9058 60.141L90.2235 60.2911L91.7859 47.3663L90.4494 47.2162L88.9058 60.141Z" fill="#AAA89F"/>
<path d="M131.034 53.2564H108.313V51.6994H130.545L138.827 45.9404L139.712 47.2348L131.034 53.2564Z" fill="#FFF6CA"/>
<path d="M108.182 53.3876V51.5117H130.507L138.865 45.6965L139.919 47.1785L131.128 53.2751V53.1813V53.3126L108.182 53.3876ZM108.426 53.1438H131.015L139.561 47.1972L138.789 46.0905L130.545 51.7181H108.426V53.05V53.1438Z" fill="#AAA89F"/>
<path d="M172.522 69.7641H172.353L155.411 66.1249L56.0391 65.5058C55.8294 65.5058 55.6283 65.4228 55.48 65.2751C55.3318 65.1273 55.2485 64.9269 55.2485 64.718C55.2485 64.509 55.3318 64.3086 55.48 64.1609C55.6283 64.0131 55.8294 63.9301 56.0391 63.9301L155.411 64.4553H155.58L172.202 68.0195L177.416 61.8291C177.504 61.7243 177.619 61.6447 177.748 61.5985C177.877 61.5524 178.016 61.5413 178.15 61.5665L188.692 63.1985L185.529 53.6127C185.494 53.5156 185.479 53.4123 185.484 53.309C185.49 53.2058 185.516 53.1048 185.562 53.012C185.608 52.9192 185.672 52.8365 185.75 52.7689C185.829 52.7013 185.92 52.6502 186.019 52.6185C186.118 52.5863 186.222 52.5739 186.326 52.582C186.429 52.59 186.531 52.6184 186.623 52.6654C186.716 52.7125 186.798 52.7773 186.866 52.8562C186.933 52.935 186.985 53.0264 187.017 53.125L190.612 63.9301C190.652 64.0586 190.659 64.1953 190.632 64.3272C190.604 64.459 190.543 64.5816 190.454 64.6832C190.365 64.7848 190.252 64.8621 190.125 64.9076C189.997 64.953 189.861 64.9653 189.727 64.943L178.339 63.1797L173.106 69.3889C173.045 69.4925 172.96 69.5804 172.859 69.6456C172.757 69.7107 172.642 69.7513 172.522 69.7641Z" fill="#FFF6CA"/>
<path d="M172.334 69.8581L155.392 66.2189L56.0956 65.6937C55.8574 65.6889 55.6304 65.5925 55.462 65.4246C55.2936 65.2568 55.1968 65.0305 55.192 64.7932C55.1968 64.5509 55.2956 64.3199 55.4675 64.1486C55.6394 63.9772 55.8713 63.8788 56.1144 63.874L155.486 64.418H155.675L172.221 67.9635L177.398 61.8293C177.483 61.7285 177.59 61.6477 177.71 61.5926C177.83 61.5375 177.962 61.5094 178.094 61.5104H178.245L188.598 63.1237L185.492 53.7443C185.474 53.6513 185.474 53.5559 185.492 53.4629C185.487 53.2713 185.545 53.0835 185.657 52.9278C185.77 52.7721 185.929 52.657 186.113 52.6C186.206 52.5822 186.302 52.5822 186.395 52.6C186.589 52.5996 186.778 52.6614 186.934 52.7763C187.09 52.8912 187.205 53.053 187.261 53.2378L190.838 64.0429C190.856 64.1358 190.856 64.2313 190.838 64.3242C190.836 64.539 190.756 64.7458 190.612 64.9058C190.528 65.0041 190.425 65.0835 190.308 65.1385C190.191 65.1935 190.064 65.2229 189.934 65.2247H189.784L178.489 63.4801L173.294 69.633C173.207 69.7319 173.1 69.8114 172.98 69.8663C172.86 69.9212 172.729 69.9504 172.597 69.9519V69.7268C172.694 69.7237 172.79 69.7004 172.877 69.6584C172.965 69.6164 173.043 69.5566 173.106 69.4829L178.339 63.2737H178.452L189.746 65.0371H189.859C189.955 65.0375 190.05 65.0177 190.137 64.9789C190.225 64.9401 190.303 64.8832 190.367 64.812C190.461 64.6873 190.514 64.5364 190.518 64.3805C190.528 64.3121 190.528 64.2426 190.518 64.1742L186.979 53.2378C186.935 53.1044 186.849 52.9886 186.733 52.9076C186.618 52.8266 186.48 52.7845 186.339 52.7876C186.271 52.7709 186.2 52.7709 186.132 52.7876C185.998 52.8317 185.882 52.9175 185.801 53.0323C185.719 53.1471 185.677 53.2849 185.68 53.4254C185.672 53.4939 185.672 53.5632 185.68 53.6317L188.861 63.255V63.3675C188.861 63.3675 188.861 63.3675 188.748 63.3675L178.132 61.7543H178.038C177.94 61.7574 177.845 61.7806 177.758 61.8226C177.67 61.8646 177.592 61.9244 177.529 61.9982L172.315 68.1885H172.202L155.562 64.6244H155.43L56.0579 64.0991C55.8782 64.0991 55.7058 64.1703 55.5787 64.2969C55.4516 64.4236 55.3802 64.5954 55.3802 64.7745C55.3802 64.9486 55.4497 65.1156 55.5732 65.2387C55.6968 65.3618 55.8644 65.431 56.0391 65.431L155.373 65.9563L172.315 69.6142H172.466V69.8393L172.334 69.8581Z" fill="#AAA89F"/>
<g style="mix-blend-mode:multiply">
<path d="M124.86 70.6458C144.587 72.2215 156.503 80.0252 156.503 80.0252C156.503 80.0252 153.849 68.526 153.152 68.4322C150.78 68.0946 124.464 68.0383 124.464 68.0383L124.86 70.6458Z" fill="#BCE843"/>
</g>
<g style="mix-blend-mode:multiply">
<path d="M52.8955 85.2215L49.3377 94.3946C56.7752 90.4735 64.9899 88.238 73.3948 87.8477C93.3859 87.1912 122.337 93.2128 131.636 89.1609C119.551 83.008 107.711 80.907 93.2542 80.6444C65.6582 80.1379 52.8955 85.2215 52.8955 85.2215Z" fill="#BCE843"/>
</g>
<path d="M173.35 47.6476L167.44 50.9491L169.021 34.0662L217.53 47.1974C217.735 47.2493 217.952 47.2195 218.135 47.1144C218.317 47.0092 218.452 46.8371 218.509 46.6346C218.537 46.5348 218.545 46.4303 218.532 46.3275C218.518 46.2247 218.484 46.1256 218.431 46.0363C218.379 45.9469 218.308 45.8691 218.225 45.8075C218.141 45.7459 218.046 45.7018 217.944 45.6779L168.513 32.3029C168.404 32.2753 168.291 32.2711 168.18 32.2905C168.07 32.31 167.965 32.3525 167.873 32.4154C167.775 32.4794 167.693 32.5653 167.634 32.6662C167.575 32.7672 167.541 32.8804 167.534 32.9969L165.764 51.8683H165.651H153.096L140.973 42.3763L139.373 35.2668L136.286 35.9608L137.246 40.2003L113.565 40.1628C113.455 40.1647 113.347 40.189 113.246 40.2342C113.146 40.2793 113.056 40.3444 112.982 40.4254L109.029 44.7399L109.631 35.3605L106.469 35.1542L105.772 46.2594H79.2491L82.2045 36.2985L79.1926 35.398L72.2277 58.8466H56.8297V61.9793H154.263L173.802 51.0054L224.458 64.1366L225.267 61.0976L173.35 47.6476ZM113.979 41.7385L137.585 41.8698L141.35 58.7528H108.2L108.935 47.2161L113.979 41.7385ZM78.7785 47.7601H105.734L105.038 58.7715H75.5219L78.7785 47.7601ZM153.435 58.7715H144.606L141.5 44.89L152.305 53.3502C152.445 53.4584 152.617 53.5177 152.795 53.5191H162.828L153.435 58.7715Z" fill="white"/>
<path d="M173.802 51.1179L154.225 62.0168H56.8297L56.7168 61.9043V58.7528L56.8297 58.6402H72.1525L79.0985 35.2855H79.2303L82.2609 36.1859V36.336L79.3432 46.1468H105.697L106.393 35.1542L106.525 35.0416L109.669 35.248L109.782 35.3605L109.198 44.4773L112.963 40.4066C113.047 40.3165 113.149 40.245 113.262 40.1965C113.376 40.148 113.498 40.1238 113.622 40.1253L137.076 40.2378L136.154 36.1484L136.248 36.0171L139.335 35.323H139.467L141.03 42.3576L153.077 51.737H165.595L167.345 32.9782C167.361 32.8472 167.405 32.721 167.473 32.6079C167.541 32.4947 167.632 32.3972 167.741 32.3216C167.89 32.2187 168.068 32.1661 168.249 32.1715H168.494L217.926 45.5466C218.116 45.5967 218.285 45.7088 218.404 45.8652C218.523 46.0215 218.587 46.2131 218.584 46.4095C218.593 46.4906 218.593 46.5723 218.584 46.6533C218.528 46.8432 218.411 47.0096 218.251 47.1279C218.092 47.2463 217.898 47.3101 217.7 47.3099H217.474L169.077 34.1787L167.534 50.6865L173.181 47.4975V47.3849L225.06 60.91V61.0601L224.25 64.099H224.1L173.539 50.9679L173.802 51.1179ZM224.326 64.0615L225.06 61.2477L173.332 47.7789L167.458 51.0617H167.327C167.314 51.0253 167.314 50.9855 167.327 50.9491L168.908 34.0662C168.9 34.0519 168.895 34.0357 168.895 34.0193C168.895 34.0028 168.9 33.9866 168.908 33.9724H169.002L217.53 47.1036H217.7C217.848 47.1032 217.992 47.0531 218.108 46.9612C218.224 46.8692 218.306 46.741 218.34 46.5971C218.349 46.5411 218.349 46.4842 218.34 46.4282C218.339 46.2804 218.289 46.1371 218.197 46.0213C218.105 45.9056 217.976 45.8242 217.831 45.7904L168.4 32.4154H168.23C168.093 32.4137 167.96 32.4602 167.854 32.5467C167.77 32.5988 167.701 32.6705 167.652 32.7555C167.602 32.8406 167.575 32.9363 167.571 33.0344L165.802 51.9058L165.632 51.9996H152.983L140.822 42.4701L139.241 35.4731L136.399 36.1109L137.321 40.2191C137.33 40.2561 137.33 40.2946 137.321 40.3316H137.227L113.565 40.2753C113.472 40.2751 113.38 40.2952 113.296 40.3341C113.211 40.3729 113.136 40.4297 113.076 40.5004L109.123 44.815C109.103 44.8265 109.08 44.8326 109.057 44.8326C109.034 44.8326 109.011 44.8265 108.991 44.815C108.979 44.795 108.973 44.7724 108.973 44.7493C108.973 44.7263 108.979 44.7036 108.991 44.6837L109.575 35.3042L106.657 35.1167L105.979 46.1093H105.847H79.2491H79.155C79.1466 46.0918 79.1423 46.0725 79.1423 46.0531C79.1423 46.0336 79.1466 46.0144 79.155 45.9968L82.0915 36.1484L79.2867 35.323L72.3595 58.6402L72.2466 58.734H56.9803V61.7542H154.225L173.802 50.8928L224.345 64.024L224.326 64.0615ZM144.568 58.8841L144.455 58.7903L141.368 44.8713C141.36 44.8505 141.355 44.8281 141.355 44.8056C141.355 44.783 141.36 44.7607 141.368 44.7399C141.391 44.7268 141.417 44.7198 141.444 44.7198C141.47 44.7198 141.496 44.7268 141.519 44.7399L152.324 53.1814C152.442 53.2748 152.587 53.3274 152.738 53.3315H162.771C162.788 53.3216 162.808 53.3164 162.828 53.3164C162.848 53.3164 162.867 53.3216 162.884 53.3315C162.898 53.3506 162.905 53.3736 162.905 53.3971C162.905 53.4207 162.898 53.4437 162.884 53.4628L153.472 58.6965V58.5839V58.7153L144.568 58.8841ZM144.568 58.6402H153.284L162.244 53.6504H152.663C152.462 53.6466 152.269 53.5737 152.117 53.444L141.538 45.1901L144.568 58.6402ZM108.069 58.8841L108.822 47.2911L113.866 41.7948H113.961V41.6823L137.566 41.7948H137.679L141.444 58.6777C141.455 58.7079 141.455 58.7413 141.444 58.7715H108.2L108.069 58.8841ZM108.916 47.2536L108.2 58.6402H141.086L137.321 41.9824L113.848 41.8511L108.878 47.2536H108.916ZM75.3902 58.8841C75.3536 58.897 75.3138 58.897 75.2772 58.8841V58.7903L78.5338 47.7789H78.6467H105.603L104.925 58.7903L104.812 58.9028L75.3902 58.8841ZM75.5408 58.6402H104.793L105.471 47.8727H78.7409L75.5408 58.6402Z" fill="#AAA89F"/>
<g style="mix-blend-mode:multiply">
<path d="M175.948 45.6967L173.313 37.4241L190.141 42.0012L193.699 50.5177L175.948 45.6967Z" fill="#BCE843"/>
</g>
<g style="mix-blend-mode:multiply">
<path d="M196.127 51.2681L192.513 42.9204L205.784 46.0531L211.036 55.5263L196.127 51.2681Z" fill="#BCE843"/>
</g>
<g style="mix-blend-mode:multiply">
<path d="M191.723 57.7209L195.525 68.0571L219.582 74.7539L214.462 64.0051L191.723 57.7209Z" fill="#BCE843"/>
</g>
<path d="M227.168 95.5201L224.006 86.8722C223.972 86.7725 223.918 86.6808 223.847 86.6032C223.775 86.5257 223.688 86.4639 223.592 86.422L214.914 82.6703L212.674 77.9431C212.629 77.8494 212.567 77.7655 212.49 77.6959C212.413 77.6264 212.322 77.5727 212.225 77.5379C212.127 77.503 212.023 77.4878 211.919 77.4929C211.815 77.4981 211.713 77.5235 211.62 77.5679C211.526 77.6122 211.441 77.6745 211.372 77.7513C211.302 77.8281 211.248 77.9179 211.213 78.0154C211.178 78.113 211.163 78.2164 211.168 78.3199C211.173 78.4233 211.199 78.5248 211.243 78.6184L213.615 83.5894C213.689 83.7676 213.831 83.9092 214.01 83.9834L222.632 87.7352L223.065 88.8794L197.709 81.676C197.506 81.6188 197.29 81.644 197.106 81.746C196.923 81.848 196.787 82.0186 196.73 82.2201C196.672 82.4216 196.698 82.6375 196.8 82.8204C196.902 83.0034 197.073 83.1383 197.276 83.1955L223.535 90.699H223.705L225.681 96.0828C225.735 96.2346 225.834 96.3664 225.965 96.4603C226.097 96.5542 226.254 96.6058 226.415 96.6081C226.502 96.6275 226.592 96.6275 226.679 96.6081C226.786 96.573 226.884 96.5161 226.968 96.441C227.052 96.3658 227.118 96.2742 227.165 96.1718C227.211 96.0694 227.235 95.9585 227.235 95.8463C227.236 95.7341 227.213 95.623 227.168 95.5201Z" fill="#FFF6CA"/>
<path d="M225.568 96.0077L223.686 90.699H223.554L197.2 83.1954C197.01 83.1388 196.843 83.0224 196.724 82.8636C196.605 82.7047 196.541 82.5119 196.542 82.3138C196.534 82.2327 196.534 82.151 196.542 82.0699C196.598 81.8801 196.715 81.7136 196.875 81.5953C197.034 81.477 197.227 81.4132 197.426 81.4134H197.671L222.801 88.5605L222.519 87.6976L213.878 83.9458C213.681 83.8515 213.521 83.6927 213.427 83.4956L211.13 78.6371C211.103 78.5071 211.103 78.3731 211.13 78.2431C211.128 78.0743 211.175 77.9085 211.266 77.7655C211.356 77.6225 211.485 77.5083 211.638 77.4365C211.759 77.3706 211.896 77.3382 212.034 77.3427C212.205 77.3427 212.373 77.3923 212.517 77.4855C212.66 77.5788 212.774 77.7116 212.843 77.8679L215.027 82.5201L223.705 86.2719C223.929 86.3694 224.105 86.5516 224.194 86.7784L227.338 95.4262C227.356 95.5317 227.356 95.6395 227.338 95.7451C227.335 95.9276 227.279 96.1054 227.175 96.2558C227.071 96.4061 226.924 96.5222 226.754 96.5893H226.434C226.247 96.5911 226.065 96.534 225.913 96.4261C225.761 96.3183 225.647 96.1653 225.587 95.989L225.568 96.0077ZM196.862 82.1637C196.853 82.2197 196.853 82.2766 196.862 82.3325C196.86 82.4803 196.907 82.6245 196.995 82.7431C197.084 82.8617 197.209 82.9481 197.351 82.9891L223.61 90.4926H223.761L225.738 95.8764C225.778 96.0083 225.861 96.1235 225.973 96.2047C226.085 96.2859 226.22 96.3286 226.359 96.3266C226.433 96.3435 226.51 96.3435 226.585 96.3266C226.715 96.2835 226.829 96.2005 226.91 96.0895C226.991 95.9784 227.036 95.8449 227.036 95.7076C227.045 95.6328 227.045 95.5572 227.036 95.4825L223.874 86.8347C223.844 86.7483 223.797 86.6689 223.736 86.6012C223.674 86.5335 223.6 86.4789 223.516 86.4407L214.782 82.5764L212.542 77.8679C212.489 77.7525 212.404 77.6543 212.298 77.5846C212.191 77.5149 212.067 77.4766 211.94 77.474C211.847 77.4464 211.749 77.4464 211.657 77.474C211.541 77.5269 211.443 77.6113 211.373 77.7175C211.303 77.8236 211.264 77.9473 211.262 78.0743C211.236 78.1663 211.236 78.2636 211.262 78.3557L213.615 83.3455C213.688 83.4874 213.807 83.6 213.954 83.6644L222.65 87.5287L223.065 88.673C223.078 88.6922 223.086 88.7151 223.086 88.7387C223.086 88.7622 223.078 88.7852 223.065 88.8043C223.047 88.8127 223.028 88.817 223.008 88.817C222.989 88.817 222.969 88.8127 222.952 88.8043L197.614 81.601H197.426C197.28 81.5969 197.136 81.6431 197.02 81.7319C196.903 81.8206 196.821 81.9466 196.786 82.0887L196.862 82.1637Z" fill="#AAA89F"/>
<path d="M229.709 97.2834C229.549 97.2852 229.393 97.2375 229.261 97.1467C229.13 97.056 229.03 96.9268 228.975 96.777L226.208 89.8362C226.154 89.6894 226.143 89.5303 226.177 89.3776C226.21 89.2248 226.286 89.0846 226.396 88.9733L228.392 87.0974L226.867 83.1393C226.828 83.0434 226.809 82.9407 226.81 82.8372C226.812 82.7337 226.834 82.6316 226.877 82.537C226.919 82.4424 226.98 82.3573 227.056 82.2867C227.132 82.2162 227.221 82.1616 227.319 82.1263C227.415 82.0873 227.518 82.068 227.622 82.0697C227.726 82.0713 227.828 82.0938 227.923 82.1359C228.018 82.1779 228.104 82.2386 228.174 82.3143C228.245 82.39 228.3 82.4792 228.335 82.5765L230.048 87.0224C230.105 87.1657 230.118 87.3228 230.084 87.4733C230.051 87.6238 229.973 87.7608 229.86 87.8665L227.865 89.7424L230.444 96.1767C230.518 96.3734 230.513 96.5913 230.428 96.7841C230.344 96.9768 230.187 97.129 229.992 97.2084C229.904 97.2515 229.808 97.2771 229.709 97.2834Z" fill="#FFF6CA"/>
<path d="M228.862 96.8332L226.095 89.8924C226.076 89.787 226.076 89.679 226.095 89.5735C226.094 89.4505 226.118 89.3286 226.167 89.2155C226.215 89.1024 226.287 89.0007 226.378 88.917L228.26 87.0411L226.773 83.158C226.755 83.0462 226.755 82.9322 226.773 82.8203C226.772 82.6372 226.828 82.4583 226.932 82.3075C227.037 82.1566 227.185 82.0411 227.356 81.9762C227.462 81.9568 227.571 81.9568 227.676 81.9762C227.86 81.9784 228.038 82.0348 228.189 82.1384C228.34 82.242 228.456 82.3879 228.524 82.5577L230.237 87.0223C230.256 87.1278 230.256 87.2358 230.237 87.3412C230.227 87.5874 230.127 87.8214 229.954 87.9978L228.072 89.8737L230.594 96.2517C230.621 96.3627 230.621 96.4783 230.594 96.5893C230.593 96.7699 230.537 96.9459 230.433 97.0935C230.328 97.2411 230.181 97.3532 230.011 97.4147C229.905 97.4388 229.796 97.4388 229.691 97.4147V97.1709C229.771 97.1887 229.855 97.1887 229.935 97.1709C230.056 97.1175 230.159 97.0309 230.233 96.9213C230.306 96.8117 230.346 96.6835 230.349 96.5518C230.36 96.4709 230.36 96.3889 230.349 96.3079L227.771 89.8924V89.7611L229.653 87.8852C229.782 87.7552 229.856 87.5805 229.86 87.3975C229.869 87.3165 229.869 87.2347 229.86 87.1536L228.147 82.7078C228.103 82.5794 228.019 82.4683 227.907 82.3907C227.796 82.3131 227.662 82.2731 227.526 82.2764H227.281C227.155 82.3249 227.047 82.4097 226.97 82.52C226.893 82.6303 226.85 82.761 226.848 82.8954C226.829 82.9756 226.829 83.0591 226.848 83.1392L228.354 87.1161V87.2287L226.359 89.1046C226.292 89.1671 226.239 89.2427 226.204 89.3267C226.168 89.4107 226.15 89.5011 226.152 89.5923C226.136 89.6729 226.136 89.7556 226.152 89.8362L228.919 96.7769C228.966 96.9018 229.051 97.0088 229.163 97.0829C229.274 97.1569 229.406 97.1942 229.54 97.1896V97.396C229.358 97.3978 229.18 97.3452 229.029 97.2448C228.878 97.1444 228.761 97.001 228.693 96.8332H228.862Z" fill="#AAA89F"/>
<path d="M246.425 105.931H246.218L234.585 102.573L229.258 103.849C229.133 103.868 229.006 103.868 228.881 103.849L201.248 96.758C201.146 96.7341 201.051 96.69 200.967 96.6284C200.884 96.5668 200.813 96.489 200.761 96.3997C200.708 96.3103 200.674 96.2112 200.66 96.1084C200.647 96.0056 200.655 95.9011 200.683 95.8013C200.736 95.6003 200.867 95.4283 201.047 95.3229C201.226 95.2175 201.441 95.1872 201.643 95.2386L229.088 102.273L234.415 100.998C234.552 100.97 234.693 100.97 234.83 100.998L246.651 104.393C246.851 104.454 247.019 104.589 247.121 104.771C247.223 104.953 247.25 105.167 247.197 105.368C247.145 105.532 247.042 105.674 246.903 105.775C246.765 105.877 246.597 105.931 246.425 105.931Z" fill="#FFF6CA"/>
<path d="M246.18 106.006L234.604 102.648L229.276 103.924H228.862L201.21 96.8519C201.016 96.7987 200.845 96.6838 200.722 96.5246C200.6 96.3654 200.533 96.1708 200.532 95.9703C200.523 95.8955 200.523 95.8199 200.532 95.7451C200.586 95.5518 200.701 95.3812 200.861 95.2593C201.02 95.1374 201.216 95.0708 201.417 95.0698H201.643L229.032 102.104L234.359 100.829H234.585C234.665 100.811 234.749 100.811 234.83 100.829L246.67 104.224C246.858 104.281 247.023 104.399 247.139 104.558C247.254 104.717 247.314 104.909 247.31 105.106C247.318 105.187 247.318 105.269 247.31 105.35C247.253 105.54 247.136 105.706 246.977 105.824C246.817 105.943 246.624 106.006 246.425 106.006V105.762C246.569 105.764 246.709 105.719 246.824 105.635C246.94 105.55 247.024 105.43 247.065 105.293C247.072 105.231 247.072 105.168 247.065 105.106C247.067 104.958 247.02 104.814 246.932 104.695C246.843 104.577 246.718 104.49 246.576 104.449L234.792 101.148H234.604H234.453L229.051 102.423L201.605 95.3887H201.436C201.287 95.389 201.144 95.4392 201.027 95.5311C200.911 95.623 200.83 95.7513 200.796 95.8952C200.785 95.951 200.785 96.0083 200.796 96.064C200.796 96.2118 200.846 96.3552 200.939 96.471C201.031 96.5867 201.16 96.6681 201.304 96.7019L228.938 103.774H229.276L234.641 102.498L246.275 105.856H246.463V106.1H246.218L246.18 106.006Z" fill="#AAA89F"/>
<path d="M244.712 99.6846L199.233 87.1162L194.847 74.1538C208.024 77.9056 226.585 84.0022 235.375 86.9661L236.392 83.9835C231.422 82.3139 187.638 67.6445 180.673 67.6445C179.656 67.6445 176.908 67.6445 160.305 83.1956C147.336 95.3325 111.871 94.5634 92.9718 92.2186C72.3805 89.8929 51.6014 94.5165 33.9585 105.35L35.6527 107.995C52.664 97.5247 72.7065 93.04 92.5765 95.2575C112.041 97.6962 148.653 98.334 162.47 85.4091C177.379 71.4713 180.409 70.7585 180.673 70.721C184.237 71.17 187.753 71.9423 191.177 73.0283L201.793 104.506L204.786 103.493L200.438 90.6241L243.884 102.63L244.712 99.6846Z" fill="white"/>
<path d="M35.5586 108.145L33.8456 105.5V105.35C48.552 96.2926 65.4999 91.4987 82.788 91.5056C86.1921 91.5031 89.5932 91.7099 92.9718 92.1246C100.674 93.0496 108.424 93.5131 116.182 93.5127C133.123 93.5127 151.665 91.1304 160.211 83.1391C176.833 67.5881 179.562 67.5505 180.654 67.5505C187.694 67.5505 231.479 82.2199 236.411 83.8895V84.0396L235.394 87.0034H235.244C226.509 84.0583 208.137 78.0367 194.941 74.2474L199.215 86.9096L244.656 99.478V99.6281L243.827 102.667H243.677L200.382 90.7177L204.655 103.38V103.53L201.662 104.524H201.53L190.988 73.1219C187.58 72.0513 184.084 71.2793 180.541 70.8146C180.353 70.8146 177.303 71.5462 162.395 85.484C152.983 94.2256 133.425 96.7392 115.636 96.7392C107.871 96.7431 100.114 96.2732 92.4071 95.3323C89.1534 94.9322 85.8781 94.7317 82.5998 94.7321C65.9767 94.7327 49.6818 99.3443 35.5397 108.051H35.3703L35.5586 108.145ZM35.6903 107.92C49.8443 99.2444 66.1336 94.6473 82.7504 94.6383C86.0415 94.629 89.3299 94.8295 92.5953 95.2386C100.291 96.1637 108.035 96.6272 115.786 96.6267C133.538 96.6267 153.152 94.0755 162.395 85.3714C177.322 71.4149 180.315 70.702 180.673 70.6458C184.28 71.0985 187.836 71.8962 191.29 73.0281L201.869 104.393L204.617 103.455L200.325 90.6989C200.315 90.6784 200.31 90.656 200.31 90.6333C200.31 90.6105 200.315 90.5881 200.325 90.5676C200.343 90.5593 200.362 90.5549 200.382 90.5549C200.401 90.5549 200.42 90.5593 200.438 90.5676L243.733 102.536L244.524 99.7407L199.215 87.2098C199.215 87.2098 199.215 87.2098 199.102 87.2098L194.716 74.2287C194.707 74.2111 194.703 74.1919 194.703 74.1724C194.703 74.1529 194.707 74.1337 194.716 74.1161C194.716 74.1161 194.716 74.1161 194.829 74.1161C208.005 77.8679 226.415 83.927 235.244 86.9096L236.185 84.1521C230.726 82.2762 187.468 67.8507 180.616 67.8694C179.656 67.8694 176.965 67.8694 160.343 83.383C151.665 91.468 133.161 93.8317 116.144 93.8317C108.374 93.8266 100.611 93.3568 92.8965 92.4247C89.5306 92.0096 86.142 91.8028 82.7504 91.8057C65.5526 91.8021 48.6924 96.5627 34.0526 105.556L35.6339 107.995L35.6903 107.92Z" fill="#AAA89F"/>
</g>
<g style="mix-blend-mode:multiply">
<path opacity="0.04" d="M142.573 51.8307C143.627 54.9071 139.467 59.1278 133.293 61.2101C127.119 63.2923 121.227 62.5419 120.116 59.4467C119.005 56.3515 123.222 52.1496 129.396 50.0673C135.571 47.9851 141.5 48.7542 142.573 51.8307Z" fill="#F9F9F9"/>
<path opacity="0.08" d="M142.008 52.0558C143.025 55.0384 138.997 59.1279 132.992 61.1726C126.987 63.2173 121.302 62.4669 120.285 59.4843C119.269 56.5016 123.278 52.3934 129.283 50.3487C135.288 48.304 140.973 49.0544 142.008 52.0558Z" fill="#F3F3F3"/>
<path opacity="0.12" d="M141.425 52.2622C142.422 55.1511 138.526 59.1092 132.709 61.0976C126.893 63.086 121.415 62.3545 120.398 59.4656C119.382 56.5767 123.297 52.5999 129.114 50.6302C134.931 48.6605 140.427 49.3734 141.425 52.2622Z" fill="#EDEDED"/>
<path opacity="0.15" d="M140.86 52.4872C141.839 55.2822 138.055 59.109 132.427 61.0412C126.799 62.9734 121.471 62.2418 120.511 59.4467C119.551 56.6516 123.316 52.8061 128.944 50.8927C134.573 48.9793 139.919 49.6734 140.86 52.4872Z" fill="#E7E7E7"/>
<path opacity="0.19" d="M140.295 52.6935C141.237 55.4136 137.585 59.1091 132.145 60.9662C126.704 62.8233 121.565 62.1292 120.624 59.4279C119.683 56.7267 123.335 53.0124 128.775 51.1553C134.215 49.2982 139.373 49.9923 140.295 52.6935Z" fill="#E2E2E2"/>
<path opacity="0.23" d="M139.731 52.9186C140.634 55.5261 137.114 59.109 131.862 60.8911C126.61 62.6732 121.641 62.0166 120.737 59.4092C119.834 56.8017 123.354 53.2187 128.606 51.4367C133.858 49.6546 138.827 50.2924 139.731 52.9186Z" fill="#DCDCDC"/>
<path opacity="0.27" d="M139.166 53.1249C140.032 55.6574 136.644 59.0903 131.636 60.8161C126.629 62.5419 121.773 61.9228 120.907 59.3904C120.041 56.858 123.448 53.4251 128.436 51.6993C133.425 49.9735 138.3 50.6113 139.166 53.1249Z" fill="#D6D6D6"/>
<path opacity="0.31" d="M138.601 53.35C139.429 55.7699 136.173 59.0902 131.297 60.7598C126.422 62.4293 121.885 61.8102 120.963 59.3716C120.041 56.933 123.41 53.6314 128.267 51.9619C133.123 50.2923 137.773 50.9301 138.601 53.35Z" fill="#D0D0D0"/>
<path opacity="0.35" d="M138.036 53.5564C138.846 55.9012 135.702 59.184 131.015 60.6847C126.328 62.1854 121.885 61.6977 121.095 59.3528C120.304 57.008 123.429 53.8377 128.116 52.2432C132.803 50.6487 137.227 51.2303 138.036 53.5564Z" fill="#CACACA"/>
<path opacity="0.38" d="M137.472 53.7817C138.244 56.014 135.232 59.0716 130.733 60.6099C126.234 62.1481 121.98 61.5853 121.208 59.353C120.436 57.1207 123.448 54.0443 127.947 52.5061C132.446 50.9678 136.7 51.5494 137.472 53.7817Z" fill="#C4C4C4"/>
<path opacity="0.42" d="M136.907 54.0067C137.641 56.1452 134.761 59.0716 130.45 60.5535C126.14 62.0355 122.055 61.4727 121.321 59.3342C120.587 57.1957 123.467 54.2506 127.777 52.7874C132.088 51.3242 136.154 51.8494 136.907 54.0067Z" fill="#BEBEBE"/>
<path opacity="0.46" d="M136.342 54.2505C137.039 56.2952 134.291 59.109 130.168 60.516C126.046 61.9229 122.149 61.3976 121.434 59.3529C120.718 57.3082 123.486 54.4944 127.608 53.0875C131.73 51.6806 135.627 52.1683 136.342 54.2505Z" fill="#B8B8B8"/>
<path opacity="0.5" d="M135.778 54.438C136.455 56.3139 133.801 59.0715 129.886 60.4033C125.97 61.7352 122.224 61.2475 121.547 59.2966C120.869 57.3457 123.429 54.6631 127.439 53.3125C131.448 51.9619 135.1 52.4684 135.778 54.438Z" fill="#B3B3B3"/>
<path opacity="0.54" d="M135.213 54.6445C135.853 56.5204 133.33 59.0528 129.566 60.2721C125.801 61.4915 122.262 61.0787 121.622 59.2216C120.982 57.3645 123.504 54.8133 127.269 53.594C131.034 52.3747 134.573 52.7874 135.213 54.6445Z" fill="#ADADAD"/>
<path opacity="0.58" d="M134.648 54.8697C135.251 56.633 132.86 59.0529 129.321 60.2722C125.782 61.4916 122.394 61.0413 121.791 59.2592C121.189 57.4772 123.58 55.076 127.119 53.8567C130.657 52.6374 134.027 53.0876 134.648 54.8697Z" fill="#A7A7A7"/>
<path opacity="0.62" d="M134.083 55.0758C134.648 56.7641 132.389 59.0527 129.039 60.197C125.688 61.3413 122.469 60.9286 121.904 59.2403C121.34 57.552 123.58 55.2821 126.949 54.1191C130.319 52.9561 133.5 53.4063 134.083 55.0758Z" fill="#A1A1A1"/>
<path opacity="0.65" d="M133.519 55.3009C134.065 56.8767 131.919 59.0527 128.756 60.122C125.594 61.1912 122.563 60.816 122.017 59.2215C121.471 57.627 123.598 55.4698 126.78 54.4005C129.961 53.3313 132.973 53.7064 133.519 55.3009Z" fill="#9B9B9B"/>
<path opacity="0.69" d="M132.954 55.5074C133.462 57.0081 131.448 59.0341 128.455 60.0658C125.462 61.0976 122.638 60.7036 122.13 59.2029C121.622 57.7022 123.617 55.695 126.61 54.6633C129.603 53.6316 132.389 54.0255 132.954 55.5074Z" fill="#959595"/>
<path opacity="0.73" d="M132.389 55.7324C132.879 57.1206 130.996 59.034 128.192 59.9907C125.387 60.9474 122.733 60.591 122.262 59.2028C121.791 57.8147 123.655 55.9013 126.46 54.9446C129.265 53.9879 131.9 54.2505 132.389 55.7324Z" fill="#8F8F8F"/>
<path opacity="0.77" d="M131.806 55.9388C132.258 57.252 130.507 59.0341 127.89 59.9157C125.274 60.7974 122.808 60.4785 122.356 59.1841C121.904 57.8898 123.655 56.1077 126.271 55.2072C128.888 54.3068 131.373 54.6445 131.806 55.9388Z" fill="#898989"/>
<path opacity="0.81" d="M131.241 56.1265C131.655 57.327 130.036 58.9778 127.608 59.8782C125.18 60.7787 122.883 60.4035 122.469 59.2029C122.055 58.0023 123.693 56.3516 126.102 55.4511C128.512 54.5507 130.827 54.9447 131.241 56.1265Z" fill="#838383"/>
<path opacity="0.85" d="M130.676 56.3703C131.072 57.4959 129.566 59.0153 127.326 59.7844C125.086 60.5535 122.977 60.2534 122.582 59.1466C122.187 58.0399 123.711 56.5017 125.933 55.7513C128.154 55.0009 130.3 55.2636 130.676 56.3703Z" fill="#7E7E7E"/>
<path opacity="0.88" d="M130.112 56.5954C130.469 57.6084 129.095 59.0153 127.043 59.7094C124.991 60.4034 123.053 60.1596 122.695 59.1278C122.337 58.0961 123.73 56.7079 125.782 56.0139C127.834 55.3198 129.773 55.5824 130.112 56.5954Z" fill="#787878"/>
<path opacity="0.92" d="M129.547 56.8204C129.867 57.7396 128.624 58.9964 126.761 59.6342C124.897 60.272 123.147 60.0469 122.827 59.1089C122.507 58.171 123.749 56.9142 125.613 56.2764C127.476 55.6386 129.227 55.8824 129.547 56.8204Z" fill="#727272"/>
<path opacity="0.96" d="M128.982 57.0268C129.265 57.871 128.154 58.9965 126.479 59.578C124.803 60.1595 123.222 59.9344 122.94 59.0903C122.657 58.2461 123.768 57.1206 125.443 56.5578C127.119 55.9951 128.624 56.1264 128.982 57.0268Z" fill="#6C6C6C"/>
<path d="M128.417 57.252C128.681 57.9836 127.683 58.9966 126.196 59.5031C124.709 60.0096 123.297 59.822 123.053 59.0716C122.808 58.3213 123.787 57.327 125.274 56.8205C126.761 56.3141 128.173 56.5017 128.417 57.252Z" fill="#666666"/>
</g>
<path d="M144.757 20.4847C144.762 17.4184 144.076 14.3901 142.751 11.6227C141.426 8.85534 139.495 6.41936 137.1 4.49415C134.705 2.56893 131.908 1.20351 128.913 0.498423C125.919 -0.206667 122.804 -0.233491 119.797 0.419965C116.791 1.07342 113.97 2.39051 111.542 4.27423C109.115 6.15795 107.142 8.56032 105.769 11.3045C104.396 14.0487 103.658 17.0648 103.61 20.1307C103.562 23.1966 104.204 26.2342 105.49 29.02C105.49 29.02 122.751 59.4843 124.182 59.4093C125.613 59.3342 142.78 29.17 142.78 29.17C144.073 26.4552 144.747 23.4895 144.757 20.4847Z" fill="url(#paint2_radial_1169_21441)"/>
<g style="mix-blend-mode:screen">
<path style="mix-blend-mode:screen" opacity="0.73" d="M124.276 1.5383C128.381 1.66631 132.349 3.03342 135.657 5.45863C138.964 7.88385 141.455 11.2528 142.799 15.1197C141.677 11.0778 139.256 7.51407 135.907 4.9746C132.558 2.43514 128.466 1.06006 124.257 1.06006C120.049 1.06006 115.957 2.43514 112.608 4.9746C109.259 7.51407 106.838 11.0778 105.716 15.1197C107.064 11.2484 109.561 7.87678 112.876 5.45142C116.19 3.02605 120.166 1.66142 124.276 1.5383Z" fill="url(#paint3_radial_1169_21441)"/>
</g>
<g style="mix-blend-mode:screen" opacity="0.62">
<path d="M141.801 13.1875C139.712 6.20921 132.559 1.05054 124.031 1.05054C120.188 1.05786 116.436 2.22002 113.266 4.38525C110.096 6.55048 107.655 9.61813 106.262 13.1875C117.805 9.41035 130.258 9.41035 141.801 13.1875Z" fill="url(#paint4_linear_1169_21441)"/>
</g>
<g style="mix-blend-mode:screen" opacity="0.72">
<path d="M110.365 21.1413C110.339 18.4348 111.121 15.7817 112.61 13.5187C114.1 11.2557 116.231 9.48493 118.733 8.43114C121.235 7.37736 123.994 7.0881 126.661 7.60011C129.328 8.11212 131.782 9.4023 133.712 11.3068C135.641 13.2114 136.96 15.6444 137.499 18.297C138.039 20.9496 137.775 23.7022 136.742 26.2052C135.709 28.7083 133.952 30.8489 131.696 32.3554C129.44 33.8619 126.785 34.6662 124.069 34.6663C120.453 34.6813 116.978 33.2653 114.409 30.7294C111.84 28.1935 110.385 24.745 110.365 21.1413Z" fill="white"/>
</g>
<path d="M110.93 21.1412C110.93 18.5441 111.703 16.0053 113.151 13.8459C114.598 11.6865 116.656 10.0034 119.064 9.00957C121.472 8.01571 124.121 7.75566 126.677 8.26232C129.233 8.76899 131.581 10.0196 133.424 11.8561C135.267 13.6925 136.522 16.0322 137.03 18.5794C137.539 21.1266 137.278 23.7669 136.281 26.1663C135.283 28.5657 133.594 30.6165 131.427 32.0594C129.26 33.5022 126.713 34.2724 124.107 34.2724C120.612 34.2724 117.26 32.8889 114.789 30.4263C112.318 27.9638 110.93 24.6238 110.93 21.1412Z" fill="white"/>
<path d="M111.683 21.085C111.683 18.64 112.41 16.2499 113.773 14.217C115.137 12.1841 117.074 10.5996 119.341 9.6639C121.607 8.72824 124.102 8.48345 126.508 8.96044C128.914 9.43744 131.125 10.6148 132.86 12.3437C134.594 14.0725 135.776 16.2752 136.255 18.6732C136.733 21.0712 136.488 23.5569 135.549 25.8157C134.61 28.0746 133.02 30.0053 130.98 31.3636C128.94 32.722 126.541 33.447 124.088 33.447C120.798 33.447 117.643 32.1446 115.316 29.8262C112.99 27.5079 111.683 24.3636 111.683 21.085Z" fill="white"/>
<g style="mix-blend-mode:screen" opacity="0.76">
<path d="M136.154 21.0474C136.158 23.4041 135.46 25.709 134.149 27.6704C132.838 29.6317 130.972 31.1614 128.788 32.0659C126.604 32.9703 124.2 33.2089 121.88 32.7514C119.56 32.2939 117.429 31.1609 115.755 29.4957C114.082 27.8306 112.941 25.7081 112.479 23.3969C112.016 21.0858 112.252 18.6897 113.156 16.512C114.06 14.3343 115.592 12.4728 117.558 11.1631C119.524 9.8534 121.836 9.15431 124.201 9.15431C125.77 9.15185 127.324 9.45763 128.774 10.0542C130.224 10.6508 131.542 11.5264 132.652 12.6311C133.762 13.7357 134.643 15.0476 135.244 16.4918C135.845 17.9359 136.154 19.484 136.154 21.0474Z" fill="white"/>
</g>
<g style="mix-blend-mode:screen" opacity="0.77">
<path d="M124.182 29.4701C130.503 29.4701 135.627 24.9265 135.627 19.3216C135.627 13.7167 130.503 9.1731 124.182 9.1731C117.861 9.1731 112.737 13.7167 112.737 19.3216C112.737 24.9265 117.861 29.4701 124.182 29.4701Z" fill="white"/>
</g>
<g style="mix-blend-mode:multiply">
<path d="M189.181 103.249C189.791 102.881 190.47 102.645 191.177 102.555L164.672 21.1414C163.891 21.1986 163.142 21.4714 162.508 21.9292L149.444 32.1528C148.704 32.7506 147.91 33.2781 147.072 33.7285L169.661 114.879C170.721 114.707 171.742 114.344 172.673 113.81L189.181 103.249Z" fill="url(#paint5_linear_1169_21441)"/>
</g>
</g>
<defs>
<linearGradient id="paint0_linear_1169_21441" x1="33.6197" y1="68.8074" x2="249.437" y2="68.8074" gradientUnits="userSpaceOnUse">
<stop stop-color="#F2F2F2"/>
<stop offset="0.33" stop-color="white"/>
<stop offset="0.52" stop-color="#FBFBFB"/>
<stop offset="0.69" stop-color="#F1F1F1"/>
<stop offset="0.75" stop-color="#EBEBEB"/>
<stop offset="1" stop-color="#ECECF0"/>
</linearGradient>
<linearGradient id="paint1_linear_1169_21441" x1="37.7233" y1="93.8504" x2="234.035" y2="59.12" gradientUnits="userSpaceOnUse">
<stop stop-color="#CCCCCC"/>
<stop offset="0.04" stop-color="#CFCFCF"/>
<stop offset="0.33" stop-color="#E3E0E0"/>
<stop offset="0.51" stop-color="#E1DEDE"/>
<stop offset="0.6" stop-color="#D9D8D8"/>
<stop offset="0.63" stop-color="#D4D4D4"/>
<stop offset="0.87" stop-color="#D9D9D9"/>
</linearGradient>
<radialGradient id="paint2_radial_1169_21441" cx="0" cy="0" r="1" gradientUnits="userSpaceOnUse" gradientTransform="translate(124.088 11.7056) scale(39.7187 39.5811)">
<stop stop-color="#F26327"/>
<stop offset="0.45" stop-color="#F26327"/>
<stop offset="1" stop-color="#F26327"/>
</radialGradient>
<radialGradient id="paint3_radial_1169_21441" cx="0" cy="0" r="1" gradientUnits="userSpaceOnUse" gradientTransform="translate(123.542 1.36948) scale(12.6686 12.6247)">
<stop stop-color="white"/>
<stop offset="0.33" stop-color="white"/>
<stop offset="1" stop-color="white"/>
</radialGradient>
<linearGradient id="paint4_linear_1169_21441" x1="124.069" y1="1.05054" x2="124.069" y2="13.1875" gradientUnits="userSpaceOnUse">
<stop stop-color="white"/>
<stop offset="0.43" stop-color="white"/>
<stop offset="0.5" stop-color="#FBFBFB"/>
<stop offset="0.58" stop-color="#EDEDED"/>
<stop offset="0.65" stop-color="#D8D8D8"/>
<stop offset="0.74" stop-color="#B9B9B9"/>
<stop offset="0.82" stop-color="#919191"/>
<stop offset="0.9" stop-color="#616161"/>
<stop offset="0.99" stop-color="#292929"/>
<stop offset="1" stop-color="#1F1F1F"/>
</linearGradient>
<linearGradient id="paint5_linear_1169_21441" x1="176.23" y1="64.7368" x2="135.66" y2="79.553" gradientUnits="userSpaceOnUse">
<stop stop-color="#C4C4C4"/>
<stop offset="0.2" stop-color="#DDDDDD"/>
<stop offset="0.34" stop-color="#E8E8E8"/>
<stop offset="0.55" stop-color="#DEDEDE"/>
<stop offset="0.81" stop-color="#E4E4E3"/>
<stop offset="1" stop-color="#ECECEB"/>
</linearGradient>
<clipPath id="clip0_1169_21441">
<rect width="275" height="133" fill="white"/>
</clipPath>
</defs>
</svg>
