<svg width="24" height="24" viewBox="0 0 24 24" fill="none" xmlns="http://www.w3.org/2000/svg">
<g clip-path="url(#clip0_2020_4279)">
<path d="M2 11.2188V10.5547C2.01443 10.512 2.02643 10.4686 2.03594 10.4246C2.11873 9.86781 2.36322 9.34759 2.73906 8.92852C3.11475 8.50484 3.60377 8.19744 4.14844 8.04258V7.82461C4.14844 6.92617 4.14492 6.02773 4.15117 5.1293C4.14954 4.93447 4.16945 4.74006 4.21055 4.54961C4.32224 4.05675 4.59865 3.61669 4.99414 3.30209C5.38964 2.98748 5.88058 2.81713 6.38594 2.81914C7.42266 2.81914 8.3 3.5418 8.56484 4.58164C8.70938 5.14727 8.87734 5.7082 9.0707 6.25859C9.24766 6.7625 9.49766 7.23516 9.86094 7.63789C10.0438 7.84063 10.2551 7.94844 10.5449 7.94141C11.2668 7.92461 11.9902 7.93672 12.7121 7.93516C12.7898 7.93821 12.8675 7.93112 12.9434 7.91406C13.8898 7.64844 14.4484 7.01016 14.6918 6.07617C14.7063 6.02148 14.7012 5.93477 14.6672 5.89922C14.3902 5.61016 14.1047 5.3293 13.8078 5.03359C13.5832 5.26289 13.3801 5.4832 13.1625 5.68828C12.9449 5.89336 12.6762 5.96172 12.3852 5.86367C12.0941 5.76562 11.9184 5.56094 11.8602 5.26289C11.802 4.96484 11.9129 4.72969 12.1199 4.52383C12.8344 3.81172 13.5422 3.09336 14.2641 2.38867C14.4223 2.23242 14.6273 2.12734 14.8109 1.99805H15.1625C15.1703 2.00781 15.1758 2.02188 15.1859 2.02656C15.8367 2.31992 15.9469 2.90781 15.443 3.41211C15.2707 3.58438 15.0934 3.75234 14.9078 3.93242C15.1727 4.19336 15.4086 4.43555 15.657 4.66406C15.727 4.7255 15.8156 4.76168 15.9086 4.7668C16.409 4.77617 16.9102 4.77109 17.4109 4.77148C18.8402 4.77148 19.8492 5.78711 19.85 7.22031V8.03555L20.0098 8.09258C20.8035 8.37461 21.3891 8.89375 21.7305 9.66289C21.8551 9.94375 21.9109 10.2551 21.9984 10.5527V11.0215C21.9781 11.0688 21.9594 11.1164 21.9371 11.1637C21.8685 11.3265 21.7466 11.4612 21.5915 11.5459C21.4364 11.6306 21.2572 11.6602 21.0831 11.6298C20.909 11.5995 20.7504 11.5111 20.6331 11.3789C20.5157 11.2468 20.4466 11.0788 20.4371 10.9023C20.3801 10.007 19.8418 9.49805 18.9492 9.49805H6.4332C5.91875 9.49805 5.4043 9.48945 4.89023 9.50078C3.93008 9.52266 3.28867 10.5164 3.67578 11.3957C3.92656 11.9684 4.38828 12.2328 5.00938 12.2328C9.67656 12.2328 14.3438 12.2328 19.0109 12.2328C19.502 12.2328 19.8523 12.5625 19.8508 13.0164C19.8508 13.4629 19.502 13.7941 19.0246 13.7941C14.3184 13.7941 9.61211 13.7941 4.90586 13.7941C3.57773 13.7941 2.41953 12.8754 2.09023 11.5926C2.0582 11.4688 2.03008 11.3434 2 11.2188ZM8.14375 7.93086C7.59688 6.96758 7.26875 5.9582 7.02891 4.91484C6.99495 4.7907 6.93142 4.67664 6.84375 4.58242C6.75459 4.48574 6.63719 4.41965 6.50829 4.39356C6.37938 4.36747 6.24552 4.38271 6.12578 4.43711C5.85703 4.55742 5.71445 4.77031 5.71406 5.0668C5.71172 5.98477 5.71172 6.90273 5.71406 7.8207C5.71655 7.85827 5.72177 7.89561 5.72969 7.93242L8.14375 7.93086ZM18.2891 7.92734C18.2891 7.66484 18.2891 7.41289 18.2891 7.16055C18.2848 6.66719 17.9605 6.34023 17.4707 6.33633C17.1848 6.33398 16.8984 6.33633 16.6113 6.33633C16.2543 6.33633 16.2742 6.34375 16.1496 6.67305C15.9879 7.1 15.7902 7.51289 15.6102 7.92774L18.2891 7.92734Z" fill="#2B3641"/>
<path d="M22 18.0937C21.3566 18.0878 20.8152 17.8222 20.3383 17.4159C20.1211 17.2312 19.9281 17.0179 19.7285 16.8132C19.5609 16.6413 19.4367 16.6425 19.2684 16.8167C19.073 17.0179 18.8859 17.2269 18.6734 17.4073C17.6039 18.3167 16.4273 18.3237 15.3492 17.4257C15.1352 17.2476 14.9445 17.0401 14.7516 16.8397C14.5586 16.6394 14.4437 16.6355 14.252 16.8366C14.0683 17.0386 13.874 17.2307 13.6699 17.412C12.6 18.319 11.4215 18.3241 10.3453 17.4241C10.127 17.2413 9.93398 17.0272 9.73516 16.8218C9.55977 16.6405 9.43867 16.6417 9.26172 16.8257C9.06641 17.0269 8.87891 17.2355 8.66602 17.4151C7.60039 18.3163 6.43125 18.3233 5.35664 17.4335C5.13711 17.2519 4.94336 17.0386 4.74531 16.8323C4.5582 16.637 4.45 16.6456 4.25703 16.8276C3.93633 17.1296 3.61758 17.4386 3.26445 17.6995C2.89844 17.969 2.46172 18.0905 2 18.0937V16.5312C2.18867 16.453 2.40156 16.4042 2.56094 16.2851C2.7875 16.1155 2.98164 15.8995 3.17773 15.6925C3.34855 15.5131 3.55407 15.3704 3.78178 15.2729C4.00949 15.1754 4.25465 15.1253 4.50234 15.1256C4.75004 15.1258 4.99509 15.1765 5.2226 15.2744C5.45012 15.3723 5.65534 15.5155 5.82578 15.6952C6.02109 15.9026 6.21836 16.1144 6.44062 16.2913C6.84141 16.6104 7.14844 16.6093 7.55234 16.2983C7.74179 16.1502 7.9169 15.9847 8.07539 15.8038C8.87969 14.8956 10.1133 14.8956 10.9223 15.7991C11.1108 16.0048 11.3178 16.1927 11.5406 16.3605C11.8461 16.5948 12.1781 16.5874 12.4754 16.3499C12.7223 16.1492 12.955 15.9316 13.1719 15.6987C13.823 15.0136 14.8961 14.9276 15.6328 15.519C15.7582 15.6198 15.857 15.7534 15.977 15.8628C16.1723 16.0413 16.3676 16.2245 16.5805 16.3827C16.8574 16.5882 17.1637 16.5858 17.4313 16.3776C17.6943 16.1682 17.9418 15.94 18.1719 15.6948C18.8492 14.9854 19.9832 14.9292 20.7078 15.5843C20.8184 15.6843 20.9094 15.8054 21.0148 15.9116C21.2969 16.194 21.5703 16.4843 22 16.5312V18.0937Z" fill="#2B3641"/>
<path d="M2 20.4374C2.18867 20.3593 2.40156 20.3105 2.56094 20.1913C2.7875 20.0218 2.98164 19.8058 3.17773 19.5987C3.34855 19.4194 3.55407 19.2766 3.78178 19.1792C4.00949 19.0817 4.25465 19.0316 4.50234 19.0318C4.75004 19.0321 4.99509 19.0827 5.2226 19.1806C5.45012 19.2786 5.65534 19.4217 5.82578 19.6015C6.02109 19.8089 6.21836 20.0206 6.44062 20.1976C6.84141 20.5167 7.14844 20.5155 7.55234 20.2046C7.74179 20.0565 7.9169 19.8909 8.07539 19.7101C8.87969 18.8019 10.1133 18.8019 10.9223 19.7054C11.1108 19.911 11.3178 20.0989 11.5406 20.2667C11.8461 20.5011 12.1781 20.4937 12.4754 20.2562C12.7223 20.0555 12.955 19.8379 13.1719 19.605C13.823 18.9198 14.8961 18.8339 15.6328 19.4253C15.7582 19.5261 15.857 19.6597 15.977 19.769C16.1723 19.9476 16.3676 20.1308 16.5805 20.289C16.8574 20.4944 17.1637 20.4921 17.4313 20.2839C17.6943 20.0745 17.9418 19.8463 18.1719 19.6011C18.8492 18.8917 19.9832 18.8355 20.7078 19.4905C20.8184 19.5905 20.9094 19.7116 21.0148 19.8179C21.2969 20.1003 21.5703 20.3905 22 20.4374V21.9999H21.7266C21.5113 21.9323 21.2887 21.8827 21.0824 21.7937C20.5395 21.5593 20.1187 21.1687 19.7348 20.7292C19.5727 20.5444 19.4316 20.5382 19.2789 20.7155C18.7375 21.3433 18.1125 21.8378 17.2734 21.9999H16.7266C16.5113 21.9323 16.2887 21.8827 16.0824 21.7937C15.5395 21.5593 15.1188 21.1687 14.7348 20.7292C14.5727 20.5444 14.4316 20.5382 14.2789 20.7155C13.7375 21.3433 13.1125 21.8378 12.2734 21.9999H11.7266C11.5113 21.9323 11.2887 21.8827 11.0824 21.7937C10.5395 21.5593 10.1187 21.1687 9.73477 20.7292C9.57266 20.5444 9.43164 20.5382 9.27891 20.7155C8.7375 21.3433 8.1125 21.8378 7.27344 21.9999H6.72656C6.51133 21.9323 6.28867 21.8827 6.08242 21.7937C5.53945 21.5593 5.11875 21.1687 4.73477 20.7292C4.57266 20.5444 4.43164 20.5382 4.27891 20.7155C3.7375 21.3433 3.1125 21.8378 2.27344 21.9999H2V20.4374Z" fill="#2B3641"/>
</g>
<defs>
<clipPath id="clip0_2020_4279">
<rect width="20" height="20" fill="white" transform="translate(2 2)"/>
</clipPath>
</defs>
</svg>
