<svg width="24" height="24" viewBox="0 0 24 24" fill="none" xmlns="http://www.w3.org/2000/svg">
<g clip-path="url(#clip0_2020_4274)">
<path d="M15.0092 22.0001C14.8166 21.9776 14.6215 21.9662 14.4311 21.9307C13.5602 21.7705 12.8657 21.0341 12.7859 20.1526C12.6492 18.6721 12.6721 17.1873 12.7264 15.7036C12.7338 15.3194 12.7647 14.9359 12.8187 14.5555C12.9753 13.5769 13.806 12.8494 14.7958 12.7811C16.4279 12.6647 18.0601 12.6715 19.6938 12.7435C20.3528 12.7727 20.9534 12.9298 21.4224 13.4293C21.7533 13.7768 21.9462 14.233 21.9651 14.7126C22.0554 16.3492 21.9651 17.978 21.7658 19.6026C21.7001 20.1565 21.4486 20.6717 21.0524 21.0643C20.6562 21.4568 20.1386 21.7033 19.5842 21.7637C18.7817 21.8456 17.9771 21.903 17.1735 21.9724C17.1156 21.9771 17.0593 21.9907 17.0019 22.0001H15.0092ZM14.1482 17.4837H14.1769C14.1769 17.6789 14.1707 17.8741 14.1769 18.0693C14.2015 18.6992 14.2187 19.3301 14.2641 19.959C14.287 20.28 14.5004 20.4611 14.7958 20.4778C16.3624 20.5592 17.9332 20.4919 19.4871 20.2768C19.867 20.2246 20.2286 19.8677 20.2792 19.4883C20.495 17.9278 20.5623 16.3504 20.4801 14.7773C20.4789 14.6688 20.4427 14.5636 20.3768 14.4774C20.311 14.3912 20.2191 14.3285 20.1149 14.2987C19.9849 14.2578 19.8498 14.2349 19.7136 14.2309C18.122 14.1383 16.526 14.1481 14.9356 14.2601C14.5333 14.2898 14.2844 14.5273 14.2641 14.9297C14.2213 15.7819 14.1863 16.6331 14.1482 17.4837Z" fill="#2B3641"/>
<path d="M2 15.0459C2.02191 14.8476 2.03339 14.6466 2.06783 14.4504C2.1451 14.0141 2.3626 13.615 2.68731 13.3136C3.01201 13.0121 3.42619 12.8249 3.86694 12.7804C5.35351 12.6484 6.84373 12.6661 8.3329 12.7282C8.69703 12.7358 9.06044 12.7642 9.42134 12.8133C9.89239 12.8837 10.3258 13.1114 10.651 13.4594C10.9762 13.8075 11.1742 14.2553 11.2126 14.7301C11.3551 16.5146 11.3577 18.3075 11.2205 20.0924C11.1364 21.1414 10.2938 21.9242 9.24237 21.9649C9.14584 21.9691 9.04983 21.9879 8.95382 21.9999H7.03939C6.98252 21.9905 6.92565 21.977 6.86825 21.9717C6.0454 21.9018 5.22098 21.8449 4.39969 21.7604C3.33733 21.6513 2.44247 20.821 2.27237 19.7731C2.17793 19.1896 2.13462 18.5978 2.07827 18.0091C2.04226 17.6344 2.02609 17.2576 2 16.8824V15.0459ZM6.51031 14.1456V14.1738C6.36055 14.1738 6.2108 14.1691 6.06157 14.1738C5.39838 14.1983 4.73467 14.2119 4.07305 14.2573C3.7005 14.2824 3.53926 14.488 3.51891 14.858C3.44264 16.3991 3.51059 17.944 3.72189 19.4725C3.77407 19.8623 4.12992 20.2266 4.51865 20.2782C6.07264 20.4927 7.64337 20.5601 9.21002 20.4797C9.32171 20.4799 9.43041 20.4436 9.5196 20.3763C9.60878 20.309 9.67358 20.2145 9.70415 20.1071C9.74296 19.9832 9.76472 19.8547 9.76885 19.725C9.85338 18.1317 9.86329 16.5384 9.74224 14.9462C9.71041 14.5287 9.48135 14.2834 9.06392 14.262C8.21289 14.2182 7.36134 14.1837 6.51031 14.1456Z" fill="#2B3641"/>
<path d="M2 7.07636C2.02505 6.72096 2.04331 6.36451 2.07722 6.00963C2.13358 5.42043 2.17428 4.8281 2.26924 4.24464C2.44195 3.18157 3.31281 2.37474 4.37934 2.23644C5.81318 2.05094 7.25899 1.97418 8.70441 2.00682C8.97789 2.00692 9.25105 2.0254 9.52205 2.06214C10.4331 2.20826 11.1646 2.95559 11.2126 3.87671C11.2763 5.10417 11.2914 6.33529 11.2951 7.56484C11.3023 8.18965 11.265 8.81418 11.1834 9.43369C11.1146 9.90233 10.888 10.3335 10.5412 10.6561C10.1944 10.9786 9.74808 11.1734 9.27576 11.2081C7.49043 11.3519 5.69653 11.3545 3.91077 11.2159C2.86042 11.1324 2.07931 10.2911 2.03652 9.23746C2.02926 9.15392 2.0176 9.07083 2.00157 8.98852L2 7.07636ZM6.62458 9.84963C7.3676 9.81623 8.21915 9.78178 9.06966 9.7369C9.47456 9.7155 9.72398 9.4697 9.7365 9.06576C9.77146 7.94737 9.80642 6.82899 9.81529 5.7106C9.81998 5.15219 9.78137 4.59221 9.73702 4.03484C9.71145 3.71597 9.50065 3.53697 9.20115 3.51975C7.63058 3.4279 6.06679 3.51244 4.50926 3.71963C4.13097 3.77181 3.77198 4.13348 3.72137 4.51236C3.50601 6.06655 3.43892 7.63769 3.521 9.20458C3.5238 9.32895 3.56915 9.4486 3.64948 9.54357C3.72981 9.63854 3.84027 9.70309 3.96243 9.72646C4.06409 9.74927 4.16771 9.76221 4.27185 9.76508C5.01957 9.79379 5.76728 9.81988 6.62458 9.84963Z" fill="#2B3641"/>
<path d="M17.5021 11.3385C16.5786 11.2972 15.6681 11.269 14.7591 11.2127C14.2534 11.1772 13.7771 10.9622 13.416 10.6062C13.055 10.2503 12.8331 9.77702 12.7904 9.27181C12.6458 7.48706 12.6428 5.69366 12.7815 3.90845C12.865 2.85843 13.7072 2.08187 14.7565 2.02968C16.3798 1.94775 17.9947 2.0349 19.606 2.23321C20.1556 2.30233 20.6665 2.55271 21.0579 2.94476C21.4493 3.33681 21.6989 3.84816 21.7672 4.39797C21.9728 6.00602 22.04 7.62877 21.9681 9.24832C21.9159 10.2848 21.1421 11.1354 20.1032 11.2137C19.2345 11.2805 18.362 11.2993 17.5021 11.3385ZM17.4865 9.85161V9.8083C17.9613 9.8083 18.4361 9.81717 18.911 9.80517C19.2679 9.7963 19.6258 9.77385 19.9811 9.73315C20.2859 9.6987 20.4638 9.49099 20.4805 9.20292C20.5619 7.63653 20.4946 6.06595 20.2796 4.51226C20.2274 4.12398 19.8622 3.76911 19.4724 3.71744C17.9315 3.50485 16.3741 3.43792 14.8207 3.51756C14.5154 3.53478 14.3145 3.71013 14.2645 4.01439C14.2483 4.11058 14.2379 4.20765 14.2332 4.30508C14.1528 5.89211 14.1429 7.47811 14.2629 9.06358C14.2932 9.4649 14.5311 9.71488 14.9323 9.73524C15.7844 9.77907 16.6354 9.81352 17.4865 9.85161Z" fill="#2B3641"/>
</g>
<defs>
<clipPath id="clip0_2020_4274">
<rect width="20" height="20" fill="white" transform="translate(2 2)"/>
</clipPath>
</defs>
</svg>
