<svg width="24" height="24" viewBox="0 0 24 24" fill="none" xmlns="http://www.w3.org/2000/svg">
<g clip-path="url(#clip0_2020_4291)">
<path d="M20.1221 23H3.83755C3.79961 22.9837 3.76056 22.9702 3.72067 22.9596C2.36463 22.6949 1.49584 21.8948 1.09968 20.5747C1.05929 20.4403 1.03265 20.301 1 20.164V19.3905C1.01595 19.36 1.02862 19.3278 1.03781 19.2947C1.27026 17.9235 2.24776 16.9029 3.60209 16.6197C3.79372 16.5802 3.98879 16.5652 4.20362 16.5364C4.16066 16.4736 4.13273 16.4268 4.10222 16.3804C3.00484 14.6973 3.70521 12.4306 5.55838 11.6537C6.09332 11.4285 6.65146 11.3864 7.22034 11.4023C7.34323 11.4061 7.46611 11.4023 7.63025 11.4023C5.16179 9.60912 4.02789 7.23415 4.14476 4.24255C5.10121 4.20259 6.01512 4.27521 6.93375 4.5326C7.04504 3.58467 7.33077 2.70679 7.73165 1.8521C8.61591 2.17395 9.44131 2.58733 10.1778 3.17774C10.2 3.15393 10.2207 3.12866 10.2396 3.10211C10.647 2.37849 11.178 1.75284 11.7731 1.17876C11.8244 1.12233 11.8719 1.06261 11.9154 1H11.9583C12.6303 1.65315 13.2602 2.34111 13.7144 3.19149C14.4753 2.58303 15.2986 2.17051 16.1781 1.85468C16.5799 2.71624 16.8656 3.59326 16.9747 4.53389C17.9067 4.27606 18.8223 4.197 19.7646 4.24685C19.8729 7.2479 18.7372 9.61815 16.3152 11.3993C17.7288 11.288 18.9998 11.554 19.8385 12.8023C20.669 14.0389 20.5895 15.3018 19.7955 16.5501L19.9644 16.5613C20.648 16.6045 21.3002 16.864 21.8267 17.3021C22.3532 17.7403 22.7268 18.3346 22.8934 18.999C22.9364 19.1709 22.9648 19.3467 23 19.5203V20.0359C22.9862 20.0973 22.9699 20.1584 22.957 20.2202C22.7221 21.5649 21.9559 22.4485 20.6583 22.8711C20.486 22.9274 20.3021 22.9575 20.1221 23ZM13.8682 16.5471C13.6882 14.6603 11.9214 12.8873 9.99516 12.7425C8.89176 12.6592 7.77763 12.6738 6.66993 12.7043C5.68169 12.7314 4.89411 13.5813 4.86961 14.552C4.84169 15.6692 5.69544 16.551 6.82762 16.554C9.11089 16.5592 11.3942 16.554 13.6779 16.554C13.741 16.5557 13.8059 16.5501 13.8682 16.5471ZM15.1856 16.5557C15.8503 16.5557 16.5072 16.5596 17.1642 16.5557C18.268 16.548 19.13 15.6963 19.1278 14.6221C19.1257 13.5478 18.2607 12.6953 17.1573 12.6918C15.8623 12.6875 14.5673 12.6918 13.2723 12.6918C13.2211 12.6918 13.1704 12.7021 13.0888 12.7107C14.291 13.736 14.9828 15.0054 15.1856 16.5557ZM11.9583 2.89199C9.84735 5.40189 10.2035 9.11926 11.9695 11.0486C13.8562 8.77421 13.9065 5.25794 11.9583 2.89199ZM6.27936 21.6756C6.3928 20.3092 6.82462 19.0386 7.5658 17.8487C6.3812 17.8487 5.24257 17.8272 4.1048 17.8556C3.14234 17.8796 2.34702 18.6982 2.29417 19.6526C2.2396 20.6409 2.90731 21.5553 3.87922 21.6589C4.66337 21.7423 5.46299 21.6756 6.27936 21.6756ZM11.3886 21.7027C11.402 21.683 11.4137 21.6622 11.4234 21.6404C11.9441 19.9525 13.0531 19.1327 14.8178 19.1327H21.3226H21.5752C21.3419 18.3768 20.5947 17.8483 19.7581 17.8483C18.0334 17.8448 16.3087 17.8384 14.5845 17.8483C13.1287 17.8582 11.939 18.4443 11.0272 19.5774C10.5349 20.1895 10.2193 20.9246 10.1146 21.7032L11.3886 21.7027ZM13.5008 11.2179C14.9707 10.8445 16.1893 10.0577 17.126 8.84468C17.8651 7.89551 18.3197 6.75605 18.4369 5.55873C17.0276 5.72159 15.8198 6.25829 14.7881 7.1843C14.7202 7.24489 14.6837 7.36865 14.6777 7.46576C14.6283 8.23493 14.4869 8.98605 14.1978 9.70022C13.9894 10.2146 13.7359 10.71 13.5008 11.2175V11.2179ZM5.49436 5.56475C5.31776 7.74507 8.27218 11.1041 10.4429 11.1939C9.70083 10.0225 9.30253 8.74671 9.21702 7.36951C9.20555 7.28703 9.16239 7.21228 9.09672 7.1611C8.70486 6.87492 8.32331 6.57112 7.90395 6.32661C7.16277 5.89175 6.35155 5.65241 5.49436 5.56475ZM12.7631 21.704C12.8194 21.7066 12.8619 21.7105 12.904 21.7105C15.1956 21.7105 17.486 21.7105 19.7753 21.7105C19.9112 21.7119 20.0467 21.6975 20.1792 21.6675C20.8594 21.5008 21.3251 21.093 21.5915 20.4218H18.5989C17.2463 20.4218 15.892 20.417 14.5406 20.4244C13.7311 20.4291 12.9745 20.9748 12.7631 21.704ZM10.9271 17.8453C10.3565 17.8453 9.84821 17.838 9.34077 17.8513C9.23302 17.8589 9.13242 17.908 9.06019 17.9884C8.51643 18.6559 8.11163 19.4254 7.86958 20.2516C7.73509 20.7208 7.64787 21.2034 7.53572 21.6971H8.81184C9.01035 20.1493 9.70943 18.8847 10.9271 17.8453ZM9.30639 5.6494C9.40823 5.26739 9.51006 4.8957 9.60373 4.52229C9.61619 4.47158 9.60845 4.38349 9.57537 4.35857C9.21402 4.08528 8.84493 3.82101 8.47928 3.55416L8.40366 3.5894C8.33362 4.03199 8.26101 4.47459 8.19741 4.91804C8.19842 4.94411 8.20551 4.96957 8.21812 4.9924C8.23073 5.01524 8.24851 5.0348 8.27003 5.04953C8.61248 5.25321 8.95922 5.44959 9.30639 5.6494ZM15.5053 3.5894L15.4262 3.55588C15.0648 3.81886 14.7018 4.08012 14.3439 4.34826C14.3244 4.3662 14.3095 4.38846 14.3002 4.41324C14.291 4.43802 14.2877 4.46463 14.2906 4.49092C14.3907 4.88066 14.5003 5.26782 14.6051 5.64854C14.9437 5.45345 15.2844 5.26181 15.6204 5.05899C15.6446 5.04258 15.6646 5.02083 15.679 4.99541C15.6934 4.97 15.7017 4.94161 15.7033 4.91246C15.6436 4.47029 15.5727 4.03027 15.5053 3.5894Z" fill="#2B3641"/>
</g>
<defs>
<clipPath id="clip0_2020_4291">
<rect width="24" height="24" fill="white"/>
</clipPath>
</defs>
</svg>
