<svg width="24" height="24" viewBox="0 0 24 24" fill="none" xmlns="http://www.w3.org/2000/svg">
<g clip-path="url(#clip0_2020_4295)">
<path d="M0 12.9857C0.187187 12.5693 0.519564 12.4421 0.959933 12.4523C1.79088 12.4715 2.62182 12.4553 3.45276 12.4607C3.59495 12.4607 3.65795 12.4283 3.69274 12.2734C3.8992 11.2478 4.45356 10.325 5.26203 9.66111C6.0705 8.99726 7.08343 8.63313 8.12943 8.63033C10.3829 8.62153 12.6363 8.62153 14.8898 8.63033C15.9319 8.63579 16.9404 8.99982 17.7458 9.66127C18.5512 10.3227 19.1045 11.2413 19.3127 12.2626C19.3427 12.4085 19.3883 12.4637 19.54 12.4607C19.957 12.4511 20.3746 12.4571 20.8114 12.4571C20.7779 11.9345 20.6581 11.4211 20.4568 10.9377C20.0803 9.98529 19.447 9.15604 18.6275 8.54212C18.5851 8.50231 18.5312 8.47684 18.4735 8.46931C18.4158 8.46177 18.3572 8.47255 18.3059 8.50012C18.1239 8.58096 17.927 8.62297 17.7278 8.62346C17.5287 8.62395 17.3316 8.58292 17.1491 8.50299C16.9667 8.42305 16.8029 8.30596 16.6683 8.15918C16.5336 8.01241 16.431 7.83917 16.367 7.65052C16.303 7.46187 16.279 7.26196 16.2966 7.06352C16.3141 6.86508 16.3728 6.67248 16.4689 6.498C16.5651 6.32352 16.6965 6.171 16.8548 6.05015C17.0132 5.92931 17.195 5.8428 17.3886 5.79614C18.2285 5.59751 19.0085 6.13098 19.1567 6.9879C19.1796 7.09951 19.241 7.19954 19.3301 7.27054C21.0249 8.51812 22.0089 10.1773 22.2441 12.2728C22.2573 12.3929 22.2896 12.4529 22.4186 12.4823C22.8848 12.5909 23.1134 12.9923 22.9526 13.4424C22.325 15.187 21.6919 16.9291 21.0531 18.6685C20.9229 19.0244 20.6794 19.1744 20.2654 19.175C19.1855 19.175 18.1091 19.1804 17.0316 19.1714C16.8378 19.1714 16.7682 19.2176 16.74 19.4216C16.611 20.3476 16.4461 21.2687 16.3201 22.1946C16.2667 22.5907 16.1095 22.8715 15.7249 23.0053H15.4105C14.939 22.7671 14.8046 22.5361 14.879 22.0632C15.0949 20.659 15.3123 19.2552 15.5311 17.8518C15.5857 17.4996 15.6355 17.1467 15.6895 16.7789H7.32969C7.32605 16.8332 7.32605 16.8877 7.32969 16.9421C7.58727 18.6199 7.84625 20.2972 8.10664 21.9738C8.19423 22.5319 8.09284 22.7497 7.59127 23.0005H7.2313C6.93492 22.8523 6.74293 22.6369 6.69133 22.2894C6.55274 21.3209 6.39136 20.3554 6.25456 19.3862C6.22697 19.1912 6.14777 19.1666 5.98218 19.1678C4.91246 19.1738 3.84273 19.1714 2.77361 19.1708C2.28764 19.1708 2.07946 19.0256 1.91507 18.5749C1.63309 17.8038 1.35411 17.0315 1.07153 16.2604C0.71715 15.2871 0.359975 14.3143 0 13.3422V12.9857ZM5.98698 17.7366C5.97678 17.6298 5.97318 17.5488 5.96119 17.469C5.89579 17.0489 5.82739 16.6288 5.7626 16.2088C5.7152 15.9003 5.7998 15.6279 6.07218 15.4719C6.23564 15.3846 6.41844 15.3398 6.60374 15.3417C9.86831 15.3337 13.1323 15.3319 16.3957 15.3363C16.4557 15.3347 16.5158 15.3361 16.5756 15.3405C16.6769 15.3475 16.7756 15.3756 16.8652 15.4232C16.9549 15.4707 17.0336 15.5365 17.0963 15.6164C17.1589 15.6962 17.2041 15.7884 17.229 15.8868C17.2538 15.9852 17.2577 16.0878 17.2404 16.1878C17.2236 16.3138 17.1984 16.4386 17.1804 16.5646C17.1204 16.9463 17.0664 17.3291 17.0052 17.7396H17.2572C18.0509 17.7396 18.8447 17.7336 19.6378 17.7438C19.8106 17.7438 19.885 17.6892 19.9414 17.5308C20.3482 16.3906 20.764 15.2535 21.1767 14.1157C21.2001 14.0503 21.2211 13.9843 21.2451 13.9123H1.77468C1.77221 13.931 1.77221 13.95 1.77468 13.9687C2.21565 15.1844 2.65482 16.4002 3.10478 17.6124C3.12758 17.6724 3.24637 17.7324 3.32137 17.7324C4.01732 17.742 4.71387 17.7384 5.41042 17.7384L5.98698 17.7366ZM17.8662 12.4499C17.6076 11.1195 16.3063 10.0741 14.9 10.0687C12.6333 10.0599 10.3663 10.0599 8.09884 10.0687C6.77113 10.0735 5.57901 10.9689 5.17824 12.229C5.15724 12.2962 5.14524 12.3665 5.12664 12.4481L17.8662 12.4499Z" fill="#2B3641"/>
<path d="M15.3283 3.82422C15.3295 4.58203 15.1058 5.32315 14.6857 5.95379C14.2656 6.58443 13.6679 7.07622 12.9682 7.36694C12.2685 7.65765 11.4984 7.73421 10.7552 7.58692C10.012 7.43964 9.32915 7.07512 8.79316 6.53953C8.25716 6.00393 7.89209 5.32132 7.74413 4.5781C7.59617 3.83489 7.67199 3.06447 7.96199 2.36437C8.25198 1.66427 8.74311 1.06596 9.37322 0.645167C10.0033 0.224373 10.7441 1.49956e-05 11.5017 0.000489031C12.5149 0.00396287 13.4856 0.407821 14.2024 1.12406C14.9192 1.84029 15.3238 2.81084 15.3283 3.82422ZM9.10911 3.83802C9.11211 5.15821 10.1974 6.24316 11.5089 6.23116C11.9829 6.23044 12.4459 6.08918 12.8396 5.82523C13.2333 5.56128 13.5398 5.1865 13.7205 4.74829C13.9013 4.31007 13.948 3.8281 13.8548 3.36331C13.7617 2.89853 13.5328 2.47182 13.1972 2.13714C12.8616 1.80245 12.4343 1.57483 11.9693 1.48304C11.5043 1.39126 11.0226 1.43945 10.585 1.62151C10.1474 1.80357 9.77365 2.11133 9.51095 2.50586C9.24824 2.9004 9.10839 3.36399 9.10911 3.83802Z" fill="#2B3641"/>
</g>
<defs>
<clipPath id="clip0_2020_4295">
<rect width="23" height="23" fill="white"/>
</clipPath>
</defs>
</svg>
