<svg width="24" height="24" viewBox="0 0 24 24" fill="none" xmlns="http://www.w3.org/2000/svg">
<g clip-path="url(#clip0_2020_4283)">
<path d="M1 19.5168V13.5003C1.23719 12.4214 2.06562 11.9302 3.14844 12.0089C3.30914 12.0209 3.47199 12.0089 3.66836 12.0089C3.66836 11.6862 3.64387 11.3908 3.67352 11.0994C3.73539 10.4866 4.06023 10.0214 4.60637 9.6983C4.96773 9.48483 5.36691 9.43209 5.77984 9.43209C9.62411 9.43209 13.4685 9.43332 17.3131 9.4358C18.0204 9.4358 18.7474 9.32164 19.4155 9.69665V8.22506C18.8862 8.22506 18.3718 8.22754 17.8575 8.22506C17.3432 8.22259 17.0591 7.8789 17.1769 7.40747C17.4877 6.16102 17.8016 4.91499 18.1187 3.66937C18.2249 3.24738 18.4453 3.07925 18.8943 3.07925C19.6815 3.07677 20.4693 3.07677 21.2576 3.07925C21.6959 3.07925 21.9155 3.24697 22.0199 3.65618C22.221 4.44204 22.4148 5.22914 22.6171 6.01459C22.74 6.49138 22.8728 6.96612 23.0009 7.44167V7.77135C22.829 8.12781 22.5389 8.25721 22.1372 8.23042C21.8166 8.20858 21.4927 8.22589 21.1712 8.22589H20.7343V12.0147C20.9276 12.0147 21.1055 12.0093 21.2825 12.0147C21.7784 12.0328 22.1926 12.2207 22.5334 12.5681C22.7912 12.8323 22.908 13.1595 23 13.499V19.5156C22.9416 19.6829 22.9033 19.8597 22.8221 20.0159C22.4741 20.6847 21.8905 20.9959 21.1231 20.9971C19.1981 21.0004 17.2733 21.0004 15.3486 20.9971C11.2058 20.9971 7.06289 20.9971 2.91984 20.9971C2.43988 20.9971 2.00461 20.885 1.6282 20.585C1.27543 20.3048 1.11043 19.9269 1 19.5168ZM19.0507 11.9393C19.0507 11.7233 19.0628 11.4691 19.0473 11.2165C19.037 11.0886 18.9825 10.9677 18.8926 10.8729C18.8026 10.7781 18.6823 10.7146 18.5506 10.6927C18.4512 10.6768 18.3505 10.6696 18.2498 10.6713C14.0827 10.6713 9.91559 10.6713 5.74848 10.6713C5.64111 10.6681 5.53371 10.6767 5.42836 10.6968C5.1757 10.7537 4.99352 10.9123 4.96301 11.1542C4.9282 11.4291 4.95484 11.711 4.95484 11.9965C4.98583 12.0031 5.01729 12.0073 5.04894 12.0093C6.04152 11.9974 6.90305 12.7746 6.85363 13.8765C6.82785 14.4662 6.84934 15.058 6.84934 15.6485V15.8698H17.1477V15.6069C17.1507 14.934 17.133 14.2602 17.1631 13.5876C17.1902 12.9815 17.5069 12.508 18.0689 12.2335C18.3594 12.0934 18.698 12.0415 19.0507 11.9393ZM17.1601 17.1345H6.84031V19.7489H17.161L17.1601 17.1345ZM5.56285 16.5135C5.56285 15.6139 5.56285 14.7143 5.56285 13.8147C5.56285 13.4195 5.38453 13.2501 4.97375 13.2489C4.28625 13.2467 3.59875 13.2467 2.91125 13.2489C2.46094 13.2473 2.28906 13.4142 2.28906 13.8456C2.28906 15.6176 2.28906 17.3896 2.28906 19.1616C2.28906 19.5873 2.47082 19.762 2.9134 19.7629C3.5648 19.7629 4.21635 19.7629 4.86805 19.7629C5.40945 19.7629 5.56242 19.6186 5.56242 19.1076C5.56299 18.2422 5.56314 17.3775 5.56285 16.5135ZM21.7109 16.5003C21.7109 15.6075 21.7109 14.7146 21.7109 13.8217C21.7109 13.4187 21.5305 13.2481 21.1072 13.2468C20.4197 13.2452 19.7322 13.2452 19.0447 13.2468C18.6073 13.2468 18.4376 13.4117 18.4376 13.8361C18.4376 15.6153 18.4376 17.3942 18.4376 19.1728C18.4376 19.5886 18.6176 19.7616 19.049 19.7625C19.7291 19.7641 20.4093 19.7641 21.0896 19.7625C21.5309 19.7625 21.7105 19.5869 21.7105 19.1579C21.7108 18.2722 21.7109 17.3863 21.7109 16.5003ZM21.5326 6.97848C21.3178 6.12256 21.1068 5.27653 20.8855 4.43298C20.8722 4.3827 20.7691 4.32336 20.7055 4.32047C20.4197 4.30852 20.1331 4.31512 19.8461 4.31512C19.2841 4.31512 19.2823 4.31512 19.1517 4.82982C18.9713 5.54151 18.7929 6.25361 18.6107 6.97848H21.5326Z" fill="#2B3641"/>
<path d="M7.9063 7.40881H2.62114C2.04278 7.40881 1.81763 7.19205 1.81763 6.63654C1.81763 5.34532 1.81763 4.05409 1.81763 2.76286C1.81763 2.22714 2.05267 2.00049 2.61384 2.00049H13.2271C13.7857 2.00049 14.019 2.22632 14.0195 2.76616C14.0195 4.06425 14.0195 5.36221 14.0195 6.66003C14.0195 7.18669 13.7874 7.4084 13.2349 7.40881H7.9063ZM3.11786 6.15604H12.7132V3.24831H3.11786V6.15604Z" fill="#2B3641"/>
</g>
<defs>
<clipPath id="clip0_2020_4283">
<rect width="22" height="19" fill="white" transform="translate(1 2)"/>
</clipPath>
</defs>
</svg>
