<svg width="24" height="24" viewBox="0 0 24 24" fill="none" xmlns="http://www.w3.org/2000/svg">
<g clip-path="url(#clip0_2020_4303)">
<path d="M2.0001 16.2189C2.10134 15.8285 2.21824 15.4455 2.47448 15.123C2.94416 14.5249 3.561 14.1925 4.32449 14.192C9.94256 14.1867 15.5613 14.1859 21.1808 14.1893C21.6557 14.1893 22.0027 14.5244 22.0017 14.9721C22.0006 15.4199 21.6536 15.7508 21.1761 15.7508C17.4847 15.7508 13.7934 15.7508 10.1021 15.7508C8.19448 15.7508 6.28706 15.7508 4.37981 15.7508C3.81515 15.7508 3.43732 16.2523 3.60275 16.7689C3.651 16.918 3.7429 17.0492 3.86655 17.1455C3.99021 17.2418 4.13992 17.2988 4.29631 17.3091C4.36729 17.3138 4.4393 17.3091 4.5108 17.3091C8.27415 17.3091 12.037 17.3091 15.7993 17.3091C16.1174 17.3058 16.433 17.3672 16.7267 17.4895C17.0204 17.6119 17.2862 17.7927 17.5079 18.0209C17.7296 18.2491 17.9026 18.52 18.0165 18.8171C18.1303 19.1142 18.1826 19.4314 18.1701 19.7493C18.1372 20.8155 17.343 21.7324 16.2653 21.9552C16.2229 21.9665 16.181 21.9801 16.1401 21.9959H8.91431C8.89234 21.9827 8.8695 21.9711 8.84594 21.961C8.44984 21.8149 8.2291 21.46 8.29955 21.0811C8.37261 20.6908 8.68886 20.434 9.10948 20.434C11.2961 20.434 13.4829 20.434 15.6699 20.434C15.7414 20.434 15.8134 20.434 15.8843 20.4309C16.0677 20.4168 16.2404 20.3389 16.3723 20.2108C16.5043 20.0826 16.5872 19.9124 16.6066 19.7295C16.6252 19.5497 16.5799 19.3691 16.4788 19.2194C16.3777 19.0696 16.2271 18.9601 16.0534 18.9101C15.9402 18.8821 15.8236 18.8696 15.7069 18.8731C11.9387 18.8741 8.16995 18.8747 4.40069 18.8747C3.5657 18.8747 2.88727 18.5474 2.42542 17.8549C2.22659 17.5554 2.13735 17.1828 1.99854 16.8436L2.0001 16.2189Z" fill="#2B3641"/>
<path d="M2.00003 11.8435C2.15659 11.3739 2.48902 11.1829 2.97384 11.2173C3.17475 11.2314 3.37724 11.2173 3.57868 11.221C3.78546 11.221 3.98377 11.3031 4.12999 11.4493C4.2762 11.5955 4.35835 11.7938 4.35835 12.0006C4.35835 12.2074 4.2762 12.4057 4.12999 12.5519C3.98377 12.6981 3.78546 12.7803 3.57868 12.7803C3.37724 12.7866 3.17475 12.7709 2.97384 12.7845C2.48954 12.8173 2.15764 12.6279 1.99951 12.1582L2.00003 11.8435Z" fill="#2B3641"/>
<path d="M11.9959 5.88013C15.1444 5.90779 17.7777 8.3115 18.0637 11.4448C18.0799 11.6196 18.0919 11.7955 18.0924 11.9708C18.0924 12.4295 17.7605 12.7787 17.3216 12.7829C16.8827 12.787 16.5435 12.4473 16.532 11.9875C16.4929 10.4318 15.8536 9.18093 14.5818 8.28593C11.8436 6.35503 7.99062 8.03022 7.51677 11.3441C7.48546 11.5622 7.47919 11.7845 7.4698 12.0053C7.44997 12.4515 7.11284 12.7881 6.68074 12.7829C6.47331 12.7805 6.27528 12.6959 6.13017 12.5477C5.98506 12.3994 5.90472 12.1997 5.90681 11.9922C5.86611 9.14022 8.04646 6.50585 10.8557 6.0226C11.233 5.95528 11.6155 5.92449 11.9959 5.88013Z" fill="#2B3641"/>
<path d="M12.6638 3.17721C12.6638 3.30663 12.667 3.43814 12.6638 3.56652C12.6597 3.76997 12.5762 3.96375 12.4312 4.10653C12.2862 4.24932 12.0912 4.3298 11.8877 4.33082C11.6842 4.33184 11.4884 4.25332 11.342 4.112C11.1956 3.97068 11.1102 3.77775 11.104 3.57435C11.0977 3.30194 11.0967 3.02848 11.104 2.75606C11.1103 2.55427 11.1946 2.36279 11.3392 2.22192C11.4838 2.08104 11.6775 2.00176 11.8793 2.00074C12.0812 1.99973 12.2756 2.07707 12.4217 2.21648C12.5677 2.3559 12.6539 2.54652 12.6623 2.74823C12.6685 2.8907 12.6623 3.03422 12.6623 3.17721H12.6638Z" fill="#2B3641"/>
<path d="M20.8294 12.7801C20.6927 12.7801 20.5565 12.7843 20.4203 12.7801C20.2135 12.7801 20.0152 12.698 19.869 12.5518C19.7228 12.4056 19.6406 12.2073 19.6406 12.0005C19.6406 11.7937 19.7228 11.5954 19.869 11.4492C20.0152 11.303 20.2135 11.2208 20.4203 11.2208C20.6927 11.2135 20.9662 11.2135 21.2386 11.2208C21.4418 11.2261 21.6349 11.3105 21.7768 11.4561C21.9187 11.6017 21.9981 11.7969 21.9981 12.0002C21.9981 12.2035 21.9187 12.3988 21.7768 12.5443C21.6349 12.6899 21.4418 12.7744 21.2386 12.7796C21.1003 12.7843 20.9656 12.7801 20.8294 12.7801Z" fill="#2B3641"/>
<path d="M7.39302 3.23833C7.66648 3.24146 7.88827 3.3521 8.03439 3.5812C8.19095 3.827 8.33968 4.07958 8.47432 4.33843C8.56407 4.51631 8.58215 4.72185 8.52485 4.91267C8.46755 5.1035 8.33924 5.26507 8.16634 5.3641C7.99345 5.46312 7.78916 5.49205 7.59557 5.44492C7.40199 5.3978 7.23385 5.2782 7.12582 5.11079C6.97239 4.87021 6.82679 4.62337 6.69737 4.36922C6.63569 4.25058 6.6058 4.11798 6.61061 3.98434C6.61542 3.85071 6.65478 3.72061 6.72484 3.60671C6.7949 3.49282 6.89328 3.39902 7.01038 3.33446C7.12748 3.2699 7.25931 3.23678 7.39302 3.23833Z" fill="#2B3641"/>
<path d="M4.59773 8.63979C4.54551 8.63867 4.49391 8.62824 4.44535 8.609C4.10405 8.42478 3.74605 8.26144 3.43345 8.03495C3.13546 7.82046 3.10311 7.38001 3.29933 7.06323C3.49555 6.74646 3.90574 6.59616 4.25017 6.75637C4.5439 6.89439 4.82747 7.05309 5.09872 7.23127C5.23729 7.32545 5.34033 7.46332 5.39141 7.62288C5.44248 7.78245 5.43865 7.95452 5.38053 8.11166C5.27303 8.42687 4.96878 8.6424 4.59773 8.63979Z" fill="#2B3641"/>
<path d="M20.828 7.56053C20.8229 7.68653 20.7859 7.80917 20.7203 7.9169C20.6548 8.02463 20.5629 8.11391 20.4533 8.17633C20.2138 8.3188 19.9706 8.45761 19.7227 8.58391C19.5422 8.67541 19.3331 8.69302 19.1398 8.63301C18.9465 8.57301 18.7842 8.4401 18.6872 8.26245C18.5903 8.0848 18.5663 7.87637 18.6204 7.68134C18.6744 7.48631 18.8023 7.32 18.9769 7.21766C19.2107 7.0778 19.4466 6.94212 19.6914 6.82C20.2185 6.55228 20.828 6.92646 20.828 7.56053Z" fill="#2B3641"/>
<path d="M17.5896 4.2493C17.4299 4.6621 17.2243 5.161 16.7671 5.48456C16.4968 5.67608 16.1117 5.59885 15.8685 5.36975C15.6336 5.14848 15.5444 4.78108 15.6942 4.49406C15.8477 4.2008 16.0205 3.91803 16.2113 3.64759C16.3976 3.38196 16.7609 3.2922 17.0688 3.40075C17.3902 3.51399 17.5932 3.80311 17.5896 4.2493Z" fill="#2B3641"/>
</g>
<defs>
<clipPath id="clip0_2020_4303">
<rect width="20" height="20" fill="white" transform="translate(2 2)"/>
</clipPath>
</defs>
</svg>
