<svg width="24" height="24" viewBox="0 0 24 24" fill="none" xmlns="http://www.w3.org/2000/svg">
<g clip-path="url(#clip0_2020_4299)">
<path d="M1 15.9028C1.02411 15.8485 1.04712 15.7915 1.07233 15.7367C1.32438 15.1857 2.10079 15.0495 2.43667 15.5483C3.26734 16.7811 5.51824 17.0737 6.88313 16.2377C7.14101 16.0735 7.3709 15.8698 7.56421 15.6341C7.98995 15.1287 8.57514 15.1179 8.97787 15.6428C9.28879 16.0419 9.71439 16.3385 10.1987 16.4934C11.0498 16.7943 11.9803 16.7903 12.8287 16.482C13.3168 16.3165 13.7434 16.0096 14.0534 15.601C14.3986 15.1472 15.0188 15.1124 15.3541 15.5532C15.947 16.33 16.7645 16.6297 17.6976 16.704C18.2103 16.7431 18.7256 16.6765 19.211 16.5086C19.7338 16.3311 20.1754 16.0423 20.5107 15.5972C20.8022 15.209 21.2943 15.1379 21.6691 15.4126C22.0438 15.6873 22.1074 16.1726 21.8208 16.5667C21.1743 17.445 20.2833 17.9531 19.2302 18.1887C17.799 18.5079 16.4358 18.3358 15.1689 17.572C15.0177 17.4814 14.878 17.3728 14.7251 17.267C14.6084 17.3506 14.4966 17.4374 14.3783 17.5145C13.3684 18.1735 12.2501 18.4059 11.0589 18.319C10.0726 18.2473 9.16033 17.9472 8.37405 17.3299C8.26118 17.2409 8.20584 17.3099 8.13132 17.3652C6.42068 18.6409 3.76157 18.6681 2.04216 17.4233C1.60382 17.1057 1.2126 16.7393 1.0011 16.2258L1 15.9028Z" fill="#2B3641"/>
<path d="M1 19.5599C1.02411 19.5056 1.04712 19.4513 1.07178 19.3933C1.32437 18.8428 2.10079 18.706 2.43667 19.2049C3.26569 20.4355 5.5144 20.7319 6.88313 19.8943C7.1408 19.7303 7.37051 19.5267 7.56366 19.2912C7.98995 18.7858 8.57514 18.7744 8.97733 19.2994C9.28793 19.6993 9.71356 19.9966 10.1981 20.1522C11.0492 20.4531 11.9797 20.4492 12.8282 20.1413C13.316 19.9762 13.7426 19.6699 14.0528 19.2619C14.3986 18.8081 15.0183 18.7733 15.3541 19.213C15.947 19.9898 16.764 20.2911 17.6971 20.3639C18.2368 20.4055 18.7792 20.3296 19.2861 20.1413C19.773 19.9733 20.1986 19.6659 20.5091 19.2581C20.8017 18.87 21.2921 18.7983 21.6674 19.0724C22.0427 19.3466 22.109 19.8324 21.8203 20.2265C21.1737 21.1054 20.2828 21.6135 19.2297 21.8485C17.7985 22.1683 16.4352 21.9967 15.1678 21.233C15.0172 21.1423 14.8774 21.0337 14.724 20.9273C14.6742 20.9632 14.6249 20.9968 14.5772 21.0327C12.8715 22.317 10.1466 22.3241 8.44035 21.0408C8.31542 20.9474 8.2431 20.9387 8.11488 21.0348C6.35219 22.361 3.56322 22.3176 1.85039 20.9349C1.49478 20.6483 1.1726 20.3248 1.0011 19.8867L1 19.5599Z" fill="#2B3641"/>
<path d="M5.83985 7.12166H13.2221V6.90453C13.2221 6.19883 13.2221 5.49585 13.2221 4.79178C13.2276 3.33967 14.2829 2.17907 15.7453 2.01513C17.119 1.86151 18.422 2.80605 18.7343 4.18922C18.7722 4.3616 18.7931 4.53722 18.7968 4.71361C18.8083 5.19782 18.468 5.56479 18.0116 5.58216C17.542 5.59899 17.182 5.25102 17.159 4.75812C17.1327 4.18596 16.7585 3.75223 16.2018 3.64855C15.9504 3.60475 15.6914 3.64672 15.4671 3.76761C15.2429 3.88849 15.0667 4.08114 14.9673 4.31408C14.8994 4.49029 14.8654 4.67754 14.867 4.86615C14.8612 7.75806 14.8603 10.6498 14.8643 13.5413C14.8643 13.9213 14.7224 14.215 14.3618 14.3724C14.2391 14.4255 14.1051 14.4477 13.9717 14.4371C13.8382 14.4264 13.7095 14.3833 13.597 14.3115C13.4845 14.2396 13.3916 14.1413 13.3267 14.0253C13.2617 13.9094 13.2268 13.7793 13.2249 13.6466C13.2139 13.2471 13.2188 12.8476 13.2161 12.448C13.2161 12.4432 13.209 12.4377 13.1969 12.4214H5.85135C5.84807 12.4757 5.8404 12.53 5.8404 12.5897C5.8404 12.9486 5.84807 13.3079 5.83601 13.6667C5.82616 13.8753 5.73548 14.0721 5.58285 14.2161C5.43023 14.3601 5.22742 14.4402 5.01665 14.4398C4.80589 14.4394 4.60341 14.3585 4.45137 14.2138C4.29933 14.0692 4.20945 13.8721 4.20044 13.6635C4.20044 13.6228 4.20044 13.582 4.20044 13.5413C4.20044 10.6295 4.20044 7.71771 4.20044 4.80589C4.20044 3.19799 5.48424 1.96573 7.10119 2.00916C8.54334 2.04824 9.75865 3.27236 9.77673 4.70329C9.78276 5.2 9.44797 5.57185 8.98004 5.5827C8.51211 5.59356 8.15814 5.24777 8.13623 4.74889C8.10883 4.15176 7.6672 3.68546 7.08913 3.63661C6.80349 3.61283 6.51918 3.69554 6.29186 3.86854C6.06453 4.04154 5.91058 4.29237 5.86012 4.57193C5.84548 4.65872 5.83906 4.74668 5.84094 4.83466C5.84094 5.5324 5.84094 6.22977 5.84094 6.92678L5.83985 7.12166ZM13.2051 10.7793V8.76485H5.85574V10.7793H13.2051Z" fill="#2B3641"/>
</g>
<defs>
<clipPath id="clip0_2020_4299">
<rect width="21" height="20" fill="white" transform="translate(1 2)"/>
</clipPath>
</defs>
</svg>
