<svg width="24" height="24" viewBox="0 0 24 24" fill="none" xmlns="http://www.w3.org/2000/svg">
<g clip-path="url(#clip0_2020_4271)">
<path d="M18.7529 2V5.13989H20.2551V19.4282H21V20.9979H3V19.4277H3.73853V5.15237H5.2412V2H18.7529ZM16.5043 14.6771V19.4054H18.7381V6.75637H5.25843V19.4033H7.50308V14.6771H16.5043ZM6.75568 5.13989H17.2374V3.57488H6.75568V5.13989ZM9.01018 16.2618V19.3965H11.242V16.2603L9.01018 16.2618ZM14.9918 19.4002V16.2603H12.7673V19.3986L14.9918 19.4002Z" fill="#2B3641"/>
<path d="M11.011 13.0669V11.5071H12.4925V13.0669H11.011Z" fill="#2B3641"/>
<path d="M8.23561 13.0735H6.75854V11.5054H8.23561V13.0735Z" fill="#2B3641"/>
<path d="M15 13.0741V11.5081H16.4771V13.0741H15Z" fill="#2B3641"/>
<path d="M8.23854 8.33032V9.89013H6.76147V8.33032H8.23854Z" fill="#2B3641"/>
<path d="M16.4815 9.89566H15.0044V8.33325H16.4815V9.89566Z" fill="#2B3641"/>
<path d="M12.4977 8.32192V9.89056H11V9.66907C11 9.27392 11 8.87877 11 8.48413C11 8.39263 11 8.3188 11.1201 8.31984C11.5731 8.32399 12.0261 8.32192 12.4977 8.32192Z" fill="#2B3641"/>
</g>
<defs>
<clipPath id="clip0_2020_4271">
<rect width="18" height="19" fill="white" transform="translate(3 2)"/>
</clipPath>
</defs>
</svg>
