<svg width="30" height="23" viewBox="0 0 30 23" fill="none" xmlns="http://www.w3.org/2000/svg">
<g filter="url(#filter0_d_1251_21427)">
<g clip-path="url(#clip0_1251_21427)">
<path d="M14.5 14.9999H8.13C7.1174 15.0025 6.13897 14.6339 5.37981 13.9638C4.62065 13.2937 4.13342 12.3686 4.01024 11.3635C3.88707 10.3584 4.13653 9.34309 4.71142 8.50951C5.28631 7.67594 6.14675 7.08198 7.13 6.83996C7.37 6.78996 7.43996 6.68994 7.46996 6.44994C7.53989 5.37079 7.85891 4.32249 8.40197 3.38732C8.94503 2.45215 9.69735 1.65553 10.6 1.05993C11.6044 0.443234 12.752 0.0986017 13.93 0.0599295C15.4287 -0.0782784 16.9343 0.238845 18.25 0.969903C19.0391 1.43436 19.7236 2.05704 20.2605 2.79876C20.7975 3.54048 21.1752 4.38525 21.37 5.27996C21.4759 5.72834 21.556 6.1824 21.61 6.63995C21.61 6.76995 21.61 6.81991 21.79 6.84991C22.7425 7.05333 23.5927 7.58606 24.1913 8.35442C24.7898 9.12278 25.0983 10.0776 25.0625 11.0509C25.0267 12.0242 24.6488 12.9537 23.9954 13.676C23.342 14.3983 22.4549 14.8671 21.49 14.9999C21.25 14.9999 21.01 14.9999 20.77 14.9999H14.5Z" fill="white"/>
<path d="M16.1871 7.52042L15.2083 8.5L16.1883 9.47958C16.2823 9.57351 16.335 9.70091 16.335 9.83375C16.335 9.96659 16.2823 10.094 16.1883 10.1879C16.0944 10.2818 15.967 10.3346 15.8342 10.3346C15.7013 10.3346 15.5739 10.2818 15.48 10.1879L14.5 9.20833L13.5204 10.1883C13.4265 10.2823 13.2991 10.335 13.1663 10.335C13.0334 10.335 12.906 10.2823 12.8121 10.1883C12.7182 10.0944 12.6654 9.967 12.6654 9.83417C12.6654 9.70133 12.7182 9.57393 12.8121 9.48L13.7917 8.5L12.8129 7.52042C12.7664 7.47391 12.7295 7.41869 12.7043 7.35792C12.6792 7.29715 12.6662 7.23202 12.6662 7.16625C12.6662 7.03341 12.719 6.90601 12.8129 6.81208C12.9068 6.71815 13.0342 6.66538 13.1671 6.66538C13.2999 6.66538 13.4273 6.71815 13.5213 6.81208L14.5 7.79167L15.4796 6.81167C15.5735 6.71774 15.7009 6.66497 15.8338 6.66497C15.9666 6.66497 16.094 6.71774 16.1879 6.81167C16.2818 6.9056 16.3346 7.03299 16.3346 7.16583C16.3346 7.29867 16.2818 7.42607 16.1879 7.52L16.1871 7.52042ZM19 8.5C19 9.39001 18.7361 10.26 18.2416 11.0001C17.7471 11.7401 17.0443 12.3169 16.2221 12.6575C15.3998 12.9981 14.495 13.0872 13.6221 12.9135C12.7492 12.7399 11.9474 12.3113 11.318 11.682C10.6887 11.0526 10.2601 10.2508 10.0865 9.3779C9.91283 8.50499 10.0019 7.60019 10.3425 6.77792C10.6831 5.95566 11.2599 5.25285 11.9999 4.75839C12.74 4.26392 13.61 4 14.5 4C15.6931 4.00132 16.8369 4.47585 17.6805 5.31948C18.5241 6.16311 18.9987 7.30693 19 8.5ZM18 8.5C18 7.80776 17.7947 7.13108 17.4101 6.5555C17.0256 5.97993 16.4789 5.53133 15.8394 5.26642C15.1999 5.00151 14.4961 4.9322 13.8172 5.06725C13.1383 5.2023 12.5146 5.53564 12.0251 6.02513C11.5356 6.51461 11.2023 7.13825 11.0673 7.81718C10.9322 8.49612 11.0015 9.19985 11.2664 9.83939C11.5313 10.4789 11.9799 11.0256 12.5555 11.4101C13.1311 11.7947 13.8078 12 14.5 12C15.428 11.999 16.3176 11.6299 16.9738 10.9738C17.6299 10.3176 17.999 9.42795 18 8.5Z" fill="#FF2929"/>
</g>
</g>
<defs>
<filter id="filter0_d_1251_21427" x="0" y="0" width="29.0801" height="23" filterUnits="userSpaceOnUse" color-interpolation-filters="sRGB">
<feFlood flood-opacity="0" result="BackgroundImageFix"/>
<feColorMatrix in="SourceAlpha" type="matrix" values="0 0 0 0 0 0 0 0 0 0 0 0 0 0 0 0 0 0 127 0" result="hardAlpha"/>
<feOffset dy="4"/>
<feGaussianBlur stdDeviation="2"/>
<feComposite in2="hardAlpha" operator="out"/>
<feColorMatrix type="matrix" values="0 0 0 0 0 0 0 0 0 0 0 0 0 0 0 0 0 0 0.25 0"/>
<feBlend mode="normal" in2="BackgroundImageFix" result="effect1_dropShadow_1251_21427"/>
<feBlend mode="normal" in="SourceGraphic" in2="effect1_dropShadow_1251_21427" result="shape"/>
</filter>
<clipPath id="clip0_1251_21427">
<rect x="4" width="21.08" height="15" rx="4" fill="white"/>
</clipPath>
</defs>
</svg>
