<svg width="30" height="23" viewBox="0 0 30 23" fill="none" xmlns="http://www.w3.org/2000/svg">
<g filter="url(#filter0_d_1258_21464)">
<g clip-path="url(#clip0_1258_21464)">
<path d="M14.5 14.9999H8.13C7.1174 15.0025 6.13897 14.6339 5.37981 13.9638C4.62065 13.2937 4.13342 12.3686 4.01024 11.3635C3.88707 10.3584 4.13653 9.34309 4.71142 8.50951C5.28631 7.67594 6.14675 7.08198 7.13 6.83996C7.37 6.78996 7.43996 6.68994 7.46996 6.44994C7.53989 5.37079 7.85891 4.32249 8.40197 3.38732C8.94503 2.45215 9.69735 1.65553 10.6 1.05993C11.6044 0.443234 12.752 0.0986017 13.93 0.0599295C15.4287 -0.0782784 16.9343 0.238845 18.25 0.969903C19.0391 1.43436 19.7236 2.05704 20.2605 2.79876C20.7975 3.54048 21.1752 4.38525 21.37 5.27996C21.4759 5.72834 21.556 6.1824 21.61 6.63995C21.61 6.76995 21.61 6.81991 21.79 6.84991C22.7425 7.05333 23.5927 7.58606 24.1913 8.35442C24.7898 9.12278 25.0983 10.0776 25.0625 11.0509C25.0267 12.0242 24.6488 12.9537 23.9954 13.676C23.342 14.3983 22.4549 14.8671 21.49 14.9999C21.25 14.9999 21.01 14.9999 20.77 14.9999H14.5Z" fill="white"/>
<path d="M11.2707 8.93734C11.1849 8.85367 11.1168 8.75435 11.0704 8.64503C11.0239 8.53572 11 8.41856 11 8.30024C11 8.18192 11.0239 8.06475 11.0704 7.95544C11.1168 7.84613 11.1849 7.7468 11.2707 7.66314C11.3566 7.57947 11.4584 7.51311 11.5706 7.46783C11.6827 7.42255 11.8029 7.39924 11.9243 7.39924C12.0457 7.39924 12.1659 7.42255 12.278 7.46783C12.3902 7.51311 12.4921 7.57947 12.5779 7.66314L13.769 8.82566L17.4221 5.2639C17.5954 5.09493 17.8305 5 18.0757 5C18.3208 5 18.5559 5.09493 18.7293 5.2639C18.9026 5.43287 19 5.66204 19 5.901C19 6.13995 18.9026 6.36913 18.7293 6.53809L14.4233 10.7355C14.3376 10.8193 14.2357 10.8858 14.1236 10.9312C14.0114 10.9766 13.8912 11 13.7697 11C13.6483 11 13.528 10.9766 13.4159 10.9312C13.3037 10.8858 13.2019 10.8193 13.1161 10.7355L11.2707 8.93734Z" fill="#2FC650"/>
</g>
</g>
<defs>
<filter id="filter0_d_1258_21464" x="0" y="0" width="29.0801" height="23" filterUnits="userSpaceOnUse" color-interpolation-filters="sRGB">
<feFlood flood-opacity="0" result="BackgroundImageFix"/>
<feColorMatrix in="SourceAlpha" type="matrix" values="0 0 0 0 0 0 0 0 0 0 0 0 0 0 0 0 0 0 127 0" result="hardAlpha"/>
<feOffset dy="4"/>
<feGaussianBlur stdDeviation="2"/>
<feComposite in2="hardAlpha" operator="out"/>
<feColorMatrix type="matrix" values="0 0 0 0 0 0 0 0 0 0 0 0 0 0 0 0 0 0 0.25 0"/>
<feBlend mode="normal" in2="BackgroundImageFix" result="effect1_dropShadow_1258_21464"/>
<feBlend mode="normal" in="SourceGraphic" in2="effect1_dropShadow_1258_21464" result="shape"/>
</filter>
<clipPath id="clip0_1258_21464">
<rect x="4" width="21.08" height="15" rx="4" fill="white"/>
</clipPath>
</defs>
</svg>
