<svg width="20" height="21" viewBox="0 0 20 21" fill="none" xmlns="http://www.w3.org/2000/svg">
<g clip-path="url(#clip0_259_19882)">
<path d="M18.4676 20.718H4.86708L4.44348 20.6472C3.33627 20.4677 2.31502 19.9419 1.52739 19.1458C0.739764 18.3498 0.226564 17.3247 0.0619853 16.2189C-0.102593 15.113 0.0899794 13.9836 0.611861 12.994C1.13374 12.0044 1.95789 11.2058 2.96516 10.7138C3.51442 10.45 4.10297 10.2768 4.70788 10.2009V9.95729C4.70788 7.48668 4.70788 5.01419 4.70788 2.5398C4.69325 2.23863 4.75926 1.939 4.89914 1.67164C5.03902 1.40428 5.24774 1.1788 5.50389 1.01834C5.73907 0.896974 5.98451 0.796478 6.23737 0.718018H15.6446C15.8059 0.835118 15.9606 0.960914 16.108 1.09484C17.3163 2.29331 18.5188 3.49745 19.7271 4.69308C19.8185 4.77628 19.8912 4.87792 19.9402 4.99125C19.9892 5.10458 20.0135 5.22701 20.0114 5.3504C20.0114 8.01934 20.0114 10.6873 20.0114 13.3544C20.0114 15.2073 20.0114 17.0631 20.0114 18.9161C20.0255 19.2709 19.929 19.6213 19.735 19.9192C19.541 20.217 19.2591 20.4476 18.9282 20.5792C18.7778 20.635 18.6239 20.6814 18.4676 20.718ZM14.8998 1.89099H6.59274C6.1066 1.89099 5.88485 2.10915 5.88485 2.5908V10.2038C6.8243 10.3135 7.71836 10.6672 8.4776 11.2294C8.57615 11.2982 8.69279 11.3366 8.81306 11.3399C11.3793 11.3399 13.9464 11.3399 16.5146 11.3399C16.5799 11.3399 16.6453 11.3399 16.7107 11.3399C16.8055 11.347 16.8971 11.3772 16.9776 11.4277C17.058 11.4782 17.1248 11.5475 17.1722 11.6296C17.2196 11.7118 17.2461 11.8042 17.2494 11.8989C17.2527 11.9936 17.2327 12.0877 17.1912 12.1729C17.137 12.2854 17.0491 12.3783 16.9396 12.4387C16.83 12.4992 16.7043 12.5241 16.5799 12.5101H9.69721C10.1591 13.2151 10.451 14.017 10.5501 14.8532H16.6169C16.7374 14.8447 16.8575 14.8748 16.9598 14.939C17.062 15.0032 17.1411 15.0982 17.1855 15.2102C17.2258 15.3035 17.2411 15.4058 17.2299 15.5068C17.2186 15.6079 17.1812 15.7043 17.1213 15.7866C17.0613 15.8688 16.981 15.9342 16.8881 15.9762C16.7952 16.0182 16.6929 16.0354 16.5913 16.0261H10.5586C10.4767 16.7071 10.2664 17.3666 9.93886 17.9698C9.60126 18.5688 9.15718 19.1016 8.62827 19.5422H18.1066C18.6041 19.5422 18.8202 19.3241 18.8202 18.8282V5.79522H18.5785C17.5807 5.79522 16.5885 5.79522 15.5821 5.79522C15.4872 5.80927 15.3904 5.80088 15.2994 5.77073C15.2084 5.74058 15.1258 5.68951 15.0583 5.62166C14.9907 5.55381 14.9402 5.47108 14.9107 5.38015C14.8812 5.28922 14.8735 5.19265 14.8884 5.09824V1.89099H14.8998ZM5.29352 11.3428C4.47971 11.3433 3.68431 11.5843 3.00785 12.0351C2.33138 12.486 1.80419 13.1266 1.49289 13.876C1.18158 14.6254 1.10014 15.4499 1.25884 16.2453C1.41754 17.0408 1.80926 17.7716 2.38451 18.3453C2.95977 18.919 3.69275 19.3099 4.49083 19.4686C5.28891 19.6273 6.11629 19.5467 6.86842 19.2369C7.62056 18.9272 8.2637 18.4023 8.71659 17.7284C9.16948 17.0545 9.4118 16.262 9.41292 15.451C9.41292 14.3619 8.97901 13.3174 8.20655 12.547C7.43409 11.7767 6.38632 11.3435 5.29352 11.3428ZM17.8763 4.61375L16.091 2.8373V4.61375H17.8763Z" fill="#2B3641"/>
<path d="M12.3412 8.99969C10.9197 8.99969 9.49827 8.99969 8.09102 8.99969C7.99074 9.0088 7.8898 8.99212 7.79784 8.95123C7.70588 8.91035 7.62599 8.84664 7.5658 8.76618C7.50561 8.68573 7.46714 8.59124 7.45407 8.49173C7.44101 8.39223 7.45378 8.29105 7.49116 8.19787C7.53165 8.08987 7.60424 7.99674 7.69923 7.93093C7.79422 7.86512 7.9071 7.82975 8.02279 7.82955C8.15925 7.82955 8.30708 7.82955 8.43217 7.82955H16.5999C16.7009 7.81996 16.8026 7.83654 16.8953 7.87769C16.9879 7.91885 17.0684 7.98316 17.1287 8.06441C17.1891 8.14566 17.2273 8.24108 17.2398 8.34141C17.2522 8.44174 17.2384 8.54357 17.1998 8.63703C17.1496 8.75504 17.0631 8.85407 16.9527 8.91978C16.8423 8.9855 16.7137 9.01447 16.5857 9.00252C15.1671 8.99685 13.7456 8.99969 12.3412 8.99969Z" fill="#2B3641"/>
<path d="M4.46345 16.301L4.63687 16.1395L6.76906 14.0146C6.84077 13.9291 6.9362 13.8665 7.0434 13.8348C7.15061 13.803 7.26482 13.8035 7.37176 13.8361C7.47723 13.8624 7.57291 13.9183 7.64749 13.9971C7.72206 14.0759 7.77239 14.1744 7.79251 14.2809C7.81251 14.3901 7.80274 14.5026 7.76424 14.6068C7.72574 14.7109 7.6599 14.8029 7.57361 14.8731L5.39877 17.0405C5.23672 17.202 5.07752 17.3663 4.91263 17.5222C4.85765 17.5852 4.78974 17.6358 4.71347 17.6704C4.63721 17.7051 4.55437 17.723 4.47055 17.723C4.38674 17.723 4.3039 17.7051 4.22763 17.6704C4.15137 17.6358 4.08345 17.5852 4.02848 17.5222C3.64942 17.1576 3.27984 16.7902 2.91973 16.42C2.81003 16.3073 2.74974 16.1558 2.75214 15.9988C2.75454 15.8418 2.81943 15.6921 2.93253 15.5828C3.04563 15.4735 3.19767 15.4134 3.35522 15.4158C3.51277 15.4182 3.66291 15.4828 3.77261 15.5955C3.99152 15.8137 4.2218 16.0517 4.46345 16.301Z" fill="#2B3641"/>
</g>
<defs>
<clipPath id="clip0_259_19882">
<rect width="20" height="20" fill="white" transform="translate(0 0.718018)"/>
</clipPath>
</defs>
</svg>
