<svg width="20" height="21" viewBox="0 0 20 21" fill="none" xmlns="http://www.w3.org/2000/svg">
<g clip-path="url(#clip0_259_19895)">
<path d="M11.3301 0.699259C11.4611 0.728086 11.5905 0.763611 11.718 0.805684C12.1779 0.93939 12.5829 1.22072 12.8726 1.6077C13.1622 1.99468 13.321 2.46653 13.3251 2.95278C13.3251 4.20474 13.3251 5.4567 13.3251 6.70865C13.3311 6.79447 13.3195 6.8806 13.2912 6.96168C13.263 7.04276 13.2185 7.11704 13.1608 7.17989C13.103 7.24274 13.0331 7.29281 12.9554 7.32697C12.8777 7.36113 12.794 7.37866 12.7094 7.37845C12.6242 7.37873 12.5399 7.36103 12.4618 7.32649C12.3837 7.29195 12.3134 7.24131 12.2556 7.17777C12.1977 7.11423 12.1534 7.03916 12.1256 6.95734C12.0977 6.87551 12.0868 6.7887 12.0936 6.70239V3.04668C12.1042 2.79179 12.0222 2.54184 11.8633 2.34444C11.7043 2.14704 11.4794 2.01599 11.2315 1.97626C11.1598 1.96986 11.0877 1.96986 11.016 1.97626H5.77587C5.83562 2.00571 5.89736 2.03081 5.96061 2.05137L7.19213 2.47703C7.5141 2.58196 7.79551 2.78706 7.9966 3.06337C8.19769 3.33969 8.3083 3.67325 8.31281 4.01694C8.31281 4.68673 8.31281 5.35654 8.31281 6.02634V16.9747H8.50986H10.9729C11.1204 16.9876 11.2688 16.968 11.4081 16.9173C11.5475 16.8665 11.6743 16.7858 11.7802 16.6806C11.886 16.5754 11.9682 16.4482 12.0212 16.3078C12.0743 16.1673 12.0968 16.0169 12.0874 15.8667V12.2548C12.0761 12.152 12.0899 12.0479 12.1278 11.9519C12.1657 11.8559 12.2263 11.7709 12.3044 11.7045C12.3825 11.6382 12.4755 11.5925 12.5752 11.5717C12.6749 11.5508 12.7781 11.5554 12.8756 11.585C12.9972 11.6177 13.106 11.6873 13.1875 11.7847C13.2689 11.882 13.3191 12.0024 13.3313 12.1296C13.3344 12.1817 13.3344 12.234 13.3313 12.2861V15.8792C13.3366 16.1938 13.2786 16.5061 13.1609 16.7971C13.0433 17.088 12.8684 17.3515 12.647 17.5713C12.4256 17.7911 12.1623 17.9626 11.8734 18.0753C11.5845 18.188 11.2759 18.2395 10.9667 18.2266H8.33128V18.8964C8.37075 19.3207 8.24932 19.7443 7.99179 20.0805C7.73426 20.4168 7.36009 20.6404 6.94581 20.7055C6.94581 20.7055 6.94582 20.7055 6.91503 20.7055H6.40396L6.05913 20.5991L1.20075 18.9903C0.90687 18.9056 0.641907 18.7396 0.435345 18.5108C0.228783 18.282 0.0887337 17.9995 0.0307995 17.6946L0 17.6257V2.12022C0.111084 1.8422 0.244986 1.57418 0.400261 1.31897C0.65654 0.980668 1.03167 0.756337 1.44705 0.692993L11.3301 0.699259ZM7.08128 11.5224V4.16092C7.08128 3.82289 7.00124 3.71647 6.68104 3.61005L1.90887 2.02006C1.49015 1.88235 1.25 2.05763 1.25 2.49581V17.2752C1.25 17.5944 1.33622 17.7133 1.6441 17.8198L3.01109 18.2705L6.43474 19.416C6.69951 19.5036 6.92119 19.4536 7.01356 19.2595C7.0617 19.1472 7.08282 19.0249 7.07514 18.9027C7.08335 16.4489 7.08539 13.995 7.08128 11.5412V11.5224Z" fill="#F26327"/>
<path d="M20 9.66327C19.8707 9.8135 19.7537 9.96999 19.6121 10.1077L16.7303 12.9935C16.6729 13.0523 16.6047 13.0989 16.5295 13.1309C16.4543 13.1629 16.3737 13.1795 16.2922 13.1798C16.2108 13.1801 16.13 13.164 16.0546 13.1326C15.9792 13.1012 15.9107 13.055 15.8529 12.9966C15.7951 12.9382 15.7491 12.8689 15.7177 12.7925C15.6862 12.716 15.6699 12.6341 15.6696 12.5512C15.6693 12.4684 15.6851 12.3863 15.716 12.3097C15.7469 12.2331 15.7924 12.1634 15.8498 12.1046L17.6971 10.2266C17.7463 10.1828 17.7833 10.1328 17.8572 10.0576H11.521C11.4207 10.0696 11.3191 10.0563 11.2251 10.0189C11.1311 9.9815 11.0476 9.92119 10.9819 9.84328C10.9162 9.76537 10.8703 9.67223 10.8484 9.57207C10.8264 9.47191 10.829 9.3678 10.8559 9.2689C10.8898 9.14462 10.9607 9.03402 11.0588 8.95222C11.1569 8.87043 11.2774 8.82142 11.404 8.81193H17.8572L17.6971 8.63666C17.0813 8.01068 16.4656 7.3847 15.8498 6.75872C15.762 6.66826 15.7034 6.55276 15.6817 6.4276C15.66 6.30244 15.6763 6.17354 15.7285 6.05803C15.7806 5.94252 15.8661 5.8459 15.9735 5.78097C16.081 5.71605 16.2054 5.68591 16.3301 5.69457C16.4763 5.718 16.6129 5.78311 16.7242 5.88236C17.771 6.90896 18.8054 7.95434 19.8461 9.01225C19.9143 9.08664 19.9742 9.16853 20.0247 9.25639L20 9.66327Z" fill="#F26327"/>
</g>
<defs>
<clipPath id="clip0_259_19895">
<rect width="20" height="20" fill="white" transform="translate(0 0.718018)"/>
</clipPath>
</defs>
</svg>
