<svg width="18" height="21" viewBox="0 0 18 21" fill="none" xmlns="http://www.w3.org/2000/svg">
<g clip-path="url(#clip0_259_19889)">
<path d="M0.00599308 7.63713C0.00599308 6.7507 0.00599308 5.86427 0.00599308 4.97784C-0.0016019 4.55954 0.146218 4.15391 0.419502 3.84305C0.692787 3.53219 1.07113 3.33931 1.47796 3.30348C3.81938 3.05177 6.07684 2.26957 8.08677 1.01355C8.28445 0.876671 8.50854 0.784948 8.74385 0.744588C8.97915 0.704229 9.22018 0.716192 9.45059 0.779643C9.60174 0.825193 9.74699 0.889264 9.88316 0.970469C11.7589 2.15004 13.8507 2.92311 16.0294 3.24194C16.2637 3.27887 16.504 3.29117 16.7323 3.34041C17.0768 3.40543 17.3897 3.58808 17.6199 3.8586C17.8501 4.12912 17.9841 4.47157 18 4.83011C18 6.76917 18.0661 8.71439 17.9579 10.6473C17.8889 11.9439 17.5636 13.2126 17.0018 14.3765C16.44 15.5405 15.6534 16.5754 14.6896 17.4186C14.1296 17.9136 13.5263 18.3546 12.8872 18.7359C11.9139 19.3515 10.9045 19.8686 9.91321 20.4411C9.64424 20.6177 9.33148 20.7116 9.01201 20.7116C8.69255 20.7116 8.37978 20.6177 8.11081 20.4411C6.94526 19.7578 5.74365 19.1484 4.61415 18.4158C3.41467 17.6562 2.3923 16.6363 1.61898 15.4282C0.845659 14.22 0.340188 12.8528 0.13817 11.4229C0.0600873 10.86 0.0179468 10.2925 0.012007 9.72393C-0.0240411 9.04065 0.00599308 8.33888 0.00599308 7.63713ZM16.5701 7.69253H16.6061V5.0825C16.6061 4.79318 16.5641 4.75008 16.2937 4.70699C15.6629 4.59619 15.026 4.51002 14.4012 4.37459C12.5798 3.96164 10.8378 3.24189 9.24632 2.24469C9.17779 2.19224 9.09455 2.16391 9.00901 2.16391C8.92347 2.16391 8.84023 2.19224 8.7717 2.24469C6.62006 3.58371 4.20852 4.42413 1.70627 4.70699C1.4299 4.74392 1.38785 4.79317 1.38785 5.07018C1.38785 6.13512 1.38785 7.20008 1.38785 8.25886C1.38785 9.04064 1.35781 9.82858 1.42991 10.6042C1.52107 11.9565 1.92768 13.2667 2.61559 14.4247C3.3035 15.5826 4.25261 16.5544 5.38317 17.2586C6.31441 17.8741 7.32976 18.342 8.26701 18.9514C8.47446 19.1098 8.72626 19.1953 8.98497 19.1953C9.24368 19.1953 9.49548 19.1098 9.70293 18.9514C10.7303 18.2927 11.8538 17.7695 12.8511 17.1047C13.9135 16.3966 14.7998 15.4441 15.4392 14.323C16.0786 13.2019 16.4535 11.9432 16.534 10.6473C16.6362 9.64391 16.5701 8.69591 16.5701 7.69253Z" fill="#2B3641"/>
<path d="M8.49527 11.1212L9.74495 9.7608C10.3458 9.14523 10.9045 8.48656 11.4873 7.85252C11.5896 7.73677 11.7263 7.65892 11.8763 7.63109C12.0262 7.60326 12.181 7.627 12.3164 7.69862C12.4491 7.76831 12.5557 7.88081 12.6197 8.01877C12.6838 8.15673 12.7018 8.31247 12.6708 8.46193C12.6382 8.59659 12.5743 8.72118 12.4846 8.82512C11.3431 10.0809 10.1995 11.3326 9.05401 12.5801C8.99447 12.6551 8.92008 12.7163 8.83575 12.7596C8.75143 12.803 8.65908 12.8275 8.56482 12.8316C8.47056 12.8356 8.37652 12.8192 8.28893 12.7833C8.20134 12.7473 8.12219 12.6928 8.0567 12.6232C7.37179 12.0076 6.69287 11.3921 6.01998 10.7765C5.94509 10.7166 5.88306 10.6415 5.83776 10.556C5.79246 10.4704 5.76486 10.3762 5.7567 10.2793C5.74854 10.1823 5.75999 10.0846 5.79033 9.99237C5.82067 9.90014 5.86923 9.8153 5.93301 9.74316C5.99679 9.67103 6.07441 9.61313 6.16101 9.57311C6.24761 9.53309 6.34134 9.51181 6.43633 9.51057C6.53132 9.50934 6.62553 9.5282 6.71309 9.56596C6.80065 9.60371 6.87967 9.65955 6.94521 9.73001L8.32105 10.9612L8.49527 11.1212Z" fill="#2B3641"/>
</g>
<defs>
<clipPath id="clip0_259_19889">
<rect width="18" height="20" fill="white" transform="translate(0 0.718018)"/>
</clipPath>
</defs>
</svg>
