<svg width="20" height="20" viewBox="0 0 20 20" fill="none" xmlns="http://www.w3.org/2000/svg">
<g clip-path="url(#clip0_259_19856)">
<path d="M3.9991 9.33552V9.01928C3.9991 6.72008 3.9991 4.42088 3.9991 2.12168C3.9991 1.17178 4.46103 0.443249 5.28302 0.144576C5.55218 0.0519591 5.83502 0.00543104 6.11965 0.00695128C8.70271 -0.00300451 11.2864 -7.61205e-05 13.87 0.00168078C15.1487 0.00168078 15.9906 0.839724 15.9923 2.11933C15.9966 4.41854 15.9966 6.71774 15.9923 9.01694V9.33552H16.2405C16.987 9.33552 17.7352 9.36656 18.4799 9.32791C19.3254 9.28399 20.0068 9.8784 19.9986 10.8576C19.9752 13.6101 19.991 16.3626 19.9899 19.115C19.9916 19.2101 19.9875 19.3051 19.9776 19.3996C19.9653 19.5509 19.8997 19.6928 19.7924 19.8001C19.6852 19.9074 19.5433 19.973 19.3921 19.9853C19.3048 19.9943 19.217 19.998 19.1292 19.9964H0.841701C0.239845 19.9964 0.000976562 19.7592 0.000976562 19.1595C0.000976562 16.3696 0.000976562 13.5796 0.000976562 10.7897C0.000976562 10.0418 0.390895 9.5118 1.05013 9.36305C1.17221 9.33975 1.29649 9.32993 1.42072 9.33377C2.18885 9.33084 2.95756 9.33377 3.72628 9.33377L3.9991 9.33552ZM14.6586 18.6559V18.4146C14.6586 12.9877 14.6586 7.56085 14.6586 2.13398C14.6586 1.57469 14.4186 1.33517 13.8565 1.33517H6.12843C5.58161 1.33517 5.33572 1.57821 5.33572 2.11992C5.33572 7.55344 5.33572 12.9871 5.33572 18.4211V18.6553L14.6586 18.6559ZM3.98447 18.6559V10.6819H1.34988V18.6536L3.98447 18.6559ZM16.011 10.6796V18.6459H18.6409V10.6772L16.011 10.6796Z" fill="#2B3641"/>
<path d="M9.34814 4.01331H10.6426V5.98514H9.34814V4.01331Z" fill="#2B3641"/>
<path d="M10.6466 8.01733V9.98917H9.34277V8.01733H10.6466Z" fill="#2B3641"/>
<path d="M6.67017 5.98981V3.99866C7.0835 3.99866 7.48981 3.99866 7.89964 4.00393C7.93301 4.00393 7.99331 4.07596 7.9939 4.1152C7.99975 4.73538 7.998 5.35557 7.998 5.98923L6.67017 5.98981Z" fill="#2B3641"/>
<path d="M13.3187 5.99221H12.0107V4.01453H13.3187V5.99221Z" fill="#2B3641"/>
<path d="M6.68066 8.01208H7.98215V9.98274H6.68066V8.01208Z" fill="#2B3641"/>
<path d="M13.3176 9.9927H12.0126V8.01208H13.3176V9.9927Z" fill="#2B3641"/>
<path d="M7.97578 13.9919H6.67957V12.0137H7.97578V13.9919Z" fill="#2B3641"/>
<path d="M10.6384 13.9913H9.34631V12.0131H10.6384V13.9913Z" fill="#2B3641"/>
<path d="M13.3104 13.9855H12.0101V12.0201H13.3104V13.9855Z" fill="#2B3641"/>
</g>
<defs>
<clipPath id="clip0_259_19856">
<rect width="20" height="20" fill="white"/>
</clipPath>
</defs>
</svg>
