<svg width="71" height="70" viewBox="0 0 71 70" fill="none" xmlns="http://www.w3.org/2000/svg">
<g clip-path="url(#clip0_455_20018)">
<path d="M46.6651 13.3211C41.5991 6.03085 34.7442 2.49365 25.9184 2.59005C27.9253 4.46435 29.6188 6.64213 30.9357 9.04208C32.2525 11.4477 33.4359 13.9246 34.7252 16.4622C35.6503 16.2233 36.7088 15.93 37.7758 15.6764C38.5612 15.4878 39.2026 15.8461 39.4016 16.5293C39.6006 17.2124 39.1899 17.8725 38.3601 18.1009C36.0737 18.7295 33.7789 19.3289 31.4862 19.9386C29.9365 20.3577 28.3869 20.7601 26.761 21.1959C27.3093 23.2579 27.8428 25.2696 28.3826 27.2729C30.3366 34.538 32.3033 41.8009 34.2319 49.066C34.414 49.7513 34.7019 49.9377 35.409 49.9336C40.6655 49.8937 45.9199 49.8958 51.1764 49.9084C53.1153 49.8962 55.0199 50.414 56.6806 51.4046C57.9021 52.1317 59.1427 52.8253 60.3663 53.5483C61.2025 54.0428 61.446 54.7804 61.0226 55.4342C60.5992 56.088 59.9154 56.1928 59.0834 55.7129C58.4988 55.4057 57.9333 55.0642 57.3898 54.6903C54.915 52.8295 52.0803 52.2428 49.0446 52.2679C42.5214 52.3266 35.9982 52.3706 29.475 52.4C27.3876 52.4125 25.3003 52.423 23.215 52.4C20.1877 52.3769 17.8887 51.0693 16.3729 48.4751C13.8085 44.0774 11.2505 39.6649 8.69876 35.2379C8.19491 34.3661 7.53017 33.7605 6.46744 33.7144C4.51768 33.6264 3.16491 35.5417 4.09639 37.2328C5.91278 40.5353 7.83714 43.7791 9.71915 47.046C10.1912 47.8632 10.6866 48.6679 11.146 49.4893C11.5694 50.2521 11.4128 50.9562 10.7607 51.3271C10.1087 51.698 9.39948 51.5052 8.95703 50.7487C6.58811 46.7023 4.20013 42.6685 1.88625 38.5948C1.55953 38.0238 1.35099 37.3942 1.27279 36.7425C1.19459 36.0909 1.2483 35.4304 1.43079 34.7995C1.61328 34.1687 1.92089 33.5801 2.33566 33.0682C2.75044 32.5563 3.26408 32.1313 3.84659 31.818C6.27479 30.4706 9.264 31.2585 10.7184 33.704C13.3096 38.0738 15.8697 42.4617 18.3989 46.8678C19.6013 48.9633 21.3182 49.9755 23.7612 49.921C26.4265 49.8623 29.0918 49.9084 31.9096 49.9084L24.3159 21.8497C22.455 22.3443 20.6556 22.8283 18.854 23.3019C13.4768 24.7185 8.09965 26.1301 2.72246 27.5369C1.1834 27.9371 0.664737 27.5034 0.664737 25.9234C0.648526 22.3323 1.38449 18.7769 2.82619 15.4815C3.09505 14.8675 3.48247 14.4841 4.21071 14.5637C4.81194 14.6308 5.21417 14.9702 5.30097 15.5339C5.327 15.8943 5.25845 16.2552 5.10197 16.5817C4.05546 19.0149 3.43686 21.6074 3.27288 24.247C3.27288 24.3979 3.27288 24.5508 3.27288 24.7981L15.0498 21.6863C14.8889 18.8783 14.6666 16.15 14.5967 13.4154C14.5345 10.6252 14.8949 7.84153 15.6658 5.15703C14.4888 5.94703 13.3054 6.73075 12.1389 7.53751C11.7705 7.79107 11.4509 8.10958 11.1037 8.39037C10.4283 8.9373 9.69375 8.92892 9.19837 8.37571C8.70299 7.8225 8.77497 7.07441 9.41007 6.50862C12.3739 3.89764 15.7611 1.95721 19.5928 0.986993C29.8158 -1.59675 38.6586 0.886411 45.9368 8.45953C47.3404 9.92637 48.3925 11.7159 49.5357 13.4091C50.1242 14.285 49.7644 15.1148 48.7249 15.4103C46.9777 15.9048 45.2184 16.3616 43.4472 16.7807C42.5369 16.9903 41.8933 16.5963 41.7261 15.842C41.5716 15.1504 42.014 14.5511 42.8672 14.3206C44.0866 13.9979 45.3081 13.6794 46.6651 13.3211ZM32.1255 17.1684C30.1397 12.5017 28.0651 8.02995 24.2079 4.66249C23.7053 4.23813 23.1453 3.88546 22.5439 3.61475C21.1277 2.95257 19.957 3.23546 19.1081 4.54095C18.5938 5.32934 18.1967 6.18678 17.9289 7.08698C16.8302 10.8463 16.9741 14.6831 17.3509 18.5242C17.4314 19.3414 17.5626 20.1545 17.6727 21.0388L32.1255 17.1684Z" fill="#6C6A6A" fill-opacity="0.5"/>
<path d="M20.2597 67.4917V59.7907C19.8363 59.6902 19.4002 59.5959 18.9726 59.4911C16.3921 58.8666 14.0464 57.5235 12.213 55.6207C11.5165 54.9061 11.453 54.1685 12.0182 53.6216C12.5835 53.0747 13.2884 53.1396 14.0273 53.8521C16.176 55.9371 18.6508 57.2992 21.7458 57.3243C26.9219 57.3663 32.0959 57.4375 37.2719 57.4564C41.9463 57.4752 46.6206 57.427 51.295 57.4417C51.7666 57.4621 52.226 57.5966 52.6329 57.8336C56.1196 59.7949 59.5894 61.7857 63.0634 63.7659C63.5651 64.053 64.0562 64.361 64.5686 64.6293C65.8853 65.3208 67.3651 64.9121 68.0616 63.6821C68.2253 63.3968 68.3304 63.0824 68.3711 62.7569C68.4118 62.4313 68.3872 62.101 68.2987 61.7849C68.2102 61.4687 68.0595 61.173 67.8554 60.9146C67.6512 60.6562 67.3976 60.4402 67.109 60.279C66.0949 59.6692 65.047 59.1139 64.0224 58.5209C63.1629 58.0242 62.9025 57.3264 63.3047 56.6496C63.7069 55.9728 64.4161 55.8575 65.3074 56.3458C66.2749 56.878 67.2381 57.4228 68.2034 57.9593C70.1934 59.0699 71.2096 60.7568 70.9555 63.0094C70.7269 65.1866 69.425 66.6116 67.3207 67.3031C67.2751 67.316 67.2333 67.3394 67.1986 67.3715C67.164 67.4036 67.1376 67.4433 67.1217 67.4875C67.8922 67.4875 68.6628 67.4875 69.4313 67.4875C70.4221 67.4875 71.0064 67.9737 70.9937 68.7574C70.9809 69.5411 70.4009 69.9937 69.3974 69.9937C58.4102 69.9937 47.423 69.9937 36.4357 69.9937H1.57506C0.577948 69.9811 -0.00211123 69.518 5.77463e-06 68.7364C0.00212278 67.9548 0.577947 67.4791 1.58141 67.4791C7.4709 67.4791 13.3604 67.4791 19.2499 67.4791L20.2597 67.4917ZM36.6644 67.4624C35.9784 64.9324 35.3059 62.4492 34.6469 60.0129H27.9635V67.4624H36.6644ZM44.3343 59.994H37.2783C37.9832 62.5086 38.6734 64.996 39.3593 67.4561H44.3406L44.3343 59.994ZM52.038 60.4131V67.4728H64.4542L52.038 60.4131ZM25.2982 67.4519V60.0192H22.8573V67.4519H25.2982ZM49.4108 59.9961H46.9551V67.433H49.4108V59.9961Z" fill="#6C6A6A" fill-opacity="0.5"/>
<path d="M6.55424 12.7343C6.39044 12.7328 6.22862 12.6987 6.0783 12.6343C5.92798 12.5699 5.7922 12.4763 5.67897 12.3592C5.56573 12.242 5.47733 12.1036 5.41895 11.9521C5.36058 11.8006 5.33342 11.6391 5.33908 11.477C5.35178 10.7373 6.14142 9.92847 6.84638 9.93894C7.1758 9.96446 7.48376 10.1107 7.71005 10.349C7.93634 10.5873 8.06469 10.9006 8.07001 11.2277C8.06366 11.9716 7.27402 12.7511 6.55424 12.7343Z" fill="#6C6A6A" fill-opacity="0.5"/>
</g>
<defs>
<clipPath id="clip0_455_20018">
<rect width="71" height="70" fill="white"/>
</clipPath>
</defs>
</svg>
