<svg width="27" height="23" viewBox="0 0 27 23" fill="none" xmlns="http://www.w3.org/2000/svg">
<path fill-rule="evenodd" clip-rule="evenodd" d="M12.6974 0.414802C12.9708 0.680479 13.1244 1.04077 13.1244 1.41643C13.1244 1.7921 12.9708 2.15239 12.6974 2.41807L4.97844 9.91685H24.7914C25.1781 9.91685 25.5491 10.0661 25.8226 10.3318C26.096 10.5975 26.2497 10.9579 26.2497 11.3336C26.2497 11.7093 26.096 12.0697 25.8226 12.3354C25.5491 12.6011 25.1781 12.7503 24.7914 12.7503H4.97844L12.6974 20.2491C12.963 20.5163 13.11 20.8742 13.1067 21.2457C13.1034 21.6171 12.95 21.9725 12.6796 22.2351C12.4092 22.4978 12.0435 22.6468 11.6611 22.65C11.2787 22.6533 10.9104 22.5105 10.6353 22.2524L0.42698 12.3352C0.153585 12.0695 0 11.7093 0 11.3336C0 10.9579 0.153585 10.5976 0.42698 10.332L10.6353 0.414802C10.9088 0.149204 11.2797 0 11.6664 0C12.0531 0 12.4239 0.149204 12.6974 0.414802Z" fill="#2B3641"/>
</svg>
