<svg width="17" height="17" viewBox="0 0 17 17" fill="none" xmlns="http://www.w3.org/2000/svg">
<rect width="17" height="17" rx="8.5" fill="white"/>
<g clip-path="url(#clip0_2200_2409)">
<path d="M9.46473 6.77398H11.81C12.115 6.77384 12.4081 6.89865 12.627 7.12192C12.8459 7.34519 12.9735 7.64935 12.9826 7.96988C12.9826 8.01303 12.9826 8.05617 12.9826 8.09932V12.1432C12.9895 12.2584 12.973 12.3738 12.9342 12.4818C12.8953 12.5898 12.8351 12.6878 12.7575 12.7694C12.6798 12.8511 12.5866 12.9144 12.4839 12.9552C12.3812 12.996 12.2714 13.0134 12.1618 13.0062H4.82694C4.71636 13.0144 4.60539 12.9976 4.50154 12.9568C4.39768 12.916 4.30337 12.8523 4.22498 12.7699C4.14659 12.6875 4.08595 12.5883 4.04718 12.4791C4.0084 12.3699 3.99239 12.2532 4.00023 12.137V5.31303C3.9945 5.13898 4.02289 4.96555 4.08363 4.80352C4.14436 4.64149 4.23615 4.49432 4.35327 4.37118C4.4704 4.24803 4.61036 4.15153 4.76447 4.08768C4.91858 4.02382 5.08354 3.99399 5.24909 4.00001H8.23932C8.40487 3.99399 8.56983 4.02382 8.72394 4.08768C8.87805 4.15153 9.01801 4.24803 9.13514 4.37118C9.25227 4.49432 9.34405 4.64149 9.40478 4.80352C9.46552 4.96555 9.49391 5.13898 9.48818 5.31303V6.77398H9.46473ZM8.80218 12.3219C8.80218 12.2849 8.80218 12.2541 8.80218 12.2233V5.32535C8.80736 5.24299 8.79575 5.16042 8.76811 5.08316C8.74048 5.0059 8.69748 4.93572 8.64197 4.87736C8.58645 4.81899 8.51972 4.77378 8.44624 4.74473C8.37275 4.71568 8.2942 4.70346 8.21586 4.70891H5.28427C5.20031 4.70248 5.11604 4.71514 5.03715 4.74601C4.95826 4.77688 4.8866 4.82526 4.82708 4.88784C4.76756 4.95041 4.72155 5.02573 4.69219 5.10867C4.66282 5.19161 4.65079 5.28024 4.6569 5.36851V12.1062C4.65071 12.1408 4.65071 12.1763 4.6569 12.211C4.6569 12.2541 4.7214 12.3158 4.75658 12.3158C4.93834 12.3158 5.12011 12.3158 5.31359 12.3158V10.411C5.30858 10.2987 5.32591 10.1865 5.3645 10.0816C5.40309 9.97679 5.46209 9.88157 5.5377 9.80207C5.61332 9.72257 5.70389 9.66056 5.80361 9.61999C5.90334 9.57941 6.01003 9.56118 6.11685 9.56645H7.33052C7.44042 9.5558 7.55123 9.56999 7.65549 9.60806C7.75975 9.64613 7.85507 9.70721 7.93503 9.78719C8.015 9.86718 8.07776 9.96421 8.11912 10.0718C8.16047 10.1794 8.17946 10.295 8.17482 10.411V12.2603L8.80218 12.3219ZM9.47645 7.48288V12.3281H12.1032C12.3084 12.3281 12.3142 12.3281 12.3142 12.1123V8.68495C12.3142 8.46919 12.3142 8.2596 12.3142 8.06851C12.3178 7.99225 12.3059 7.91607 12.2792 7.84506C12.2525 7.77405 12.2117 7.70983 12.1596 7.65673C12.1074 7.60362 12.045 7.56285 11.9767 7.53712C11.9083 7.51139 11.8355 7.50131 11.7631 7.50755H9.47645V7.48288ZM7.48296 12.3281C7.48553 12.3097 7.48553 12.291 7.48296 12.2726V10.4233C7.48296 10.3062 7.44778 10.2692 7.33052 10.2692H6.11685C5.97613 10.2692 5.94681 10.3 5.94681 10.4541V12.2356C5.94681 12.2726 5.94681 12.3096 5.94681 12.3466L7.48296 12.3281Z" fill="black"/>
<path d="M6.74989 6.53973H6.11081C6.02373 6.53973 5.94022 6.50335 5.87865 6.43861C5.81707 6.37387 5.78247 6.28608 5.78247 6.19452C5.78247 6.10297 5.81707 6.01515 5.87865 5.95042C5.94022 5.88568 6.02373 5.84932 6.11081 5.84932C6.53882 5.84932 6.96097 5.84932 7.38898 5.84932C7.47606 5.84932 7.55958 5.88568 7.62116 5.95042C7.68274 6.01515 7.71732 6.10297 7.71732 6.19452C7.71732 6.28608 7.68274 6.37387 7.62116 6.43861C7.55958 6.50335 7.47606 6.53973 7.38898 6.53973H6.74989Z" fill="black"/>
<path d="M6.73814 8.38904H6.08731C6.00636 8.38819 5.92846 8.35649 5.86807 8.2998C5.80768 8.24311 5.76891 8.1653 5.75898 8.08082C5.75077 8.00336 5.76775 7.92525 5.80714 7.85922C5.84653 7.79318 5.90601 7.7431 5.97591 7.71713C6.02068 7.71113 6.066 7.71113 6.11077 7.71713H7.37722C7.42247 7.71277 7.46808 7.71851 7.51106 7.73398C7.55405 7.74945 7.59344 7.77431 7.62665 7.8069C7.65987 7.83949 7.68615 7.8791 7.70379 7.92312C7.72143 7.96714 7.73003 8.01458 7.72902 8.06233C7.7292 8.11038 7.71984 8.15793 7.70153 8.20196C7.68323 8.24598 7.65638 8.28552 7.62271 8.31801C7.58905 8.3505 7.54932 8.37525 7.50603 8.39066C7.46275 8.40608 7.41687 8.41183 7.37135 8.40754L6.73814 8.38904Z" fill="black"/>
<path d="M10.9069 9.30753C10.6958 9.30753 10.4847 9.30753 10.2795 9.30753C10.1924 9.30753 10.1089 9.27118 10.0473 9.20644C9.98577 9.1417 9.95117 9.05388 9.95117 8.96233C9.95117 8.87078 9.98577 8.78298 10.0473 8.71824C10.1089 8.6535 10.1924 8.61713 10.2795 8.61713H11.546C11.5913 8.61377 11.6368 8.62016 11.6797 8.63592C11.7226 8.65168 11.762 8.67649 11.7955 8.7088C11.8289 8.74111 11.8558 8.78026 11.8744 8.82385C11.893 8.86745 11.9029 8.91456 11.9036 8.96233C11.9038 9.01038 11.8944 9.05795 11.8761 9.10197C11.8578 9.146 11.831 9.18551 11.7973 9.21801C11.7637 9.2505 11.7239 9.27524 11.6806 9.29066C11.6374 9.30608 11.5915 9.31182 11.546 9.30753H10.9069Z" fill="black"/>
<path d="M10.9068 11.1568C10.6899 11.1568 10.4729 11.1568 10.2619 11.1568C10.1816 11.1579 10.1038 11.1286 10.0424 11.0743C9.98104 11.0199 9.94033 10.9442 9.92767 10.861C9.91774 10.7817 9.93382 10.7012 9.97326 10.6328C10.0127 10.5645 10.0731 10.5123 10.1446 10.4849C10.1933 10.4785 10.2425 10.4785 10.2912 10.4849H11.54C11.6271 10.4849 11.7106 10.5213 11.7722 10.586C11.8338 10.6508 11.8684 10.7386 11.8684 10.8301C11.8684 10.9217 11.8338 11.0095 11.7722 11.0742C11.7106 11.139 11.6271 11.1753 11.54 11.1753C11.329 11.1753 11.112 11.1753 10.901 11.1753L10.9068 11.1568Z" fill="black"/>
</g>
<defs>
<clipPath id="clip0_2200_2409">
<rect width="9" height="9" fill="white" transform="translate(4 4)"/>
</clipPath>
</defs>
</svg>
