<svg width="32" height="32" viewBox="0 0 32 32" fill="none" xmlns="http://www.w3.org/2000/svg">
<path d="M8.9388 14.9387L18.9388 4.93874C19.2206 4.65695 19.6028 4.49864 20.0013 4.49864C20.3998 4.49864 20.782 4.65695 21.0638 4.93874C21.3456 5.22054 21.5039 5.60273 21.5039 6.00124C21.5039 6.39976 21.3456 6.78195 21.0638 7.06374L12.1251 16L21.0613 24.9387C21.2008 25.0783 21.3115 25.2439 21.387 25.4262C21.4625 25.6085 21.5014 25.8039 21.5014 26.0012C21.5014 26.1986 21.4625 26.394 21.387 26.5763C21.3115 26.7586 21.2008 26.9242 21.0613 27.0637C20.9218 27.2033 20.7561 27.314 20.5738 27.3895C20.3915 27.465 20.1961 27.5038 19.9988 27.5038C19.8015 27.5038 19.6061 27.465 19.4238 27.3895C19.2415 27.314 19.0758 27.2033 18.9363 27.0637L8.93631 17.0637C8.79663 16.9242 8.68587 16.7585 8.61037 16.5761C8.53488 16.3937 8.49614 16.1981 8.49637 16.0007C8.4966 15.8033 8.53581 15.6079 8.61173 15.4256C8.68765 15.2434 8.7988 15.0779 8.9388 14.9387Z" fill="white"/>
</svg>
