<svg width="32" height="36" viewBox="0 0 32 36" fill="none" xmlns="http://www.w3.org/2000/svg">
<g clip-path="url(#clip0_259_19305)">
<path d="M16.0865 36C14.1631 36.045 12.2387 35.9903 10.3207 35.8361C8.53912 35.6372 6.91317 35.093 5.77155 33.5715C5.05867 32.5498 4.61055 31.3626 4.46848 30.119C4.12253 27.9772 4.04758 25.8121 3.8919 23.682C3.67857 20.5514 3.47676 17.4148 3.26919 14.2841C3.24036 13.816 3.20002 13.3537 3.17695 12.8856C3.16364 12.7073 3.18543 12.5282 3.24107 12.3586C3.29671 12.189 3.38509 12.0324 3.50103 11.8978C3.61697 11.7633 3.75814 11.6535 3.91632 11.5749C4.07451 11.4963 4.24652 11.4505 4.42234 11.4402C4.59443 11.4347 4.76588 11.4639 4.92678 11.5261C5.08767 11.5883 5.23485 11.6822 5.35977 11.8025C5.48469 11.9227 5.58488 12.0669 5.65457 12.2267C5.72426 12.3865 5.76205 12.5587 5.76578 12.7334C6.0137 16.4142 6.24435 20.0949 6.49804 23.7698C6.58897 25.8109 6.7814 27.846 7.07462 29.8674C7.10344 30.0605 7.13804 30.2477 7.18417 30.4525C7.62236 32.2724 8.55642 33.0507 10.4995 33.2497C11.7509 33.3695 13.0076 33.4222 14.2645 33.4077C16.5708 33.4077 18.8771 33.4662 21.1834 33.3316C21.8945 33.2898 22.5986 33.1661 23.2822 32.9629C23.743 32.8465 24.1667 32.6122 24.5129 32.2823C24.8591 31.9525 25.1163 31.5381 25.2598 31.0787C25.6462 29.7792 25.8595 28.433 25.8941 27.0761C26.1708 23.1495 26.4245 19.223 26.6897 15.2965C26.7474 14.4246 26.7993 13.541 26.8627 12.669C26.8681 12.493 26.9083 12.3199 26.9808 12.1599C27.0533 11.9999 27.1567 11.8562 27.2848 11.7375C27.413 11.6188 27.5633 11.5273 27.7269 11.4686C27.8905 11.4099 28.0641 11.3851 28.2373 11.3957C28.4105 11.4063 28.5798 11.452 28.7353 11.5302C28.8908 11.6084 29.0293 11.7174 29.1425 11.8509C29.2557 11.9844 29.3414 12.1395 29.3945 12.3072C29.4476 12.4748 29.467 12.6516 29.4516 12.8271C29.2901 15.355 29.1229 17.8908 28.9499 20.4343C28.8 22.6814 28.6559 24.9226 28.4944 27.1639C28.4315 28.5448 28.2384 29.9165 27.9178 31.2601C27.6665 32.4573 27.0417 33.5405 26.1361 34.349C25.2305 35.1574 24.0922 35.6482 22.8901 35.7484C22.475 35.801 22.0598 35.8654 21.6447 35.8947C19.8746 36.0293 18.093 35.9941 16.0865 36Z" fill="white"/>
<path d="M16 7.91155H1.4876C1.162 7.94806 0.834419 7.86309 0.566004 7.6725C0.297589 7.48192 0.106656 7.19873 0.0288418 6.87578C-0.0156664 6.68108 -0.0153009 6.47857 0.0298975 6.28403C0.075096 6.08949 0.163907 5.90816 0.289434 5.75414C0.414961 5.60013 0.573834 5.47762 0.753645 5.39609C0.933455 5.31456 1.12935 5.27625 1.32614 5.28412C2.97515 5.28412 4.62416 5.28412 6.2674 5.28412C6.82555 5.35191 7.38848 5.20508 7.84525 4.87256C8.30202 4.54004 8.61952 4.04593 8.73517 3.48763C8.82742 3.20089 8.91967 2.90244 9.02346 2.63326C9.2798 1.8755 9.76232 1.21758 10.404 0.750919C11.0456 0.284253 11.8146 0.0320163 12.604 0.0292358C14.868 0.0292358 17.1378 0.0292358 19.4133 0.0292358C20.1946 0.034287 20.9554 0.283636 21.5919 0.743329C22.2285 1.20302 22.71 1.8507 22.9708 2.59815C23.1035 2.96096 23.213 3.32376 23.3341 3.68656C23.472 4.16579 23.7648 4.58399 24.1654 4.87377C24.566 5.16356 25.051 5.30809 25.5424 5.28412C27.2721 5.28412 28.9442 5.28412 30.6451 5.28412C30.9672 5.27483 31.2812 5.38812 31.5252 5.60174C31.7693 5.81537 31.9258 6.11387 31.9641 6.43865C32.0024 6.76343 31.9197 7.09103 31.7321 7.35706C31.5446 7.62308 31.2659 7.80833 30.9506 7.87644C30.76 7.90653 30.5669 7.91828 30.3741 7.91155H16ZM16 5.2724H20.826C21.0739 5.2724 21.1661 5.27242 21.0451 4.96228C20.849 4.49999 20.7107 4.00844 20.5434 3.53445C20.4663 3.26811 20.3034 3.0357 20.0808 2.87445C19.8581 2.71319 19.5886 2.6324 19.3153 2.64497C17.1013 2.64497 14.8853 2.64497 12.6674 2.64497C12.3949 2.63333 12.1265 2.71542 11.9057 2.87791C11.6849 3.04041 11.5246 3.27378 11.4508 3.54027C11.2836 3.99086 11.1568 4.45318 10.9723 4.89206C10.8512 5.18465 10.857 5.27826 11.2144 5.27826C12.8173 5.26071 14.4087 5.2724 16.0058 5.2724H16Z" fill="white"/>
<path d="M14.1377 25.6365C14.1665 26.5728 13.6995 27.1639 12.9846 27.199C12.8021 27.2128 12.6188 27.1879 12.4464 27.126C12.2739 27.0642 12.116 26.9666 11.9826 26.8395C11.8493 26.7124 11.7434 26.5586 11.6717 26.3878C11.6 26.2169 11.5641 26.0329 11.5662 25.8472C11.3355 23.4246 11.0876 21.0078 10.8512 18.5852C10.8051 18.1053 10.759 17.6313 10.7417 17.1515C10.7247 16.8409 10.8212 16.5348 11.0127 16.2919C11.2042 16.0489 11.4772 15.8862 11.7795 15.8348C11.9386 15.7971 12.1036 15.7921 12.2647 15.8201C12.4258 15.8482 12.5797 15.9087 12.7173 15.9982C12.8549 16.0877 12.9734 16.2043 13.0659 16.3411C13.1583 16.4778 13.2228 16.632 13.2555 16.7945C13.3729 17.4803 13.4556 18.1717 13.5034 18.8661C13.688 20.7152 13.8801 22.5663 14.08 24.4194C14.057 24.8524 14.1089 25.2913 14.1377 25.6365Z" fill="white"/>
<path d="M18.5081 25.619C18.6522 24.1502 18.7964 22.617 18.9463 21.078C19.0731 19.7848 19.2058 18.4916 19.3268 17.1983C19.3241 16.929 19.3991 16.6647 19.5425 16.438C19.686 16.2113 19.8916 16.0322 20.134 15.9226C20.3432 15.8231 20.5756 15.7851 20.805 15.8131C21.0343 15.841 21.2513 15.9337 21.4313 16.0806C21.6058 16.2013 21.7443 16.3682 21.8318 16.5632C21.9192 16.7582 21.9522 16.9738 21.9272 17.1866C21.8388 18.2204 21.7465 19.2562 21.6504 20.2939C21.5005 21.8153 21.3468 23.3387 21.1892 24.8641C21.1892 25.1742 21.1257 25.4903 21.1027 25.8004C21.1122 25.9896 21.0819 26.1788 21.0139 26.3552C20.9458 26.5317 20.8414 26.6913 20.7078 26.8236C20.5742 26.956 20.4142 27.0579 20.2388 27.1226C20.0633 27.1873 19.8763 27.2134 19.6901 27.199C18.9405 27.1639 18.4735 26.5728 18.5081 25.619Z" fill="white"/>
</g>
<defs>
<clipPath id="clip0_259_19305">
<rect width="32" height="36" fill="white"/>
</clipPath>
</defs>
</svg>
