<svg width="21" height="21" viewBox="0 0 21 21" fill="none" xmlns="http://www.w3.org/2000/svg">
<g clip-path="url(#clip0_649_2218)">
<path d="M7.36988 2.24978e-05C7.78818 0.00311692 8.19841 0.116238 8.55991 0.328221C8.9214 0.540204 9.22159 0.843664 9.43073 1.20851C9.56594 1.44543 9.72792 1.66583 9.91337 1.8653C9.98561 1.94887 10.0748 2.01586 10.1749 2.06177C10.275 2.10768 10.3838 2.13145 10.4938 2.13145C10.6038 2.13145 10.7125 2.10768 10.8127 2.06177C10.9128 2.01586 11.002 1.94887 11.0742 1.8653C11.2474 1.68893 11.3965 1.49018 11.5177 1.27421C11.6691 0.98333 11.8786 0.727153 12.1332 0.521885C12.3877 0.316616 12.6817 0.166676 12.9967 0.0815208C13.3116 -0.00363394 13.6406 -0.0221492 13.963 0.0271218C14.2854 0.0763928 14.5942 0.192412 14.8699 0.367827L16.4481 1.27421C17.048 1.61412 17.4902 2.17901 17.6783 2.84581C17.8664 3.51261 17.7853 4.22725 17.4525 4.83404C17.3367 5.05556 17.2448 5.28896 17.1786 5.53024C17.1466 5.61889 17.1335 5.7133 17.1403 5.80737C17.1471 5.90144 17.1735 5.99304 17.2178 6.07612C17.2621 6.1592 17.3234 6.23191 17.3975 6.28951C17.4717 6.3471 17.5571 6.38826 17.6481 6.41033C17.9004 6.49753 18.1642 6.54626 18.4308 6.55485C19.0137 6.56691 19.5758 6.77527 20.0273 7.1467C20.4789 7.51814 20.7939 8.03123 20.9221 8.60405C20.9703 8.83283 20.9921 9.06643 20.9873 9.30025C21.02 9.95226 21.02 10.6055 20.9873 11.2575C20.9142 11.8383 20.6448 12.3761 20.2244 12.7803C19.8039 13.1846 19.2581 13.4308 18.6786 13.4775C18.4028 13.4879 18.1282 13.5187 17.8568 13.5694C17.7389 13.58 17.6252 13.6188 17.5252 13.6825C17.4252 13.7463 17.3417 13.8332 17.2817 13.936C17.2218 14.0387 17.187 14.1545 17.1804 14.2735C17.1738 14.3925 17.1956 14.5114 17.2438 14.6203C17.3149 14.8368 17.4021 15.0476 17.5046 15.2508C17.8177 15.8437 17.8935 16.5348 17.7165 17.1822C17.5394 17.8296 17.1229 18.3841 16.5525 18.7319C15.9655 19.0865 15.3656 19.4281 14.7655 19.7565C14.2414 20.0395 13.6304 20.1128 13.0549 19.9618C12.4794 19.8108 11.9816 19.4466 11.6612 18.942C11.5518 18.7417 11.4298 18.5487 11.296 18.364C11.2202 18.2273 11.1094 18.1134 10.9753 18.0341C10.8412 17.9548 10.6884 17.913 10.5329 17.913C10.3774 17.913 10.2247 17.9548 10.0905 18.0341C9.95641 18.1134 9.8457 18.2273 9.76988 18.364C9.66676 18.5034 9.57097 18.6481 9.48292 18.7976C9.32883 19.0772 9.12033 19.3226 8.86987 19.5191C8.61942 19.7157 8.33215 19.8594 8.02528 19.9415C7.71841 20.0237 7.39824 20.0427 7.08392 19.9973C6.7696 19.952 6.4676 19.8433 6.19598 19.6776C5.64815 19.3755 5.11335 19.0734 4.59161 18.7582C3.99297 18.4205 3.5505 17.8589 3.36007 17.1951C3.16964 16.5312 3.24659 15.8186 3.57422 15.2114C3.6923 14.9864 3.7842 14.7483 3.84813 14.5021C3.87787 14.4098 3.88852 14.3125 3.87941 14.2159C3.87031 14.1194 3.84164 14.0258 3.79518 13.9408C3.74873 13.8559 3.68552 13.7814 3.60937 13.7221C3.53323 13.6627 3.4458 13.6197 3.35251 13.5957C3.10957 13.5297 2.86032 13.4901 2.60902 13.4775C2.25633 13.4778 1.90724 13.4062 1.58283 13.2668C1.25843 13.1275 0.965439 12.9233 0.7216 12.6667C0.477761 12.4101 0.288138 12.1063 0.164163 11.7738C0.0401885 11.4413 -0.0155475 11.0869 0.000323509 10.7321C0.000323509 10.0753 0.000323509 9.41846 0.000323509 8.74853C0.0939547 8.15941 0.383899 7.61995 0.822467 7.21886C1.26103 6.81777 1.82211 6.57895 2.41337 6.5417C2.71834 6.53314 3.02089 6.48459 3.31338 6.39722C3.40069 6.37177 3.48199 6.32888 3.55253 6.27115C3.62306 6.21341 3.68139 6.14196 3.72397 6.06109C3.76656 5.98021 3.79255 5.89155 3.80044 5.80036C3.80833 5.70916 3.79793 5.61732 3.76987 5.53024C3.71701 5.30714 3.63822 5.0911 3.53509 4.8866C3.35569 4.57848 3.24054 4.23676 3.19671 3.88232C3.15287 3.52788 3.1813 3.16814 3.28018 2.82512C3.37906 2.48211 3.54633 2.16301 3.77182 1.88731C3.99731 1.61161 4.27626 1.38511 4.59161 1.22166L6.11772 0.328421C6.49863 0.108624 6.9309 -0.00474799 7.36988 2.24978e-05ZM5.29597 5.64846C5.31415 6.05556 5.21867 6.45962 5.0204 6.81486C4.82213 7.17009 4.52899 7.46228 4.17421 7.65826C3.69783 7.90325 3.16998 8.02939 2.63509 8.02607C2.4778 8.01841 2.32069 8.04421 2.17394 8.10175C2.0272 8.1593 1.89411 8.24728 1.78337 8.36004C1.67264 8.4728 1.58672 8.60777 1.5312 8.75618C1.47569 8.90459 1.45185 9.06313 1.46119 9.22144V10.7715C1.44637 10.9324 1.46561 11.0946 1.51763 11.2475C1.56965 11.4004 1.65329 11.5404 1.76299 11.6583C1.8727 11.7763 2.006 11.8694 2.15408 11.9317C2.30216 11.9939 2.46163 12.0238 2.62204 12.0194C2.92863 12.0386 3.23366 12.0781 3.53509 12.1376C3.9964 12.2269 4.41637 12.4648 4.73165 12.8155C5.04693 13.1662 5.24042 13.6106 5.28292 14.0818C5.31961 14.7213 5.16514 15.3573 4.83944 15.9076C4.75792 16.0384 4.70458 16.185 4.68285 16.3379C4.66111 16.4907 4.67146 16.6465 4.71326 16.7951C4.75506 16.9436 4.82737 17.0817 4.9255 17.2004C5.02363 17.319 5.14538 17.4157 5.28292 17.484L6.82204 18.3903C6.9349 18.4705 7.06393 18.5245 7.19991 18.5487C7.33589 18.5728 7.47548 18.5665 7.60875 18.5301C7.74202 18.4938 7.86569 18.4282 7.97094 18.3382C8.0762 18.2482 8.16045 18.1359 8.2177 18.0094C8.43023 17.6448 8.69381 17.313 9.00031 17.0242C9.19808 16.8224 9.43368 16.6622 9.69341 16.5529C9.95314 16.4435 10.2319 16.3872 10.5134 16.3872C10.7949 16.3872 11.0736 16.4435 11.3333 16.5529C11.5931 16.6622 11.8286 16.8224 12.0264 17.0242C12.3183 17.3277 12.5764 17.6625 12.796 18.0225C12.8555 18.1351 12.9373 18.2341 13.0364 18.3135C13.1355 18.393 13.2496 18.4511 13.3719 18.4844C13.4941 18.5176 13.6218 18.5252 13.7471 18.5068C13.8724 18.4884 13.9926 18.4443 14.1003 18.3772L15.6264 17.484C15.7725 17.416 15.9024 17.3171 16.0072 17.1941C16.112 17.0711 16.1894 16.9268 16.2339 16.771C16.2784 16.6153 16.2892 16.4517 16.2654 16.2914C16.2416 16.1311 16.1838 15.9778 16.096 15.842C15.9607 15.5912 15.8514 15.3271 15.7699 15.0538C15.6579 14.7499 15.6138 14.4249 15.6407 14.1018C15.6676 13.7788 15.7648 13.4657 15.9254 13.1848C16.0861 12.9039 16.3062 12.6621 16.5701 12.4766C16.834 12.2911 17.1353 12.1664 17.4525 12.1114C17.7757 12.0482 18.1024 12.0044 18.4308 11.98C18.7123 11.9699 18.9791 11.851 19.1758 11.648C19.3725 11.4449 19.4841 11.1734 19.4873 10.8897C19.4873 10.2986 19.4873 9.69434 19.4873 9.10322C19.4805 8.80819 19.3593 8.52756 19.1497 8.32135C18.94 8.11514 18.6586 7.99973 18.3655 7.99981C18.0855 7.98866 17.8066 7.95793 17.5308 7.90785C17.0535 7.83437 16.6131 7.60602 16.2764 7.2575C15.9398 6.90899 15.7253 6.45934 15.6655 5.97686C15.6128 5.34767 15.7589 4.71781 16.0829 4.17724C16.1756 4.03956 16.2372 3.88318 16.2637 3.719C16.2901 3.55482 16.2806 3.38679 16.2359 3.22668C16.1912 3.06658 16.1123 2.91825 16.0048 2.79201C15.8973 2.66578 15.7637 2.5647 15.6134 2.49584L14.1394 1.64202C14.026 1.55695 13.8949 1.49878 13.756 1.47188C13.6171 1.44499 13.4739 1.45005 13.3372 1.48668C13.2005 1.5233 13.0738 1.59057 12.9665 1.68343C12.8593 1.77628 12.7742 1.89233 12.7177 2.02293C12.4742 2.41477 12.1803 2.77253 11.8438 3.08694C11.483 3.39645 11.029 3.57399 10.5554 3.59068C10.0817 3.60737 9.61643 3.46226 9.23509 3.1789C8.81213 2.84708 8.46143 2.43127 8.20468 1.95727C8.14815 1.84181 8.06784 1.73981 7.96911 1.65805C7.87038 1.57629 7.75548 1.51662 7.63208 1.48307C7.50868 1.44951 7.37958 1.44282 7.25341 1.46342C7.12723 1.48403 7.00688 1.5315 6.90033 1.60261L5.38729 2.4827C5.23026 2.5476 5.08988 2.64755 4.97677 2.77502C4.86367 2.90248 4.78078 3.05413 4.73432 3.21855C4.68785 3.38296 4.67901 3.55583 4.70852 3.72417C4.73803 3.89251 4.80509 4.0519 4.90464 4.19035C5.14318 4.64021 5.27701 5.13884 5.29597 5.64846Z" fill="#2B3641"/>
<path d="M6.83472 10.0096C6.83474 9.27843 7.05039 8.56371 7.45429 7.95614C7.85819 7.34857 8.43214 6.87551 9.10339 6.59692C9.77465 6.31834 10.5129 6.24679 11.2246 6.39135C11.9363 6.53592 12.5893 6.89009 13.1009 7.40894C13.6124 7.9278 13.9594 8.58795 14.0979 9.30569C14.2363 10.0234 14.16 10.7664 13.8786 11.4404C13.5972 12.1144 13.1234 12.6891 12.5172 13.0915C11.911 13.4939 11.1999 13.706 10.4739 13.7008C9.50631 13.6939 8.58073 13.3019 7.899 12.6104C7.21727 11.9189 6.83469 10.984 6.83472 10.0096ZM12.6912 10.0096C12.6912 9.56997 12.5616 9.14024 12.3188 8.77489C12.076 8.40954 11.731 8.12501 11.3274 7.95738C10.9239 7.78975 10.48 7.74654 10.052 7.83327C9.62409 7.92 9.23131 8.13274 8.92355 8.44453C8.61579 8.75631 8.4069 9.15309 8.32332 9.58458C8.23975 10.0161 8.28528 10.4629 8.45413 10.8683C8.62297 11.2737 8.90752 11.6195 9.27173 11.8618C9.63595 12.1042 10.0634 12.2322 10.4999 12.2296C11.0812 12.2227 11.6366 11.9862 12.0465 11.571C12.4563 11.1558 12.6878 10.595 12.6912 10.0096Z" fill="#2B3641"/>
</g>
<defs>
<clipPath id="clip0_649_2218">
<rect width="21" height="20.0455" fill="white"/>
</clipPath>
</defs>
</svg>
