<svg width="19" height="20" viewBox="0 0 19 20" fill="none" xmlns="http://www.w3.org/2000/svg">
<g clip-path="url(#clip0_2003_100675)">
<path d="M7.24369 6.42969C6.80036 6.42969 6.45203 6.78594 6.45203 7.22135C6.45203 7.65677 6.80828 8.01302 7.24369 8.01302C7.67911 8.01302 8.03536 7.65677 8.03536 7.22135C8.03536 6.78594 7.67911 6.42969 7.24369 6.42969Z" fill="#2B3641"/>
<path d="M16.9892 4.48992C16.3242 2.94617 14.8596 2.08325 12.8171 2.08325H6.18296C3.64171 2.08325 1.58337 4.14159 1.58337 6.68284V13.317C1.58337 15.3595 2.44629 16.8241 3.99004 17.4891C4.14046 17.5524 4.31462 17.5128 4.42546 17.402L16.9021 4.92534C17.0209 4.80659 17.0605 4.63242 16.9892 4.48992ZM8.33629 10.1899C8.02754 10.4908 7.62379 10.6333 7.22004 10.6333C6.81629 10.6333 6.41254 10.4828 6.10379 10.1899C5.29629 9.42992 4.40962 8.21867 4.75004 6.77784C5.05087 5.47159 6.20671 4.88575 7.22004 4.88575C8.23337 4.88575 9.38921 5.47159 9.69004 6.78575C10.0225 8.21867 9.13587 9.42992 8.33629 10.1899Z" fill="#2B3641"/>
<path d="M15.4137 16.753C15.5879 16.9272 15.5642 17.2122 15.3504 17.331C14.6537 17.7189 13.8067 17.9168 12.8171 17.9168H6.18292C5.95333 17.9168 5.85833 17.6476 6.01667 17.4893L10.7983 12.7076C10.9567 12.5493 11.2021 12.5493 11.3604 12.7076L15.4137 16.753Z" fill="#2B3641"/>
<path d="M17.4166 6.68304V13.3172C17.4166 14.3068 17.2187 15.1618 16.8308 15.8505C16.7121 16.0643 16.4271 16.0801 16.2529 15.9139L12.1996 11.8605C12.0412 11.7022 12.0412 11.4568 12.1996 11.2985L16.9812 6.51679C17.1475 6.35845 17.4166 6.45345 17.4166 6.68304Z" fill="#2B3641"/>
</g>
<defs>
<clipPath id="clip0_2003_100675">
<rect width="19" height="19" fill="white" transform="translate(0 0.5)"/>
</clipPath>
</defs>
</svg>
