<svg width="26" height="26" viewBox="0 0 26 26" fill="none" xmlns="http://www.w3.org/2000/svg">
<g clip-path="url(#clip0_259_19693)">
<path d="M12.9801 26.0001H4.20762C3.24059 26.0262 2.29586 25.7076 1.54294 25.1016C0.790026 24.4956 0.278181 23.6417 0.0992128 22.6932C0.0699564 22.4167 0.0699564 22.1379 0.0992128 21.8614C0.0992128 19.4456 0.0992128 17.0298 0.0992128 14.6139C0.0814423 14.4375 0.106371 14.2592 0.171896 14.0944C0.237421 13.9295 0.341676 13.7827 0.475832 13.6663C0.609989 13.5499 0.770176 13.4674 0.942942 13.4255C1.11571 13.3837 1.29597 13.3838 1.46868 13.4259C1.72059 13.4823 1.94364 13.6275 2.09679 13.8349C2.24993 14.0422 2.32285 14.2977 2.30224 14.5545C2.30224 16.2971 2.30224 18.0396 2.30224 19.7624C2.30224 20.4357 2.30224 21.1089 2.30224 21.7426C2.28469 22.0072 2.32402 22.2725 2.41756 22.5207C2.5111 22.7689 2.65666 22.9942 2.84457 23.1817C3.03249 23.3692 3.25845 23.5144 3.5072 23.6077C3.75595 23.7011 4.02179 23.7403 4.28697 23.7228H21.9114C22.4378 23.7228 22.9426 23.5143 23.3148 23.1429C23.687 22.7716 23.8961 22.2678 23.8961 21.7426V14.5545C23.8829 14.3794 23.9124 14.2038 23.9819 14.0425C24.0514 13.8812 24.159 13.7391 24.2954 13.6282C24.4319 13.5173 24.5932 13.4411 24.7656 13.4058C24.9379 13.3706 25.1163 13.3775 25.2855 13.4259C25.5279 13.4964 25.7397 13.6458 25.8872 13.8503C26.0346 14.0549 26.1093 14.3027 26.0992 14.5545V21.8219C26.1414 22.7884 25.8277 23.7368 25.217 24.4883C24.6064 25.2398 23.7412 25.7424 22.7847 25.9011C22.4551 25.9411 22.1219 25.9411 21.7923 25.9011L12.9801 26.0001Z" fill="#2B3641"/>
<path d="M14.1115 3.80192V18.792C14.1313 18.9489 14.1172 19.1081 14.0703 19.259C14.0234 19.41 13.9446 19.5493 13.8394 19.6674C13.7341 19.7856 13.6049 19.8799 13.4601 19.9441C13.3153 20.0083 13.1584 20.0408 13 20.0396C12.7269 20.0407 12.4633 19.9397 12.2612 19.7564C12.0591 19.5731 11.9333 19.3208 11.9084 19.0495C11.8985 18.9176 11.8985 18.7852 11.9084 18.6534V3.80192C11.7695 3.94053 11.6702 4.01981 11.5908 4.11882L7.93897 7.76231C7.79863 7.92756 7.61359 8.04901 7.40596 8.11221C7.19833 8.17541 6.97681 8.17768 6.76792 8.11873C6.60144 8.06805 6.44929 7.97912 6.32359 7.859C6.19788 7.73888 6.10217 7.59093 6.04424 7.42716C5.98631 7.2634 5.96769 7.0884 5.98997 6.91616C6.01226 6.74393 6.07481 6.57933 6.17253 6.43562C6.25438 6.32106 6.34749 6.21498 6.45042 6.11884L12.0671 0.514843C12.1688 0.342364 12.3138 0.199402 12.4878 0.100046C12.6619 0.000689287 12.859 -0.0516357 13.0595 -0.0516357C13.26 -0.0516357 13.4571 0.000689287 13.6311 0.100046C13.8052 0.199402 13.9502 0.342364 14.0519 0.514843C16.0366 2.49504 17.8229 4.25737 19.6886 6.15836C19.8933 6.36223 20.0435 6.61416 20.1253 6.89102C20.1669 7.11883 20.1332 7.35396 20.0294 7.56108C19.9256 7.76819 19.7573 7.93612 19.5496 8.03957C19.3348 8.14637 19.0911 8.1809 18.855 8.13807C18.6189 8.09524 18.4031 7.97735 18.2397 7.80196L14.548 4.11882L14.1115 3.80192Z" fill="#2B3641"/>
</g>
<defs>
<clipPath id="clip0_259_19693">
<rect width="26" height="26" fill="white"/>
</clipPath>
</defs>
</svg>
