<svg width="32" height="30" viewBox="0 0 32 30" fill="none" xmlns="http://www.w3.org/2000/svg">
<g clip-path="url(#clip0_1701_22151)">
<path d="M15.9884 29.4981C12.0817 29.4981 8.17475 29.4981 4.26743 29.4981C2.32621 29.4981 0.782913 28.4083 0.220021 26.6079C0.080151 26.142 0.0100796 25.657 0.0121993 25.1695C-0.0027117 20.1514 -0.00519704 15.1333 0.00474365 10.1151C0.00474365 7.66811 1.79407 5.84958 4.1761 5.84385C5.26927 5.84385 6.3615 5.83526 7.45467 5.84863C7.5815 5.8612 7.70884 5.83059 7.817 5.76153C7.92515 5.69247 8.00808 5.58881 8.05297 5.46658C8.46116 4.59839 8.89172 3.73975 9.30923 2.87633C9.83018 1.80087 10.6699 1.25933 11.846 1.26124C14.2066 1.26124 16.5672 1.26124 18.9287 1.26124C19.4431 1.26124 19.856 1.54777 20.0172 2.00049C20.1784 2.45321 20.1104 2.9088 19.7432 3.20488C19.4892 3.40407 19.182 3.51903 18.8625 3.5344C16.5606 3.56019 14.2578 3.55637 11.9559 3.54108C11.5999 3.54108 11.4061 3.6662 11.257 3.98903C10.8637 4.83812 10.4397 5.67193 10.0333 6.5153C9.51239 7.59361 8.66992 8.13134 7.49474 8.12657C6.3907 8.12275 5.28604 8.12275 4.18076 8.12657C3.03075 8.12657 2.24047 8.9174 2.23953 10.0912C2.23332 15.1329 2.23332 20.175 2.23953 25.2173C2.23953 26.4351 3.03541 27.203 4.27303 27.203C9.64472 27.203 15.0167 27.203 20.3891 27.203C22.8432 27.203 25.2973 27.203 27.7514 27.203C28.7551 27.203 29.4838 26.6672 29.7019 25.7579C29.7508 25.5132 29.7708 25.2634 29.7616 25.0139C29.7616 20.8751 29.7616 16.7388 29.7616 12.6051C29.757 12.4388 29.7679 12.2725 29.7942 12.1084C29.9051 11.5124 30.385 11.1476 30.9805 11.1896C31.2504 11.2083 31.5035 11.3302 31.6898 11.5311C31.876 11.7321 31.9818 11.9975 31.9861 12.2746C32.0029 12.989 31.9926 13.7073 31.9926 14.4198C31.9926 17.9957 31.9982 21.5716 31.9926 25.1476C31.9926 27.309 30.7112 28.9632 28.7141 29.394C28.3603 29.4632 28.0006 29.4952 27.6405 29.4895C23.7568 29.4991 19.8728 29.5019 15.9884 29.4981Z" fill="white"/>
<path d="M23.0572 16.9212C23.0513 18.3519 22.6318 19.7488 21.8518 20.9354C21.0717 22.1219 19.9661 23.045 18.6744 23.5879C17.3828 24.1309 15.9632 24.2694 14.5948 23.9859C13.2264 23.7025 11.9707 23.0098 10.9862 21.9954C10.0017 20.981 9.33263 19.6903 9.06345 18.2864C8.79427 16.8825 8.93707 15.4283 9.47382 14.1075C10.0106 12.7867 10.9172 11.6586 12.0792 10.8655C13.2411 10.0725 14.6064 9.65017 16.0024 9.65186C16.9317 9.65311 17.8517 9.84227 18.7095 10.2085C19.5674 10.5748 20.3463 11.1109 21.0017 11.7862C21.657 12.4615 22.1759 13.2626 22.5287 14.1438C22.8814 15.025 23.061 15.9688 23.0572 16.9212ZM11.1647 16.8773C11.1621 17.8558 11.4426 18.8131 11.9706 19.6284C12.4987 20.4436 13.2506 21.0802 14.1315 21.4577C15.0123 21.8352 15.9826 21.9367 16.9197 21.7493C17.8568 21.562 18.7187 21.0942 19.3966 20.4051C20.0744 19.716 20.5378 18.8365 20.7282 17.8776C20.9186 16.9188 20.8274 15.9236 20.4662 15.0178C20.105 14.112 19.4899 13.3362 18.6988 12.7885C17.9076 12.2408 16.9758 11.9456 16.021 11.9403C15.3859 11.9372 14.7564 12.0625 14.1686 12.309C13.5808 12.5555 13.0462 12.9185 12.5954 13.3771C12.1447 13.8357 11.7866 14.3809 11.5417 14.9815C11.2969 15.5821 11.17 16.2263 11.1684 16.8773H11.1647Z" fill="white"/>
<path d="M29.0281 5.84193C29.0281 6.49618 29.0365 7.10267 29.0281 7.70821C29.017 8.25262 28.7141 8.68242 28.2649 8.83333C27.8157 8.98424 27.2891 8.84575 27.031 8.42741C26.8969 8.19525 26.8208 7.93282 26.8092 7.66332C26.7766 7.07211 26.7989 6.47803 26.7989 5.84193C26.154 5.84193 25.5427 5.85339 24.9351 5.84193C24.1215 5.82282 23.5921 5.00429 23.9099 4.25835C23.991 4.0451 24.1349 3.86306 24.3217 3.73757C24.5084 3.61209 24.7287 3.5494 24.9518 3.55826C25.5529 3.55157 26.155 3.55826 26.8045 3.55826C26.8045 2.88968 26.7896 2.25167 26.8092 1.6127C26.8113 1.42737 26.8582 1.24547 26.9458 1.08332C27.0334 0.921175 27.1589 0.783853 27.311 0.683683C27.4632 0.583512 27.6372 0.523628 27.8175 0.509405C27.9978 0.495182 28.1788 0.527065 28.3441 0.602193C28.8213 0.816138 29.0319 1.21919 29.0337 1.74164C29.0337 2.33476 29.0337 2.92693 29.0337 3.55635C29.6786 3.55635 30.2909 3.54775 30.9032 3.55635C31.1433 3.55967 31.3759 3.64207 31.5667 3.79137C31.7575 3.94067 31.8964 4.14894 31.9628 4.38538C32.0308 4.6158 32.0227 4.86274 31.94 5.08803C31.8573 5.31332 31.7045 5.50442 31.5052 5.6318C31.2952 5.75317 31.0602 5.8219 30.8193 5.83237C30.2331 5.86103 29.6563 5.84193 29.0281 5.84193Z" fill="white"/>
</g>
<defs>
<clipPath id="clip0_1701_22151">
<rect width="32" height="29" fill="white" transform="translate(0 0.5)"/>
</clipPath>
</defs>
</svg>
