<svg width="18" height="17" viewBox="0 0 18 17" fill="none" xmlns="http://www.w3.org/2000/svg">
<g clip-path="url(#clip0_1724_22054)">
<path d="M10.929 5.23974H15.6195C16.2295 5.23947 16.8156 5.47521 17.2535 5.89695C17.6913 6.31868 17.9465 6.89321 17.9648 7.49865C17.9648 7.58016 17.9648 7.66165 17.9648 7.74316V15.3815C17.9785 15.5991 17.9455 15.8172 17.8678 16.0211C17.7902 16.2251 17.6697 16.4103 17.5145 16.5645C17.3592 16.7187 17.1727 16.8383 16.9673 16.9154C16.7619 16.9925 16.5423 17.0253 16.3231 17.0116H1.65339C1.43223 17.0272 1.21029 16.9954 1.00258 16.9184C0.794874 16.8414 0.60625 16.721 0.449474 16.5653C0.292698 16.4097 0.171418 16.2224 0.093868 16.0161C0.0163184 15.8099 -0.0157061 15.5895 -3.47011e-05 15.3699V2.48016C-0.0114903 2.1514 0.0452961 1.8238 0.166764 1.51775C0.288232 1.2117 0.471802 0.933714 0.706061 0.701105C0.940319 0.468496 1.22024 0.286218 1.52846 0.165605C1.83668 0.044992 2.1666 -0.0113591 2.49769 1.58515e-05H8.47815C8.80925 -0.0113591 9.13916 0.044992 9.44738 0.165605C9.7556 0.286218 10.0355 0.468496 10.2698 0.701105C10.504 0.933714 10.6876 1.2117 10.8091 1.51775C10.9305 1.8238 10.9873 2.1514 10.9759 2.48016V5.23974H10.929ZM9.60388 15.7192C9.60388 15.6493 9.60388 15.5911 9.60388 15.5329V2.50343C9.61424 2.34786 9.591 2.1919 9.53574 2.04597C9.48048 1.90003 9.39448 1.76747 9.28345 1.65722C9.17242 1.54698 9.03895 1.46158 8.89198 1.40671C8.74501 1.35183 8.58791 1.32876 8.43124 1.33905H2.56805C2.40014 1.32691 2.23158 1.35081 2.0738 1.40912C1.91603 1.46744 1.77272 1.55881 1.65368 1.67702C1.53463 1.79522 1.44262 1.93748 1.38388 2.09415C1.32515 2.25082 1.30109 2.41822 1.31331 2.58495V15.3117C1.30093 15.3771 1.30093 15.4442 1.31331 15.5096C1.31331 15.5911 1.44232 15.7075 1.51268 15.7075C1.8762 15.7075 2.23973 15.7075 2.6267 15.7075V12.1096C2.61667 11.8975 2.65133 11.6856 2.72851 11.4875C2.8057 11.2895 2.92369 11.1096 3.07492 10.9595C3.22615 10.8093 3.40728 10.6922 3.60674 10.6155C3.80619 10.5389 4.01958 10.5044 4.23321 10.5144H6.66054C6.88035 10.4943 7.10197 10.5211 7.31049 10.593C7.51901 10.6649 7.70965 10.7803 7.86958 10.9314C8.0295 11.0824 8.15503 11.2657 8.23774 11.469C8.32046 11.6722 8.35844 11.8906 8.34914 12.1096V15.6027L9.60388 15.7192ZM10.9524 6.57878V15.7308H16.2058C16.6163 15.7308 16.628 15.7308 16.628 15.3233V8.84934C16.628 8.4418 16.628 8.04591 16.628 7.68495C16.6351 7.54091 16.6112 7.39701 16.5579 7.26288C16.5046 7.12875 16.423 7.00746 16.3186 6.90715C16.2143 6.80684 16.0896 6.72982 15.9528 6.68122C15.8161 6.63262 15.6705 6.61358 15.5257 6.62536H10.9524V6.57878ZM6.96544 15.7308C6.97057 15.6961 6.97057 15.6608 6.96544 15.626V12.1329C6.96544 11.9116 6.89507 11.8418 6.66054 11.8418H4.23321C3.95178 11.8418 3.89313 11.9 3.89313 12.1911V15.5562C3.89313 15.626 3.89313 15.6959 3.89313 15.7658L6.96544 15.7308Z" fill="black"/>
<path d="M5.49979 4.79727H4.22162C4.04745 4.79727 3.88044 4.72856 3.75729 4.60627C3.63414 4.48399 3.56494 4.31815 3.56494 4.14522C3.56494 3.97228 3.63414 3.80641 3.75729 3.68412C3.88044 3.56184 4.04745 3.49316 4.22162 3.49316C5.07764 3.49316 5.92193 3.49316 6.77796 3.49316C6.95212 3.49316 7.11917 3.56184 7.24232 3.68412C7.36547 3.80641 7.43463 3.97228 7.43463 4.14522C7.43463 4.31815 7.36547 4.48399 7.24232 4.60627C7.11917 4.72856 6.95212 4.79727 6.77796 4.79727H5.49979Z" fill="black"/>
<path d="M5.47627 8.29041H4.17463C4.01272 8.28881 3.85692 8.22891 3.73614 8.12184C3.61536 8.01476 3.53783 7.86778 3.51795 7.70822C3.50154 7.56189 3.53551 7.41436 3.61429 7.28963C3.69307 7.16489 3.81201 7.07029 3.95182 7.02124C4.04136 7.00991 4.132 7.00991 4.22154 7.02124H6.75444C6.84493 7.01301 6.93615 7.02385 7.02212 7.05307C7.10809 7.0823 7.18687 7.12924 7.2533 7.19081C7.31973 7.25237 7.37229 7.32719 7.40758 7.41034C7.44286 7.49348 7.46007 7.58308 7.45803 7.67329C7.4584 7.76404 7.43967 7.85386 7.40307 7.93702C7.36646 8.02018 7.31276 8.09486 7.24543 8.15623C7.1781 8.21761 7.09864 8.26435 7.01207 8.29347C6.9255 8.32259 6.83374 8.33344 6.74271 8.32534L5.47627 8.29041Z" fill="black"/>
<path d="M13.8138 10.0253C13.3916 10.0253 12.9695 10.0253 12.5591 10.0253C12.3849 10.0253 12.2178 9.95666 12.0947 9.83437C11.9715 9.71209 11.9023 9.54622 11.9023 9.37328C11.9023 9.20035 11.9715 9.03451 12.0947 8.91223C12.2178 8.78994 12.3849 8.72123 12.5591 8.72123H15.0919C15.1826 8.71489 15.2736 8.72696 15.3594 8.75673C15.4452 8.7865 15.524 8.83336 15.5909 8.89439C15.6579 8.95542 15.7116 9.02937 15.7488 9.11172C15.786 9.19406 15.8059 9.28305 15.8072 9.37328C15.8076 9.46404 15.7889 9.55389 15.7523 9.63705C15.7157 9.72021 15.662 9.79485 15.5947 9.85623C15.5274 9.9176 15.4479 9.96434 15.3613 9.99346C15.2747 10.0226 15.183 10.0334 15.0919 10.0253H13.8138Z" fill="black"/>
<path d="M13.8136 13.5185C13.3797 13.5185 12.9459 13.5185 12.5237 13.5185C12.3633 13.5205 12.2075 13.4651 12.0848 13.3625C11.9621 13.2599 11.8807 13.1169 11.8553 12.9596C11.8355 12.8099 11.8676 12.6578 11.9465 12.5287C12.0254 12.3996 12.1463 12.301 12.2892 12.2493C12.3865 12.2371 12.485 12.2371 12.5824 12.2493H15.0801C15.2543 12.2493 15.4213 12.318 15.5444 12.4403C15.6676 12.5626 15.7368 12.7284 15.7368 12.9014C15.7368 13.0743 15.6676 13.2402 15.5444 13.3624C15.4213 13.4847 15.2543 13.5534 15.0801 13.5534C14.6579 13.5534 14.2241 13.5534 13.8019 13.5534L13.8136 13.5185Z" fill="black"/>
</g>
<defs>
<clipPath id="clip0_1724_22054">
<rect width="18" height="17" fill="white"/>
</clipPath>
</defs>
</svg>
