<svg width="17" height="17" viewBox="0 0 17 17" fill="none" xmlns="http://www.w3.org/2000/svg">
<rect width="17" height="17" rx="8.5" fill="white"/>
<g clip-path="url(#clip0_2177_2400)">
<path d="M8.61302 13.4997C9.17505 13.3027 9.62449 12.9207 10.0531 12.5118C10.8416 11.7592 11.4946 10.8939 11.9676 9.88616C12.2715 9.23849 12.4736 8.56028 12.4982 7.8312C12.5597 5.99988 11.4497 4.31103 9.79811 3.72625C7.7268 2.99299 5.51461 4.09314 4.75117 6.24412C4.39376 7.25059 4.43146 8.25863 4.78068 9.26014C5.10313 10.186 5.60886 10.9949 6.221 11.7337C6.66597 12.2707 7.1541 12.7581 7.72134 13.1522C7.93019 13.2975 8.14622 13.4282 8.39103 13.4997H8.61302ZM5.20879 7.5178C5.2073 7.32392 5.26162 6.96982 5.37199 6.6238C6.04738 4.51013 8.36201 3.58925 10.1838 4.7335C11.198 5.37073 11.7318 6.34015 11.7903 7.58695C11.8178 8.17748 11.6757 8.73512 11.4577 9.27241C11.1037 10.1461 10.5814 10.8997 9.95586 11.5771C9.56471 12.0006 9.14926 12.3933 8.65493 12.6843C8.54778 12.7474 8.45651 12.7673 8.35085 12.6856C8.27644 12.6282 8.18913 12.5893 8.11348 12.5332C7.00726 11.7146 6.16048 10.664 5.58877 9.37366C5.35215 8.84132 5.20829 8.28159 5.20879 7.5178Z" fill="black"/>
<path d="M9.99998 7.49917C10.0038 6.67549 9.33004 6.00363 8.49897 6.00001C7.67834 5.99729 7.00114 6.67164 7 7.49305C6.99864 8.32081 7.66472 8.99674 8.48467 8.99992C8.68322 9.00202 8.88021 8.96472 9.0642 8.8902C9.2482 8.81568 9.41553 8.70541 9.5565 8.56579C9.69747 8.42618 9.80927 8.26 9.8854 8.0769C9.96153 7.89379 10.0005 7.69742 9.99998 7.49917ZM7.64589 7.50551C7.64534 7.33742 7.69454 7.1729 7.78732 7.03263C7.88009 6.89236 8.0123 6.78257 8.16735 6.71706C8.3224 6.65156 8.49337 6.63324 8.65881 6.66442C8.82424 6.6956 8.97677 6.77488 9.09723 6.89231C9.2177 7.00974 9.30073 7.16009 9.33591 7.32448C9.37109 7.48886 9.35685 7.65997 9.29498 7.8163C9.2331 7.97263 9.12635 8.10723 8.98812 8.2032C8.8499 8.29916 8.68636 8.35222 8.51804 8.3557C8.40466 8.3578 8.29199 8.3374 8.18658 8.29568C8.08117 8.25395 7.9851 8.19174 7.90397 8.11264C7.82283 8.03355 7.75823 7.93915 7.71393 7.83493C7.66963 7.7307 7.6465 7.61873 7.64589 7.50551Z" fill="black"/>
</g>
<defs>
<clipPath id="clip0_2177_2400">
<rect width="8" height="10" fill="white" transform="matrix(-1 0 0 1 12.5 3.5)"/>
</clipPath>
</defs>
</svg>
