<svg width="16" height="16" viewBox="0 0 16 16" fill="none" xmlns="http://www.w3.org/2000/svg">
<g clip-path="url(#clip0_259_19492)">
<path d="M1.3391 12.3155L3.47128 10.8834L4.36867 10.282C4.78388 9.98904 5.28763 9.84836 5.79468 9.88383C6.30174 9.9193 6.78096 10.1287 7.15128 10.4767C7.2974 10.636 7.48594 10.7503 7.69478 10.8064C7.90361 10.8624 8.12411 10.8578 8.33041 10.793C8.50364 10.7287 8.66299 10.632 8.79997 10.508C9.77388 9.6807 10.7443 8.84298 11.7148 8.01222C12.1213 7.64752 12.6484 7.44579 13.1948 7.44579C13.7411 7.44579 14.2682 7.64752 14.6748 8.01222L14.8974 8.19993V7.98789C14.8974 7.5082 14.8974 7.03199 14.8974 6.55578C14.8938 6.4687 14.9106 6.38199 14.9463 6.30248C14.982 6.22297 15.0357 6.15283 15.1031 6.09757C15.1705 6.04231 15.2499 6.00344 15.3349 5.98403C15.4199 5.96462 15.5083 5.9652 15.593 5.98571C15.7001 6.01648 15.7954 6.07865 15.8667 6.16417C15.938 6.24969 15.982 6.35462 15.993 6.4654C15.9948 6.49434 15.9948 6.52336 15.993 6.5523C15.993 7.98788 15.993 9.42348 15.993 10.8591C15.9823 11.5394 15.8746 12.2148 15.673 12.8647C15.4798 13.5609 15.1033 14.1927 14.5827 14.694C14.062 15.1953 13.4164 15.5479 12.713 15.715C12.0918 15.8924 11.4495 15.986 10.8034 15.9931C8.9391 15.9931 7.07127 16.0105 5.20345 15.9931C4.3288 15.9932 3.46262 15.822 2.65389 15.4891C2.08433 15.2542 1.57727 14.89 1.1728 14.4255C0.768337 13.961 0.477552 13.4088 0.323448 12.8126C0.129653 12.178 0.0277519 11.519 0.0208409 10.8556C0.00460902 8.96001 0.00460902 7.06444 0.0208409 5.16886C0.0200564 4.43647 0.137507 3.70874 0.368667 3.01374C0.570517 2.36358 0.935312 1.77576 1.42841 1.3061C1.9215 0.836447 2.52653 0.500542 3.18606 0.330272C3.90187 0.124284 4.6429 0.0189937 5.38779 0.017435C6.48693 0.017435 7.58606 0.017435 8.68519 0.017435C8.7671 0.01015 8.84961 0.0212082 8.9267 0.0498103C9.00379 0.0784123 9.07353 0.123833 9.13084 0.18277C9.18815 0.241706 9.23159 0.312674 9.25799 0.390504C9.28439 0.468334 9.29309 0.551068 9.28345 0.632682C9.26763 0.779083 9.19504 0.913471 9.08126 1.00703C8.96748 1.1006 8.82156 1.14589 8.67476 1.13323C7.88519 1.13323 7.09562 1.13323 6.30258 1.13323C5.76693 1.13323 5.23128 1.13323 4.69911 1.17842C4.09784 1.21161 3.50804 1.35661 2.95998 1.60597C2.52073 1.81284 2.13961 2.12525 1.8507 2.51528C1.56178 2.9053 1.37406 3.36079 1.30432 3.84103C1.1949 4.37662 1.13552 4.92122 1.12693 5.46779C1.10606 7.2336 1.10606 9.00056 1.12693 10.7687C1.15661 11.243 1.21235 11.7152 1.29389 12.1834C1.3046 12.2288 1.31974 12.2731 1.3391 12.3155ZM1.77389 13.3757C2.03892 13.7952 2.41274 14.1352 2.85562 14.3594C3.59201 14.7124 4.40076 14.8886 5.21736 14.8738C6.92867 14.8947 8.63881 14.8947 10.3478 14.8738C10.9122 14.8712 11.4753 14.8212 12.0313 14.7244C12.6993 14.6454 13.323 14.3497 13.8068 13.8826C14.2905 13.4155 14.6077 12.8027 14.7095 12.1382C14.8547 11.3545 14.9118 10.557 14.88 9.76064C14.8709 9.69336 14.836 9.63226 14.7826 9.59032C14.5008 9.34005 14.2121 9.09673 13.9269 8.84994C13.7242 8.66156 13.4577 8.55685 13.1808 8.55685C12.904 8.55685 12.6375 8.66156 12.4348 8.84994C11.4435 9.70156 10.4521 10.5567 9.45388 11.4048C9.30927 11.5305 9.15053 11.639 8.98084 11.7281C8.56655 11.933 8.09909 12.0052 7.6422 11.9349C7.18531 11.8646 6.76124 11.6552 6.4278 11.3353C6.23916 11.1356 5.98196 11.0146 5.70779 10.9966C5.43362 10.9785 5.16276 11.0648 4.94954 11.2379L2.93911 12.5901L1.77389 13.3757Z" fill="#2B3641"/>
<path d="M5.76694 7.0736C5.36145 7.0736 4.96509 6.95335 4.62803 6.72807C4.29098 6.50279 4.0284 6.18263 3.87354 5.80812C3.71869 5.43361 3.67852 5.0216 3.75814 4.62426C3.83775 4.22692 4.03357 3.86213 4.32078 3.57608C4.60799 3.29003 4.97368 3.09559 5.37155 3.01738C5.76941 2.93917 6.18155 2.98071 6.55578 3.13674C6.93001 3.29276 7.24948 3.55625 7.47376 3.89385C7.69803 4.23145 7.81702 4.62797 7.81564 5.03319C7.81288 5.5747 7.59593 6.09314 7.21212 6.47539C6.82832 6.85765 6.3088 7.07269 5.76694 7.0736ZM5.76694 5.95433C5.8889 5.95571 6.00994 5.93306 6.12314 5.88769C6.23634 5.84232 6.33949 5.77511 6.4267 5.6899C6.51391 5.60468 6.58346 5.50313 6.6314 5.39105C6.67933 5.27897 6.70471 5.15855 6.70607 5.03667C6.70882 4.85216 6.65668 4.67098 6.55625 4.51612C6.45581 4.36127 6.31161 4.23971 6.14195 4.16687C5.97229 4.09403 5.7848 4.07319 5.60327 4.10699C5.42174 4.14079 5.25433 4.22771 5.1223 4.35672C4.99027 4.48573 4.89956 4.65102 4.86167 4.83163C4.82377 5.01224 4.84042 5.20004 4.90947 5.37118C4.97853 5.54233 5.09689 5.68912 5.24955 5.79294C5.40221 5.89676 5.58229 5.95293 5.76694 5.95433Z" fill="#2B3641"/>
<path d="M13.0261 1.96049V2.14472C13.0261 3.09714 13.0261 4.05072 13.0261 5.00546C13.0313 5.14808 12.9821 5.28733 12.8884 5.39509C12.7948 5.50285 12.6637 5.57107 12.5217 5.58595C12.3868 5.59432 12.2533 5.55453 12.145 5.47368C12.0367 5.39283 11.9607 5.27617 11.9304 5.1445C11.9234 5.07516 11.9234 5.00529 11.9304 4.93594C11.9304 4.00437 11.9304 3.07628 11.9304 2.15515V1.97092L11.8852 1.93964C11.7217 2.11344 11.5582 2.28723 11.3878 2.45756C11.3149 2.53459 11.2205 2.58777 11.1168 2.61011C11.0131 2.63244 10.9051 2.62289 10.8069 2.5827C10.7079 2.54936 10.6215 2.48651 10.5593 2.40262C10.4972 2.31872 10.4622 2.2178 10.4591 2.11344C10.4489 2.03222 10.4578 1.94976 10.4849 1.87255C10.5121 1.79534 10.5568 1.72549 10.6156 1.66851C11.1095 1.16797 11.6035 0.667416 12.1043 0.173825C12.1565 0.120644 12.2187 0.078396 12.2874 0.0495533C12.3561 0.0207106 12.4298 0.00585938 12.5043 0.00585938C12.5788 0.00585938 12.6526 0.0207106 12.7213 0.0495533C12.79 0.078396 12.8522 0.120644 12.9043 0.173825C13.3959 0.660464 13.8829 1.15058 14.3652 1.64417C14.4196 1.69511 14.4632 1.75639 14.4936 1.8244C14.5239 1.89242 14.5404 1.9658 14.542 2.04026C14.5437 2.11472 14.5304 2.18875 14.503 2.25802C14.4756 2.32729 14.4347 2.39039 14.3826 2.44365C14.3286 2.49645 14.2647 2.53796 14.1945 2.56572C14.1243 2.59349 14.0492 2.60695 13.9737 2.60533C13.8982 2.60371 13.8238 2.58704 13.7549 2.55629C13.6859 2.52555 13.6238 2.48134 13.5722 2.42627L13.3252 2.17948L13.0991 1.93616L13.0261 1.96049Z" fill="#2B3641"/>
</g>
<defs>
<clipPath id="clip0_259_19492">
<rect width="16" height="16" fill="white"/>
</clipPath>
</defs>
</svg>
