<svg width="32" height="33" viewBox="0 0 32 33" fill="none" xmlns="http://www.w3.org/2000/svg">
<g clip-path="url(#clip0_1701_22147)">
<path d="M29.7689 16.8777C29.7689 15.7381 29.7689 14.6813 29.7689 13.6217C29.7689 12.9863 30.1207 12.5482 30.6874 12.4337C30.8336 12.4063 30.9837 12.4084 31.129 12.4401C31.2743 12.4717 31.4118 12.5321 31.5333 12.6179C31.6548 12.7036 31.7578 12.8128 31.8363 12.939C31.9148 13.0653 31.9672 13.206 31.9903 13.3528C32.0005 13.4337 32.0051 13.5151 32.0042 13.5966C31.9986 16.4461 32.0173 19.2955 31.9754 22.1441C31.9628 23.7287 31.6796 25.2996 31.1378 26.789C30.1318 29.5063 28.1664 31.1613 25.409 31.9251C23.8623 32.3549 22.2812 32.5037 20.6815 32.5019C17.2615 32.5019 13.8415 32.5195 10.4215 32.4758C8.65893 32.4535 6.92799 32.1614 5.28825 31.4655C2.86308 30.4422 1.37503 28.5965 0.635195 26.1034C0.245652 24.8101 0.0404505 23.4685 0.0256463 22.118C-0.00041076 18.3727 -0.00041076 14.6277 0.0256463 10.8829C0.0298373 9.28628 0.313289 7.70265 0.863196 6.2036C1.83755 3.58298 3.71459 1.94103 6.36869 1.14749C7.68508 0.754515 9.04964 0.546004 10.4234 0.527922C12.762 0.495362 15.0997 0.505595 17.4383 0.504665C18.0218 0.504665 18.4797 0.876779 18.5764 1.39123C18.6301 1.64439 18.5919 1.9084 18.4686 2.13596C18.3454 2.36353 18.1451 2.53978 17.9036 2.63316C17.6939 2.70394 17.4734 2.73732 17.2522 2.73177C14.9834 2.74386 12.7155 2.73177 10.4466 2.75968C9.20057 2.76677 7.96278 2.96249 6.77536 3.34018C4.55772 4.05836 3.23904 5.60264 2.66486 7.82881C2.37157 8.9911 2.22587 10.1857 2.2312 11.3844C2.2312 14.9436 2.21258 18.5029 2.25446 22.0613C2.2647 22.9841 2.46571 23.9042 2.58389 24.8251C2.60523 24.9264 2.63416 25.0259 2.67044 25.1228L4.05147 24.1981C5.6121 23.1525 7.16157 22.105 8.72034 21.064C10.5108 19.8686 12.6838 20.0035 14.2835 21.4473C14.9806 22.0752 15.7409 22.371 16.6436 22.0734C16.9891 21.941 17.3069 21.7454 17.5807 21.4966C19.5145 19.8556 21.4334 18.1987 23.3579 16.5484C25.1829 14.9846 27.5224 14.9808 29.3594 16.5381C29.473 16.6349 29.5893 16.727 29.7689 16.8777ZM3.5508 27.2476C4.07775 28.0837 4.82209 28.7609 5.70424 29.2068C7.18856 29.9668 8.79666 30.2208 10.4327 30.2403C13.853 30.2813 17.2736 30.2853 20.6945 30.2524C21.8215 30.2435 22.946 30.1433 24.0568 29.9529C26.8905 29.4598 28.7099 27.83 29.3752 24.9824C29.7605 23.3348 29.7838 21.6631 29.7596 19.9876C29.7369 19.8664 29.6707 19.7576 29.5735 19.6816C28.9974 19.1746 28.4139 18.675 27.8295 18.1773C26.9333 17.4126 25.7738 17.4229 24.8767 18.1941C22.8833 19.9076 20.8872 21.6184 18.8882 23.3265C18.5968 23.5755 18.2773 23.7897 17.9362 23.9646C16.4677 24.7089 14.3738 24.6158 12.8318 23.1516C11.9617 22.3283 10.9222 22.2855 9.93293 22.9506L5.85871 25.6968L3.5508 27.2476Z" fill="white"/>
<path d="M11.5125 14.632C10.7036 14.6277 9.91402 14.3841 9.24347 13.9318C8.57292 13.4794 8.05143 12.8387 7.74479 12.0904C7.43815 11.342 7.36011 10.5197 7.52052 9.72711C7.68092 8.93451 8.07258 8.20717 8.64608 7.63685C9.21957 7.06654 9.9492 6.67881 10.7429 6.5226C11.5366 6.36638 12.3588 6.44868 13.1058 6.75911C13.8527 7.06954 14.491 7.59419 14.94 8.26685C15.389 8.93951 15.6286 9.73005 15.6286 10.5387C15.6277 11.0778 15.5205 11.6114 15.3131 12.1091C15.1057 12.6067 14.8021 13.0585 14.4198 13.4387C14.0375 13.8189 13.5839 14.12 13.085 14.3248C12.5862 14.5295 12.0518 14.6339 11.5125 14.632ZM11.5227 12.3993C11.8908 12.3993 12.2507 12.2902 12.5568 12.0857C12.8628 11.8813 13.1014 11.5907 13.2423 11.2507C13.3832 10.9107 13.42 10.5366 13.3482 10.1757C13.2764 9.81481 13.0991 9.48329 12.8388 9.22308C12.5785 8.96287 12.2469 8.78567 11.8858 8.71388C11.5248 8.64209 11.1506 8.67893 10.8105 8.81976C10.4704 8.96058 10.1797 9.19906 9.97518 9.50503C9.77067 9.81099 9.66151 10.1707 9.66151 10.5387C9.66225 11.0317 9.85867 11.5042 10.2076 11.8525C10.5566 12.2008 11.0296 12.3965 11.5227 12.3965V12.3993Z" fill="white"/>
<path d="M26.8008 7.21762C26.8008 8.11906 26.8008 8.99911 26.8008 9.87916C26.8051 10.0531 26.792 10.227 26.7617 10.3983C26.7071 10.6616 26.5582 10.896 26.343 11.0574C26.1278 11.2188 25.861 11.2961 25.5928 11.2749C25.3246 11.2536 25.0734 11.1353 24.8863 10.942C24.6992 10.7488 24.5891 10.4939 24.5766 10.2252C24.5589 9.35355 24.5692 8.48187 24.5683 7.60927V7.2018H23.2412C22.694 7.2018 22.1477 7.21483 21.6015 7.19715C20.9444 7.17575 20.4605 6.68177 20.4661 6.06871C20.4717 5.45565 20.9631 4.97842 21.6229 4.97097C22.4604 4.9626 23.298 4.97097 24.1355 4.97097H24.5487C24.5552 4.81841 24.5664 4.69189 24.5664 4.57188C24.5664 3.73462 24.5664 2.89737 24.5664 2.06011C24.572 1.37356 25.0391 0.874923 25.6673 0.870272C26.2955 0.86562 26.784 1.3596 26.7952 2.04243C26.8082 2.87969 26.7952 3.71695 26.7952 4.55421V4.96911H28.3233C28.7886 4.96911 29.2539 4.96353 29.7192 4.96911C30.3911 4.98028 30.8685 5.43426 30.8769 6.06127C30.8852 6.68828 30.4041 7.18599 29.7192 7.19715C28.8472 7.2111 27.9752 7.19715 27.1023 7.2018C27.0176 7.2018 26.9274 7.21017 26.8008 7.21762Z" fill="white"/>
</g>
<defs>
<clipPath id="clip0_1701_22147">
<rect width="32" height="32" fill="white" transform="translate(0 0.5)"/>
</clipPath>
</defs>
</svg>
