<svg width="15" height="18" viewBox="0 0 15 18" fill="none" xmlns="http://www.w3.org/2000/svg">
<g clip-path="url(#clip0_1724_22049)">
<path d="M7.71125 17.9999C8.76507 17.6452 9.60776 16.9576 10.4114 16.2216C11.8898 14.8669 13.1143 13.3094 14.0012 11.4954C14.5709 10.3296 14.9499 9.10883 14.9959 7.79648C15.1113 4.50009 13.0301 1.46017 9.9333 0.407561C6.04959 -0.912307 1.90174 1.06797 0.470286 4.93974C-0.199863 6.75138 -0.129176 8.56585 0.525627 10.3686C1.1302 12.0351 2.07846 13.4912 3.22622 14.8209C4.06054 15.7876 4.97577 16.665 6.03936 17.3742C6.43094 17.6358 6.83601 17.8712 7.29502 17.9999H7.71125ZM1.32832 7.23236C1.32553 6.88337 1.42738 6.24598 1.63433 5.62316C2.90068 1.81855 7.24061 0.160967 10.6565 2.22062C12.5581 3.36764 13.5589 5.11259 13.6686 7.35683C13.7203 8.41977 13.4538 9.42353 13.045 10.3907C12.3814 11.9632 11.402 13.3197 10.2291 14.5391C9.49568 15.3014 8.7167 16.0083 7.78984 16.532C7.58894 16.6457 7.4178 16.6814 7.21968 16.5344C7.08016 16.431 6.91646 16.3611 6.77462 16.2601C4.70046 14.7866 3.11275 12.8956 2.04079 10.5729C1.59712 9.6147 1.32739 8.60718 1.32832 7.23236Z" fill="black"/>
<path d="M10.5754 7.43401C10.5833 5.72664 9.20255 4.33396 7.49951 4.32645C5.81786 4.32081 4.43012 5.71865 4.42779 7.42133C4.425 9.13716 5.78995 10.5383 7.47021 10.5449C7.87707 10.5492 8.28074 10.4719 8.65778 10.3174C9.03483 10.163 9.37774 9.93438 9.66662 9.64498C9.9555 9.35558 10.1846 9.01111 10.3406 8.63156C10.4966 8.25202 10.5764 7.84496 10.5754 7.43401ZM5.75135 7.44716C5.75024 7.09872 5.85106 6.7577 6.04118 6.46693C6.23129 6.17617 6.50222 5.9486 6.81994 5.81281C7.13767 5.67702 7.48803 5.63906 7.82704 5.70368C8.16606 5.76831 8.47862 5.93265 8.72547 6.17607C8.97233 6.41949 9.14249 6.73114 9.21458 7.07189C9.28667 7.41265 9.25749 7.76732 9.13069 8.09138C9.0039 8.41544 8.78514 8.69445 8.50188 8.89337C8.21863 9.0923 7.8835 9.20227 7.53857 9.20949C7.30624 9.21385 7.07537 9.17155 6.85935 9.08506C6.64333 8.99857 6.44648 8.86961 6.28021 8.70566C6.11394 8.5417 5.98157 8.34603 5.89079 8.12999C5.8 7.91395 5.75261 7.68185 5.75135 7.44716Z" fill="black"/>
</g>
<defs>
<clipPath id="clip0_1724_22049">
<rect width="15" height="18" fill="white" transform="matrix(-1 0 0 1 15 0)"/>
</clipPath>
</defs>
</svg>
