<svg width="289" height="119" viewBox="0 0 289 119" fill="none" xmlns="http://www.w3.org/2000/svg">
<path fill-rule="evenodd" clip-rule="evenodd" d="M67.7406 94.3114C67.744 94.4032 67.7315 94.5279 67.7019 94.6831C67.6735 94.8384 67.6416 94.9585 67.5859 95.0492C67.5426 95.1421 67.488 95.1965 67.43 95.1965C67.3833 95.1965 67.3321 95.1682 67.2673 95.1161C67.2104 95.0549 67.1273 94.9959 67.034 94.9359C66.935 94.8724 66.8087 94.8112 66.6563 94.7602C66.505 94.7058 66.3161 94.6831 66.0942 94.6831C65.8428 94.6831 65.6198 94.7285 65.4172 94.8237C65.2181 94.92 65.0383 95.0492 64.8779 95.2135C64.722 95.3699 64.5866 95.5547 64.4683 95.7553C64.35 95.9683 64.2578 96.1814 64.185 96.4081C64.1088 96.6268 64.053 96.8467 64.0211 97.0722C63.9825 97.2921 63.9699 97.4983 63.9745 97.691C63.9813 97.9188 64.0155 98.1217 64.078 98.2951C64.1372 98.4719 64.2271 98.6158 64.3363 98.7291C64.4524 98.8447 64.5878 98.9275 64.7527 98.9864C64.9109 99.0465 65.0964 99.0805 65.2932 99.0805C65.5321 99.0805 65.7381 99.0499 65.9053 98.9989C66.0715 98.949 66.2148 98.898 66.3331 98.8379C66.4458 98.7813 66.5436 98.7269 66.6199 98.677C66.7041 98.6283 66.7689 98.6011 66.8338 98.6011C66.8816 98.6011 66.9111 98.6158 66.9248 98.6464C66.9407 98.677 66.9521 98.7269 66.9521 98.7813C66.9521 98.7983 66.9521 98.8379 66.9407 98.8799C66.935 98.9252 66.9271 98.9796 66.9157 99.0363C66.9134 99.0918 66.902 99.1598 66.8884 99.2244C66.8759 99.2901 66.8611 99.3559 66.8474 99.4069C66.8313 99.4669 66.8131 99.5147 66.7948 99.5629L66.7917 99.5712C66.7701 99.6165 66.7405 99.6585 66.7052 99.6947C66.6745 99.7265 66.6028 99.7797 66.4981 99.8353C66.3866 99.8965 66.2603 99.9497 66.101 99.9917C65.9531 100.04 65.7813 100.082 65.5845 100.121C65.3922 100.156 65.1851 100.172 64.9644 100.172C64.5991 100.172 64.2692 100.124 63.9745 100.031C63.6832 99.9339 63.4295 99.7877 63.2247 99.5973C63.0165 99.4035 62.8504 99.1598 62.7377 98.8685C62.6217 98.5761 62.5568 98.2361 62.5511 97.8417C62.5409 97.5346 62.5705 97.2218 62.6228 96.8886C62.6842 96.5554 62.7684 96.2381 62.8947 95.9207C63.021 95.6079 63.1735 95.3087 63.3601 95.0231C63.5569 94.7443 63.7811 94.4984 64.0462 94.2853C64.317 94.0745 64.6185 93.9057 64.9553 93.7833C65.3 93.6563 65.6801 93.5895 66.0942 93.5895C66.3331 93.5895 66.5493 93.6178 66.7666 93.662C66.9749 93.7107 67.1546 93.7731 67.3128 93.8524C67.4675 93.9317 67.5779 94.002 67.6439 94.0643C67.7042 94.1312 67.7406 94.2094 67.7406 94.3114ZM73.2418 93.8819C73.2418 93.8901 73.2407 93.9027 73.2392 93.9188C73.2374 93.9383 73.2351 93.9628 73.2339 93.9907C73.2333 94.0143 73.2301 94.0421 73.2267 94.0714L73.2267 94.0716C73.2237 94.0971 73.2207 94.1236 73.2191 94.1493L73.217 94.1601C73.2062 94.2174 73.1943 94.2802 73.1804 94.342L73.1786 94.3485C73.1622 94.4097 73.1464 94.4686 73.1178 94.5233C73.0951 94.5743 73.0678 94.6219 73.0314 94.6571C72.9949 94.6967 72.9608 94.7058 72.9233 94.7058H70.6033L70.3109 96.2619H72.2793C72.3271 96.2619 72.3578 96.28 72.3828 96.3151C72.4033 96.3514 72.4147 96.3922 72.4147 96.4534C72.4147 96.4761 72.4147 96.5101 72.4113 96.5554C72.4113 96.6075 72.3999 96.6608 72.3874 96.722C72.3829 96.7827 72.3699 96.8413 72.3566 96.9009L72.3555 96.9056C72.3399 96.9636 72.3205 97.015 72.3016 97.065L72.2963 97.079C72.277 97.1151 72.2554 97.1455 72.2356 97.1734C72.2274 97.185 72.2195 97.1961 72.2121 97.2071C72.1757 97.2433 72.1416 97.2547 72.1018 97.2547H70.1368L69.8023 99.0521H72.1496C72.1939 99.0521 72.2212 99.0703 72.2372 99.1043C72.2645 99.1451 72.2736 99.1949 72.2759 99.2561C72.2759 99.2799 72.2759 99.3173 72.2736 99.3649C72.2721 99.3812 72.271 99.3981 72.2698 99.4155L72.2698 99.4159V99.416C72.2674 99.4518 72.2649 99.4897 72.2588 99.5293C72.2557 99.543 72.2526 99.5571 72.2496 99.5714C72.2394 99.6191 72.2288 99.6686 72.2121 99.714C72.2008 99.7775 72.1803 99.8353 72.1587 99.8908C72.1336 99.9384 72.1029 99.986 72.0711 100.021C72.0369 100.052 71.9971 100.068 71.9584 100.068H68.6929C68.6417 100.068 68.5928 100.061 68.5518 100.047C68.5063 100.031 68.4745 100.006 68.4415 99.9735C68.4085 99.9339 68.3903 99.8965 68.3789 99.8443C68.3709 99.7933 68.3709 99.7299 68.3823 99.6619L69.3995 94.104C69.4279 93.9612 69.486 93.8524 69.5759 93.7946C69.6669 93.7277 69.7625 93.6971 69.8751 93.6971H73.1065C73.1941 93.6971 73.2362 93.7583 73.2418 93.8819ZM79.3427 93.9C79.3438 93.9238 79.3427 93.9657 79.3325 94.0167C79.3313 94.0643 79.3268 94.1199 79.3131 94.1867C79.3096 94.2333 79.2965 94.2825 79.2834 94.3319L79.2833 94.332C79.2795 94.3463 79.2757 94.3606 79.2722 94.3749C79.2562 94.4451 79.2369 94.5086 79.213 94.5653C79.188 94.6163 79.1595 94.6639 79.1265 94.7024C79.0901 94.7364 79.0537 94.7511 79.0162 94.7511H77.3811L76.4402 99.8965C76.4345 99.9225 76.4163 99.9531 76.3901 99.9792C76.364 100.006 76.323 100.031 76.2661 100.04C76.2126 100.061 76.1421 100.073 76.0568 100.082C75.9737 100.09 75.8679 100.097 75.7416 100.097C75.6107 100.097 75.5061 100.09 75.4184 100.082C75.3365 100.073 75.2694 100.061 75.2262 100.04C75.1795 100.031 75.1488 100.006 75.1363 99.9792C75.1147 99.9531 75.1112 99.9225 75.1147 99.8965L76.0568 94.7511H74.4445C74.391 94.7511 74.3535 94.7364 74.341 94.7024C74.3182 94.6639 74.3091 94.6163 74.3091 94.5517C74.3091 94.5279 74.3091 94.4825 74.3102 94.4372C74.3137 94.4158 74.3165 94.3933 74.3194 94.3693L74.3195 94.369C74.3234 94.3373 74.3277 94.3029 74.3341 94.2649C74.3432 94.1992 74.3535 94.1357 74.374 94.0643C74.3853 94.0191 74.4002 93.9789 74.4145 93.9401L74.4146 93.94C74.4194 93.9269 74.4242 93.9141 74.4287 93.9012C74.431 93.8948 74.4332 93.8883 74.4354 93.8819C74.4638 93.8252 74.4946 93.7833 74.5287 93.7493C74.5617 93.713 74.5913 93.6971 74.6334 93.6971H79.213C79.2551 93.6971 79.2847 93.713 79.3086 93.7527C79.3291 93.7844 79.3427 93.8365 79.3427 93.9ZM84.8087 97.6196C84.8087 97.7488 84.8018 97.8871 84.7768 98.0378C84.7552 98.1829 84.7188 98.337 84.6653 98.4855C84.605 98.6385 84.5322 98.7949 84.4423 98.9411C84.349 99.0941 84.2329 99.2369 84.0953 99.3649C83.9576 99.4998 83.7949 99.6165 83.6037 99.7174C83.4126 99.8137 83.1976 99.8965 82.9552 99.9497C82.7811 99.986 82.59 100.021 82.3886 100.037C82.1849 100.053 81.9562 100.068 81.7059 100.068H80.0379C79.9799 100.068 79.9298 100.061 79.8888 100.047C79.8388 100.031 79.799 100.006 79.7682 99.9735C79.7375 99.9339 79.7125 99.8965 79.7057 99.8443C79.6875 99.7933 79.692 99.7299 79.7057 99.6619L80.7672 93.866C80.7684 93.8263 80.7843 93.8003 80.815 93.7731C80.8378 93.7527 80.8833 93.7277 80.939 93.7175C80.9914 93.6971 81.0619 93.6858 81.1484 93.6801C81.2349 93.6711 81.3441 93.6677 81.4624 93.6677C81.5933 93.6677 81.6968 93.6711 81.7765 93.6801C81.8606 93.6858 81.9278 93.6971 81.9699 93.7175C82.0211 93.7277 82.0518 93.7527 82.0689 93.7731C82.0882 93.8003 82.0939 93.8263 82.0882 93.866L81.6832 96.0318H82.4773C82.6116 96.0318 82.7276 96.0318 82.8312 96.0352C82.8564 96.0366 82.881 96.0377 82.905 96.0388C82.9798 96.0422 83.0496 96.0453 83.1168 96.0556C83.1599 96.0586 83.2034 96.063 83.246 96.0672C83.2831 96.0709 83.3196 96.0745 83.3546 96.0771C83.4263 96.0896 83.4957 96.1032 83.5617 96.1293C83.7756 96.1848 83.9644 96.2619 84.1203 96.365C84.2762 96.4681 84.4025 96.5883 84.5037 96.7175C84.605 96.8512 84.6835 96.9917 84.729 97.1515C84.7768 97.3102 84.8018 97.4609 84.8087 97.6196ZM83.4342 97.7907C83.4331 97.6559 83.4001 97.5323 83.3352 97.4054C83.2681 97.2909 83.1532 97.1969 83.0087 97.13C82.9824 97.1242 82.9552 97.1142 82.928 97.1042C82.9128 97.0986 82.8975 97.093 82.8824 97.0881C82.866 97.0848 82.8486 97.0818 82.8305 97.0788L82.8302 97.0787C82.798 97.0732 82.7633 97.0673 82.7276 97.0586L82.7054 97.0567L82.7053 97.0567C82.654 97.0524 82.5906 97.047 82.5194 97.045C82.4432 97.0371 82.359 97.0371 82.26 97.0371H81.5022L81.1279 99.0623H81.9107C81.9318 99.0623 81.9522 99.0622 81.9719 99.0621C82.0058 99.0619 82.0376 99.0615 82.068 99.0611C82.0977 99.0607 82.126 99.0603 82.1532 99.0602C82.1639 99.0601 82.1745 99.0601 82.1849 99.0601L82.2117 99.0575L82.2117 99.0575C82.281 99.0508 82.3411 99.0449 82.3977 99.0329C82.4603 99.0249 82.516 99.0125 82.5706 98.9989L82.5987 98.9897C82.6395 98.9766 82.6843 98.9622 82.7276 98.9411C82.8312 98.9014 82.9302 98.8447 83.02 98.7711C83.1031 98.6963 83.1816 98.6067 83.2465 98.5036C83.3079 98.405 83.3602 98.2951 83.3921 98.167C83.4205 98.0435 83.4376 97.9188 83.4342 97.7907ZM5.03511 103.061C5.03511 103.076 5.03511 103.118 5.02715 103.169C5.02432 103.195 5.02093 103.222 5.01739 103.249C5.01382 103.277 5.0101 103.306 5.00667 103.337C4.9992 103.381 4.98978 103.423 4.98033 103.466L4.98032 103.466C4.97536 103.488 4.9704 103.511 4.9657 103.533C4.95091 103.6 4.92816 103.658 4.90313 103.717C4.88037 103.772 4.84965 103.82 4.81552 103.854C4.78252 103.888 4.7427 103.909 4.70287 103.909H3.07355L2.14397 109.048C2.13487 109.081 2.11894 109.111 2.09277 109.137C2.07002 109.159 2.02792 109.183 1.97103 109.196C1.91755 109.215 1.84473 109.227 1.76281 109.236C1.67406 109.249 1.56825 109.255 1.43626 109.255C1.30769 109.255 1.20074 109.249 1.12451 109.236C1.03462 109.227 0.974319 109.215 0.927669 109.196C0.878744 109.183 0.849161 109.159 0.833232 109.137C0.818441 109.111 0.816165 109.081 0.818441 109.048L1.75143 103.909H0.136902C0.0800119 103.909 0.045878 103.888 0.0265355 103.854C0.0117442 103.82 0.00150401 103.772 0.000366211 103.705C0.000366211 103.682 0.000366211 103.642 0.0037796 103.594C0.00529624 103.581 0.00657029 103.567 0.00790356 103.552L0.00790689 103.552C0.0115739 103.511 0.0156907 103.465 0.0265355 103.42C0.0345001 103.356 0.045878 103.287 0.0663583 103.223C0.0800119 103.158 0.103906 103.097 0.130075 103.038C0.153969 102.986 0.183551 102.939 0.215409 102.903C0.251819 102.871 0.284815 102.855 0.326913 102.855H4.90313C4.94181 102.855 4.97253 102.871 4.99529 102.906C5.01349 102.943 5.03511 102.993 5.03511 103.061ZM9.19147 107.362C8.9605 107.76 8.74887 108.093 8.55772 108.344C8.37112 108.606 8.17997 108.802 7.99451 108.941C7.8136 109.085 7.61904 109.183 7.41651 109.236C7.21057 109.294 6.98415 109.317 6.72701 109.317C6.65647 109.317 6.58023 109.309 6.49376 109.297C6.41525 109.294 6.33561 109.278 6.26165 109.258C6.18314 109.236 6.11374 109.215 6.04775 109.188C5.98289 109.159 5.92942 109.132 5.89642 109.085C5.84294 109.04 5.81677 108.977 5.81222 108.89C5.81222 108.863 5.81222 108.824 5.81677 108.765C5.81942 108.743 5.82156 108.72 5.82377 108.697L5.82378 108.697C5.82728 108.66 5.83099 108.621 5.83725 108.58C5.84636 108.514 5.86001 108.442 5.87935 108.37C5.89187 108.297 5.91007 108.229 5.93852 108.167C5.95769 108.122 5.97931 108.085 5.99934 108.05C6.00665 108.038 6.01375 108.025 6.02044 108.013C6.05116 107.979 6.09098 107.957 6.12512 107.957C6.16153 107.957 6.1968 107.971 6.23093 107.992C6.24031 107.998 6.24994 108.004 6.2599 108.01C6.2862 108.028 6.3148 108.047 6.34699 108.063C6.39022 108.093 6.44484 108.119 6.50855 108.136C6.57455 108.158 6.64509 108.17 6.7418 108.17C6.81121 108.17 6.87151 108.158 6.94092 108.142C7.01373 108.127 7.07973 108.089 7.15027 108.035C7.21968 107.987 7.28794 107.918 7.35849 107.836C7.42448 107.76 7.49502 107.656 7.57125 107.528L6.20704 103.325C6.17859 103.221 6.15584 103.13 6.15242 103.067C6.15015 103.004 6.16608 102.954 6.20704 102.917C6.24572 102.88 6.31058 102.855 6.40843 102.841C6.49945 102.829 6.62575 102.824 6.78618 102.824C6.94092 102.824 7.06835 102.829 7.15255 102.835C7.24243 102.841 7.3107 102.855 7.36418 102.877C7.41083 102.901 7.44496 102.932 7.46544 102.973L7.46591 102.974C7.48739 103.02 7.50995 103.069 7.52916 103.134L8.12309 105.085C8.18241 105.279 8.23507 105.464 8.28629 105.644L8.2863 105.644L8.30058 105.694C8.34465 105.848 8.38463 106.006 8.42421 106.163L8.45873 106.3H8.47011C8.57885 106.068 8.69096 105.857 8.80421 105.644L8.80576 105.641C8.91727 105.431 9.03332 105.215 9.15734 104.997L10.2519 103.038C10.2758 102.996 10.3065 102.962 10.3452 102.932C10.3839 102.901 10.4317 102.877 10.4965 102.861C10.558 102.843 10.6433 102.83 10.7412 102.829L10.7422 102.829C10.8467 102.824 10.9715 102.817 11.1223 102.817C11.2771 102.817 11.3977 102.824 11.4853 102.829C11.5695 102.841 11.6298 102.855 11.6628 102.891C11.7003 102.92 11.7083 102.962 11.6935 103.02C11.6798 103.076 11.6423 103.158 11.5899 103.25L9.19147 107.362ZM17.4382 104.415C17.4405 104.6 17.428 104.785 17.3893 104.992C17.3472 105.189 17.2846 105.385 17.1981 105.575C17.1048 105.771 16.9933 105.952 16.8466 106.123C16.7032 106.297 16.52 106.444 16.3084 106.583C16.0967 106.713 15.8476 106.821 15.5654 106.898C15.2787 106.975 14.9487 107.011 14.563 107.011H13.8849L13.5185 109.051C13.5117 109.085 13.498 109.114 13.4673 109.141C13.4423 109.167 13.399 109.188 13.3456 109.207C13.2909 109.221 13.217 109.23 13.1294 109.236C13.0372 109.249 12.936 109.255 12.8062 109.255C12.6822 109.255 12.5832 109.249 12.5013 109.236C12.4171 109.23 12.35 109.221 12.3102 109.207C12.259 109.188 12.2282 109.167 12.2089 109.143C12.1918 109.117 12.1884 109.085 12.1975 109.051L13.2363 103.31C13.2625 103.16 13.3262 103.041 13.4252 102.97C13.5287 102.891 13.6471 102.855 13.7973 102.855H15.2184C15.3879 102.855 15.5404 102.855 15.6815 102.871C15.818 102.88 15.9557 102.901 16.0922 102.922C16.297 102.962 16.4825 103.027 16.6452 103.108C16.8067 103.187 16.9467 103.293 17.0661 103.413C17.1833 103.54 17.2721 103.682 17.3358 103.846C17.3984 104.016 17.4325 104.204 17.4382 104.415ZM16.0512 104.56C16.0444 104.402 16.0069 104.269 15.9261 104.151C15.8442 104.036 15.7258 103.955 15.562 103.909C15.5068 103.889 15.4431 103.879 15.3753 103.869L15.331 103.862C15.2411 103.854 15.1456 103.846 15.0386 103.846H14.4561L14.0703 106.012H14.6722C14.8611 106.012 15.0238 105.994 15.1604 105.948C15.2946 105.901 15.4152 105.839 15.5153 105.776C15.6155 105.702 15.6997 105.617 15.7679 105.514C15.8385 105.416 15.8954 105.315 15.9386 105.205C15.9784 105.096 16.0091 104.992 16.0274 104.878C16.0444 104.771 16.0512 104.661 16.0512 104.56ZM23.7871 109.056C23.7837 109.085 23.7701 109.117 23.7439 109.143C23.7166 109.167 23.6768 109.188 23.6199 109.207C23.5698 109.221 23.4981 109.23 23.4094 109.236C23.3218 109.249 23.2125 109.255 23.0885 109.255C22.9565 109.255 22.8496 109.249 22.7677 109.236C22.6857 109.23 22.6232 109.221 22.5754 109.207C22.531 109.188 22.5014 109.167 22.4866 109.143C22.4684 109.117 22.4639 109.085 22.4684 109.056L22.9645 106.317C22.9793 106.22 22.9975 106.117 23.0225 106.012C23.0396 105.897 23.0601 105.788 23.0885 105.675C23.1001 105.615 23.1142 105.554 23.1284 105.493C23.1407 105.44 23.153 105.387 23.1636 105.334C23.1886 105.222 23.216 105.119 23.2455 105.02H23.2364C23.1287 105.168 23.0139 105.315 22.8948 105.468C22.8773 105.491 22.8597 105.513 22.8421 105.536C22.8212 105.563 22.8002 105.59 22.779 105.617C22.6232 105.81 22.4639 106.006 22.3137 106.182L19.7946 109.059C19.7627 109.101 19.7263 109.132 19.6956 109.154L19.6844 109.161C19.646 109.184 19.6071 109.207 19.5625 109.215C19.5102 109.227 19.451 109.236 19.3782 109.244C19.3042 109.252 19.2143 109.255 19.1119 109.255C18.9754 109.255 18.873 109.252 18.7888 109.244C18.7069 109.236 18.6511 109.227 18.6033 109.207C18.5533 109.188 18.5294 109.173 18.51 109.143C18.4987 109.114 18.4952 109.081 18.5066 109.032L19.6 103.02C19.6 102.986 19.6217 102.959 19.6501 102.932C19.674 102.908 19.7147 102.892 19.762 102.874L19.7684 102.871C19.8253 102.855 19.8947 102.841 19.9823 102.835C20.0643 102.829 20.1712 102.824 20.3009 102.824C20.4249 102.824 20.5308 102.829 20.6138 102.835C20.6923 102.841 20.7606 102.855 20.8084 102.871C20.8527 102.891 20.8857 102.906 20.9062 102.932C20.9199 102.959 20.9278 102.986 20.9199 103.02L20.3874 105.994C20.3745 106.043 20.3641 106.1 20.3529 106.162L20.3528 106.162L20.3528 106.162C20.3473 106.193 20.3415 106.225 20.3351 106.258C20.3273 106.292 20.3197 106.327 20.312 106.363L20.312 106.363C20.2994 106.421 20.2866 106.48 20.2725 106.541C20.2578 106.604 20.2441 106.667 20.2303 106.73C20.2254 106.753 20.2205 106.776 20.2155 106.799C20.2129 106.811 20.2103 106.823 20.2076 106.835L20.2054 106.843L20.2054 106.843C20.1812 106.935 20.159 107.019 20.1314 107.102H20.1439C20.1906 107.029 20.2431 106.958 20.2962 106.887L20.2963 106.887L20.3351 106.835C20.3699 106.786 20.4064 106.739 20.4435 106.692C20.4803 106.646 20.5178 106.598 20.5546 106.547C20.6088 106.486 20.6603 106.42 20.7102 106.357C20.7326 106.329 20.7547 106.301 20.7765 106.274C20.8272 106.21 20.8785 106.15 20.9276 106.093C20.949 106.068 20.97 106.044 20.9904 106.02L23.5698 103.041L23.5879 103.022C23.6184 102.991 23.6492 102.958 23.6824 102.939C23.7166 102.906 23.7666 102.88 23.8178 102.864C23.8401 102.861 23.8638 102.856 23.8891 102.851L23.8893 102.851C23.9246 102.844 23.9632 102.836 24.0056 102.829C24.0795 102.824 24.1637 102.824 24.2673 102.824C24.4004 102.824 24.5039 102.829 24.5915 102.835C24.6712 102.841 24.7326 102.855 24.7793 102.871C24.8271 102.891 24.8567 102.906 24.868 102.932C24.8851 102.959 24.8874 102.986 24.8851 103.02L23.7871 109.056ZM31.3933 103.467C31.3933 103.554 31.3796 103.682 31.3523 103.84C31.3227 103.992 31.2875 104.113 31.2397 104.212C31.1942 104.299 31.1407 104.35 31.0815 104.35C31.0337 104.35 30.9803 104.322 30.9211 104.269C30.8642 104.212 30.7811 104.154 30.6833 104.093C30.5809 104.027 30.4592 103.971 30.3044 103.918C30.1576 103.862 29.9688 103.84 29.7435 103.84C29.4932 103.84 29.2736 103.884 29.071 103.981C28.8662 104.082 28.6887 104.212 28.526 104.363C28.3679 104.521 28.2348 104.71 28.1198 104.911C28.0049 105.119 27.9094 105.334 27.8354 105.556C27.7671 105.782 27.7091 106.006 27.6772 106.228C27.6408 106.444 27.6249 106.652 27.6329 106.846C27.6374 107.074 27.6693 107.278 27.7341 107.454C27.7967 107.626 27.8855 107.766 27.9936 107.883C28.1107 107.997 28.2461 108.089 28.4123 108.142C28.5693 108.2 28.7525 108.229 28.9493 108.229C29.1894 108.229 29.3919 108.209 29.5557 108.156C29.7298 108.105 29.8755 108.053 29.9892 107.992C30.1042 107.932 30.2031 107.878 30.2794 107.83C30.3602 107.78 30.4284 107.76 30.4921 107.76C30.5377 107.76 30.5661 107.766 30.5775 107.802C30.5968 107.833 30.6105 107.878 30.6105 107.932C30.6105 107.957 30.6105 107.992 30.598 108.035C30.5924 108.06 30.5889 108.091 30.5853 108.124C30.583 108.145 30.5806 108.166 30.5775 108.188C30.5718 108.246 30.5604 108.312 30.5468 108.38C30.542 108.415 30.5342 108.449 30.5267 108.482L30.5267 108.482C30.5197 108.512 30.513 108.541 30.5092 108.569L30.4992 108.596L30.4991 108.596C30.4831 108.641 30.4668 108.686 30.4489 108.728C30.4284 108.77 30.4011 108.814 30.3693 108.848C30.3329 108.887 30.26 108.935 30.1576 108.989C30.0484 109.048 29.9164 109.101 29.7617 109.147C29.6115 109.196 29.4397 109.236 29.2463 109.276C29.054 109.309 28.848 109.328 28.6284 109.328C28.2621 109.328 27.9298 109.281 27.6374 109.183C27.3405 109.085 27.0913 108.941 26.8808 108.749C26.6771 108.559 26.5087 108.312 26.3961 108.021C26.2778 107.73 26.2129 107.388 26.2083 107.002C26.197 106.692 26.2277 106.377 26.2812 106.046C26.3369 105.715 26.4245 105.391 26.5463 105.077C26.6646 104.763 26.8296 104.465 27.0139 104.177C27.2051 103.901 27.436 103.651 27.7023 103.439C27.9651 103.229 28.2666 103.067 28.6068 102.939C28.947 102.813 29.3248 102.748 29.7435 102.748C29.9756 102.748 30.1997 102.774 30.408 102.824C30.6196 102.864 30.8062 102.932 30.9632 103.006C31.1213 103.093 31.2283 103.158 31.292 103.223C31.3569 103.287 31.3933 103.365 31.3933 103.467ZM37.6011 103.061C37.6011 103.076 37.5988 103.118 37.5943 103.169C37.5931 103.221 37.5886 103.276 37.5738 103.337C37.5635 103.404 37.551 103.467 37.5317 103.533C37.5158 103.6 37.4976 103.658 37.4702 103.717C37.4452 103.772 37.4168 103.82 37.3872 103.854C37.3542 103.888 37.3121 103.909 37.2723 103.909H35.6407L34.7145 109.048C34.7043 109.081 34.6883 109.111 34.6599 109.137C34.6337 109.159 34.595 109.183 34.5381 109.196C34.4824 109.215 34.413 109.227 34.3254 109.236C34.2378 109.249 34.1365 109.255 34.0011 109.255C33.8748 109.255 33.7724 109.249 33.6905 109.236C33.6063 109.227 33.5426 109.215 33.4948 109.196C33.4493 109.183 33.4186 109.159 33.4038 109.137C33.3878 109.111 33.3821 109.081 33.3924 109.048L34.3197 103.909H32.7006C32.6505 103.909 32.6187 103.888 32.6016 103.854C32.5823 103.82 32.5732 103.772 32.5732 103.705C32.5732 103.682 32.5732 103.642 32.5754 103.594C32.5754 103.55 32.5828 103.494 32.59 103.439L32.59 103.439L32.5925 103.42C32.6028 103.356 32.6187 103.287 32.6357 103.223C32.6505 103.158 32.6699 103.097 32.6972 103.038C32.7234 102.986 32.7541 102.939 32.7848 102.903C32.8155 102.871 32.8531 102.855 32.8952 102.855H37.4702C37.5101 102.855 37.5431 102.871 37.5635 102.906C37.5886 102.943 37.5988 102.993 37.6011 103.061ZM43.4323 109.056C43.4243 109.085 43.4016 109.117 43.3799 109.143C43.3515 109.167 43.3117 109.188 43.2559 109.207C43.2024 109.221 43.1319 109.23 43.0443 109.236C42.9601 109.249 42.8497 109.255 42.7268 109.255C42.5937 109.255 42.4879 109.249 42.4049 109.236C42.3218 109.23 42.2615 109.221 42.216 109.207C42.1659 109.188 42.1386 109.167 42.1215 109.143C42.1068 109.117 42.1033 109.085 42.1102 109.056L42.6051 106.317C42.6188 106.22 42.6335 106.117 42.6586 106.012C42.6768 105.897 42.7007 105.788 42.7268 105.675C42.7382 105.618 42.7507 105.562 42.7633 105.505C42.7758 105.448 42.7883 105.391 42.7997 105.334C42.8281 105.222 42.8554 105.119 42.8861 105.02H42.8736C42.7291 105.215 42.5801 105.41 42.4174 105.617L42.3995 105.639C42.2494 105.825 42.0975 106.013 41.9497 106.182L39.4352 109.059C39.4033 109.101 39.3681 109.132 39.3305 109.154C39.2941 109.179 39.2486 109.207 39.1963 109.215C39.1508 109.227 39.0882 109.236 39.0131 109.244C38.9425 109.252 38.8549 109.255 38.7434 109.255C38.6149 109.255 38.509 109.252 38.4271 109.244C38.3486 109.236 38.2894 109.227 38.2405 109.207C38.1939 109.188 38.1654 109.173 38.1518 109.143C38.1347 109.114 38.1347 109.081 38.1449 109.032L39.2384 103.02C39.2441 102.986 39.2577 102.959 39.2862 102.932C39.3106 102.908 39.35 102.893 39.395 102.875L39.4045 102.871C39.4636 102.855 39.5308 102.841 39.6218 102.835C39.7049 102.829 39.8095 102.824 39.937 102.824C40.0655 102.824 40.1679 102.829 40.2521 102.835C40.3341 102.841 40.4012 102.855 40.4456 102.871C40.4934 102.891 40.5252 102.906 40.5446 102.932C40.5616 102.959 40.5639 102.986 40.5616 103.02L40.0223 105.994L40.0112 106.044C39.9972 106.107 39.9811 106.18 39.9677 106.258C39.9599 106.306 39.9492 106.355 39.9384 106.405L39.9383 106.405C39.9286 106.45 39.9188 106.495 39.9108 106.541C39.8994 106.59 39.8883 106.639 39.8772 106.688C39.8661 106.737 39.855 106.786 39.8437 106.835C39.8383 106.854 39.8332 106.873 39.8282 106.892C39.8239 106.908 39.8196 106.924 39.8155 106.94L39.8154 106.94C39.8006 106.996 39.7864 107.049 39.7709 107.102H39.7834C39.838 107.011 39.9017 106.924 39.9757 106.835C40.009 106.784 40.0462 106.737 40.0841 106.689L40.0841 106.689L40.0842 106.689C40.12 106.643 40.1564 106.597 40.1907 106.547L40.2377 106.49L40.2377 106.49C40.2972 106.418 40.3592 106.342 40.4148 106.274C40.4934 106.182 40.5616 106.099 40.6265 106.02L43.2024 103.041C43.2199 103.027 43.2353 103.012 43.2499 102.997L43.2499 102.997C43.2733 102.974 43.2949 102.953 43.3208 102.939C43.3572 102.906 43.4016 102.88 43.4573 102.864C43.5074 102.855 43.5734 102.841 43.6462 102.829C43.7145 102.824 43.8021 102.824 43.9056 102.824C44.0387 102.824 44.1445 102.829 44.2219 102.835C44.3027 102.841 44.3687 102.855 44.4165 102.871C44.4631 102.891 44.4916 102.906 44.5086 102.932C44.5246 102.959 44.5314 102.986 44.5246 103.02L43.4323 109.056ZM50.1146 109.051C50.1089 109.085 50.0941 109.114 50.069 109.141C50.0463 109.159 50.0053 109.183 49.9564 109.196C49.9029 109.215 49.8347 109.227 49.7459 109.236C49.6617 109.249 49.5593 109.255 49.4387 109.255C49.3067 109.255 49.202 109.249 49.1178 109.236C49.0359 109.227 48.9688 109.215 48.9187 109.196C48.8698 109.183 48.8311 109.159 48.8163 109.141C48.797 109.114 48.7947 109.085 48.797 109.051L49.1975 106.876C49.1252 106.882 49.051 106.889 48.9748 106.897C48.8929 106.905 48.8086 106.913 48.7219 106.92C48.5603 106.93 48.3976 106.938 48.2474 106.938C47.8993 106.938 47.5966 106.909 47.3235 106.852C47.0539 106.795 46.8263 106.711 46.6409 106.597C46.4565 106.475 46.3189 106.319 46.2176 106.131C46.1243 105.935 46.0708 105.702 46.0629 105.427C46.0595 105.334 46.0651 105.241 46.0742 105.132C46.0781 105.105 46.0818 105.078 46.0857 105.049C46.098 104.958 46.1115 104.859 46.1323 104.746L46.4543 103.027C46.4622 102.989 46.4793 102.962 46.4998 102.939C46.5214 102.917 46.5578 102.891 46.6124 102.877C46.653 102.862 46.7048 102.853 46.7679 102.843L46.8138 102.835C46.8957 102.829 46.9981 102.824 47.1222 102.824C47.2541 102.824 47.36 102.829 47.443 102.835L47.4821 102.842L47.4821 102.842C47.5472 102.853 47.5988 102.862 47.6455 102.877C47.6933 102.891 47.732 102.917 47.7457 102.939C47.7718 102.962 47.7809 102.989 47.7741 103.027L47.4703 104.714C47.4516 104.775 47.4449 104.838 47.4375 104.907L47.4339 104.94C47.4327 104.974 47.4309 105.006 47.4293 105.037C47.4264 105.092 47.4237 105.143 47.4237 105.197C47.4305 105.31 47.4487 105.41 47.4897 105.498C47.5272 105.583 47.5841 105.655 47.6615 105.715C47.7411 105.771 47.8424 105.81 47.9687 105.836C48.0904 105.863 48.2383 105.879 48.4147 105.879C48.5717 105.879 48.7367 105.876 48.896 105.863C49.061 105.855 49.2214 105.839 49.3818 105.821L49.8972 103.027C49.8995 102.989 49.9223 102.962 49.9427 102.939C49.9701 102.917 50.0133 102.891 50.069 102.877C50.1136 102.862 50.1703 102.853 50.2398 102.843L50.2886 102.835C50.374 102.829 50.4775 102.824 50.6015 102.824C50.7278 102.824 50.8325 102.829 50.9167 102.835L50.956 102.842C51.0156 102.853 51.0637 102.862 51.1078 102.877C51.1454 102.891 51.1807 102.917 51.1955 102.939C51.2103 102.962 51.2148 102.989 51.2103 103.027L50.1146 109.051ZM57.261 103.038C57.261 103.061 57.261 103.097 57.2542 103.144L57.2533 103.162C57.2514 103.203 57.2491 103.251 57.2383 103.304C57.2315 103.365 57.2201 103.433 57.2042 103.499C57.1922 103.552 57.1744 103.601 57.1583 103.644L57.1473 103.675C57.12 103.733 57.0915 103.782 57.0574 103.816C57.0244 103.846 56.9846 103.864 56.9425 103.864H54.6259L54.3415 105.421H56.3076C56.3508 105.421 56.3895 105.437 56.4077 105.472C56.4305 105.506 56.4407 105.548 56.443 105.612C56.443 105.629 56.443 105.665 56.435 105.715C56.4327 105.764 56.427 105.817 56.4202 105.879C56.4162 105.899 56.4125 105.918 56.4088 105.937L56.4088 105.937C56.4011 105.977 56.3934 106.017 56.3827 106.062C56.3656 106.123 56.3474 106.182 56.3258 106.237C56.3019 106.289 56.2746 106.329 56.2348 106.361C56.2063 106.39 56.171 106.406 56.1289 106.406H54.1651L53.834 108.209H56.187C56.2234 108.209 56.2552 108.229 56.2769 108.265C56.2973 108.297 56.3076 108.344 56.3121 108.411C56.3121 108.419 56.3116 108.428 56.311 108.438L56.3103 108.448C56.3091 108.467 56.3076 108.489 56.3076 108.514C56.3076 108.569 56.3019 108.622 56.2894 108.683C56.2873 108.693 56.2852 108.703 56.2831 108.713C56.2725 108.763 56.2613 108.817 56.2461 108.87C56.2325 108.935 56.2154 108.989 56.1927 109.045C56.1653 109.093 56.1369 109.141 56.1085 109.174C56.0686 109.207 56.0356 109.225 55.9935 109.225H52.7303C52.683 109.225 52.6393 109.217 52.5991 109.209L52.5836 109.207C52.5392 109.183 52.5051 109.159 52.4743 109.125C52.4436 109.085 52.4254 109.051 52.4118 108.998C52.4049 108.952 52.4074 108.902 52.4104 108.843L52.4118 108.814L53.4278 103.263C53.4506 103.115 53.5109 103.006 53.5951 102.945C53.685 102.88 53.7885 102.855 53.9011 102.855H57.1325C57.2155 102.855 57.261 102.917 57.261 103.038ZM63.3391 103.467C63.3414 103.554 63.3278 103.682 63.2993 103.84C63.2686 103.992 63.2299 104.113 63.1878 104.212C63.1412 104.299 63.0866 104.35 63.0217 104.35C62.9864 104.35 62.925 104.322 62.8658 104.269C62.8089 104.212 62.727 104.154 62.6258 104.093C62.5336 104.027 62.4096 103.971 62.2526 103.918C62.1024 103.862 61.9146 103.84 61.6916 103.84C61.447 103.84 61.2183 103.884 61.0135 103.981C60.8132 104.082 60.6335 104.212 60.4753 104.363C60.3206 104.521 60.1829 104.71 60.0703 104.911C59.9542 105.119 59.8586 105.334 59.7801 105.556C59.713 105.782 59.6516 106.006 59.6243 106.228C59.589 106.444 59.5719 106.652 59.5799 106.846C59.581 107.074 59.614 107.278 59.6811 107.454C59.7426 107.626 59.8313 107.766 59.9428 107.883C60.0555 107.997 60.1943 108.089 60.357 108.142C60.5129 108.2 60.7006 108.229 60.8997 108.229C61.1375 108.229 61.3378 108.209 61.5062 108.156C61.67 108.105 61.8191 108.053 61.934 107.992C62.0489 107.932 62.1479 107.878 62.2287 107.83C62.3038 107.78 62.3732 107.76 62.438 107.76C62.4835 107.76 62.5108 107.766 62.5279 107.802C62.5416 107.833 62.5507 107.878 62.5541 107.932C62.5541 107.957 62.5507 107.992 62.545 108.035C62.5437 108.044 62.5423 108.055 62.5409 108.066C62.5363 108.102 62.531 108.145 62.5222 108.188C62.5143 108.246 62.5074 108.312 62.4938 108.38C62.4824 108.447 62.4687 108.511 62.4517 108.569C62.4425 108.604 62.4293 108.641 62.4164 108.677L62.4163 108.677C62.41 108.694 62.4038 108.712 62.3982 108.728C62.3789 108.77 62.3515 108.814 62.314 108.848C62.2742 108.887 62.2048 108.935 62.1024 108.989C61.992 109.048 61.8668 109.101 61.7167 109.147C61.5619 109.196 61.3844 109.236 61.1899 109.276C61.001 109.309 60.7939 109.328 60.5732 109.328C60.2057 109.328 59.8814 109.281 59.581 109.183C59.2852 109.085 59.0372 108.941 58.8278 108.749C58.6207 108.559 58.4569 108.312 58.3385 108.021C58.2225 107.73 58.1565 107.388 58.1531 107.002C58.1463 106.692 58.1667 106.377 58.2248 106.046C58.2817 105.715 58.3727 105.391 58.4887 105.077C58.615 104.763 58.7709 104.465 58.9666 104.177C59.1532 103.901 59.3808 103.651 59.6447 103.439C59.9121 103.229 60.2136 103.067 60.5516 102.939C60.8974 102.813 61.2718 102.748 61.6916 102.748C61.9283 102.748 62.1456 102.774 62.3538 102.824C62.57 102.864 62.7498 102.932 62.9113 103.006C63.0638 103.093 63.173 103.158 63.2356 103.223C63.2993 103.287 63.3335 103.365 63.3391 103.467ZM68.9428 108.977C68.9496 109.032 68.9382 109.081 68.9189 109.114C68.895 109.147 68.8575 109.174 68.804 109.196C68.7539 109.216 68.68 109.23 68.5901 109.236C68.4968 109.249 68.3898 109.255 68.2487 109.255C68.1088 109.255 67.9939 109.249 67.912 109.236C67.8278 109.23 67.7675 109.216 67.7151 109.196C67.6742 109.179 67.6434 109.154 67.6298 109.125C67.6093 109.093 67.5991 109.056 67.59 109.014L67.3123 107.592C67.2714 107.388 67.2236 107.216 67.1656 107.073C67.1109 106.938 67.0404 106.821 66.9517 106.734C66.864 106.65 66.7662 106.586 66.6445 106.547C66.5318 106.513 66.3941 106.496 66.2383 106.496H65.9493L65.4816 109.048C65.4737 109.082 65.4589 109.114 65.4338 109.141C65.4077 109.159 65.3656 109.183 65.3144 109.207C65.2529 109.221 65.1858 109.23 65.105 109.236C65.0117 109.249 64.9093 109.255 64.7807 109.255C64.651 109.255 64.5464 109.249 64.4622 109.236C64.3859 109.23 64.3177 109.221 64.2699 109.207C64.2221 109.183 64.1914 109.159 64.1697 109.141C64.1584 109.114 64.1515 109.082 64.1641 109.048L65.2586 103.027C65.2586 102.989 65.2734 102.959 65.3041 102.932C65.3307 102.908 65.3691 102.893 65.413 102.875L65.4225 102.871C65.4816 102.855 65.5544 102.841 65.6341 102.835C65.7183 102.829 65.8275 102.824 65.9572 102.824C66.0847 102.824 66.1916 102.829 66.2758 102.835C66.3566 102.841 66.4192 102.855 66.4647 102.871C66.5147 102.891 66.5432 102.906 66.5603 102.932C66.5773 102.959 66.583 102.989 66.5773 103.027L66.1347 105.416H66.4328C66.5773 105.416 66.7059 105.4 66.8265 105.357C66.946 105.318 67.0529 105.257 67.1587 105.167C67.2668 105.085 67.3681 104.972 67.4637 104.843C67.5661 104.702 67.6719 104.533 67.7754 104.333L68.4444 103.067L68.4598 103.042C68.4826 103.004 68.5033 102.97 68.5332 102.945C68.565 102.92 68.6094 102.891 68.6709 102.872C68.7289 102.855 68.7983 102.841 68.8882 102.835C68.9781 102.829 69.0964 102.824 69.2409 102.824C69.3695 102.824 69.4787 102.829 69.5595 102.835C69.6403 102.841 69.7097 102.855 69.7495 102.871C69.7893 102.891 69.8212 102.906 69.8348 102.928C69.8485 102.945 69.8565 102.973 69.8565 102.996C69.8565 103.041 69.8451 103.099 69.8178 103.16C69.7893 103.229 69.7461 103.31 69.6778 103.425L69.0406 104.552C68.9257 104.771 68.8142 104.952 68.705 105.096C68.5958 105.247 68.4911 105.376 68.3819 105.479C68.2783 105.583 68.1702 105.665 68.0633 105.739C67.9461 105.802 67.8278 105.859 67.7049 105.897V105.901C67.8266 105.964 67.9313 106.02 68.0269 106.091C68.1168 106.159 68.1964 106.25 68.2715 106.355C68.3398 106.464 68.3989 106.597 68.4547 106.748C68.5104 106.907 68.5628 107.099 68.6106 107.331L68.8996 108.647C68.9156 108.711 68.9267 108.766 68.9364 108.814L68.9382 108.824C68.9428 108.879 68.9428 108.935 68.9428 108.977ZM76.0711 109.056C76.0642 109.085 76.0483 109.117 76.0221 109.143C75.9948 109.167 75.955 109.188 75.9015 109.207C75.8435 109.221 75.7752 109.23 75.6876 109.236C75.6023 109.249 75.4942 109.255 75.3679 109.255C75.2371 109.255 75.1335 109.249 75.0505 109.236C74.9651 109.23 74.9026 109.221 74.8605 109.207C74.8093 109.188 74.782 109.167 74.7672 109.143C74.7512 109.117 74.7467 109.085 74.7512 109.056L75.2462 106.317C75.2554 106.264 75.2644 106.21 75.2735 106.154C75.2812 106.108 75.289 106.06 75.2974 106.012C75.3076 105.958 75.3193 105.905 75.3311 105.852L75.3311 105.852C75.3442 105.793 75.3571 105.735 75.3679 105.675C75.3845 105.596 75.4023 105.517 75.4199 105.438L75.443 105.334C75.4737 105.222 75.501 105.119 75.5238 105.02H75.5192C75.3747 105.215 75.2234 105.41 75.0607 105.617C75.0045 105.685 74.9491 105.753 74.8943 105.82L74.894 105.82C74.7924 105.945 74.6924 106.068 74.5919 106.182L72.0763 109.059C72.0444 109.101 72.0103 109.132 71.9739 109.154L71.9735 109.155C71.9349 109.18 71.8929 109.207 71.8442 109.215C71.7918 109.227 71.727 109.236 71.6621 109.244C71.5882 109.252 71.496 109.255 71.3936 109.255C71.2582 109.255 71.1547 109.252 71.0727 109.244C70.9885 109.236 70.9317 109.227 70.8793 109.207C70.8395 109.188 70.8088 109.173 70.794 109.143C70.7781 109.114 70.7769 109.081 70.7883 109.032L71.884 103.02C71.884 102.986 71.9011 102.959 71.9318 102.932C71.9579 102.906 71.9966 102.891 72.0558 102.871C72.107 102.855 72.1764 102.841 72.264 102.835C72.3482 102.829 72.4529 102.824 72.5826 102.824C72.7089 102.824 72.8136 102.829 72.8978 102.835C72.9763 102.841 73.0445 102.855 73.0889 102.871C73.1344 102.891 73.1674 102.906 73.1879 102.932C73.2038 102.959 73.2072 102.986 73.2038 103.02L72.6645 105.994C72.6572 106.03 72.6499 106.071 72.6421 106.114C72.634 106.159 72.6254 106.208 72.6156 106.258C72.604 106.313 72.5911 106.369 72.578 106.426L72.578 106.426C72.5693 106.464 72.5605 106.502 72.5519 106.541C72.5314 106.638 72.5098 106.737 72.4859 106.835C72.4631 106.93 72.4392 107.017 72.4153 107.102H72.4256C72.4836 107.011 72.5439 106.924 72.6156 106.835C72.6613 106.772 72.7061 106.714 72.753 106.654L72.7535 106.653C72.7662 106.637 72.7791 106.62 72.7921 106.603C72.8062 106.585 72.8205 106.566 72.8352 106.547C72.8846 106.489 72.9325 106.428 72.9793 106.369C73.0048 106.336 73.0299 106.304 73.0548 106.274C73.1344 106.182 73.2038 106.099 73.2664 106.02L75.8435 103.041C75.862 103.026 75.879 103.009 75.8951 102.994C75.9177 102.972 75.9385 102.953 75.9584 102.939C76.0005 102.906 76.0483 102.88 76.0995 102.864C76.1188 102.861 76.1394 102.857 76.1615 102.853C76.1993 102.845 76.2418 102.836 76.2907 102.829C76.3601 102.824 76.4431 102.824 76.5489 102.824C76.6809 102.824 76.7856 102.829 76.8675 102.835C76.9517 102.841 77.0132 102.855 77.061 102.871C77.1099 102.891 77.1372 102.906 77.1554 102.932C77.1668 102.959 77.1713 102.986 77.1668 103.02L76.0711 109.056ZM81.9675 105.94L83.0279 108.717C83.0655 108.843 83.0905 108.935 83.0962 109.003C83.0985 109.081 83.0825 109.132 83.0347 109.167C82.9972 109.207 82.9153 109.227 82.8095 109.236C82.7048 109.249 82.5546 109.255 82.3703 109.255C82.2292 109.255 82.1199 109.252 82.038 109.244C81.9607 109.236 81.8958 109.227 81.8492 109.21C81.8014 109.196 81.7695 109.179 81.7559 109.147C81.7389 109.13 81.7282 109.108 81.717 109.085C81.7142 109.079 81.7114 109.073 81.7084 109.067C81.7058 109.062 81.703 109.056 81.7001 109.051L80.8661 106.737L79.255 109.051L79.2376 109.071C79.2129 109.099 79.188 109.127 79.1594 109.147C79.1298 109.179 79.0843 109.196 79.0217 109.21C78.966 109.227 78.892 109.236 78.7964 109.244C78.7009 109.252 78.578 109.255 78.4278 109.255C78.2514 109.255 78.1104 109.249 78.0114 109.236C77.909 109.227 77.843 109.207 77.8088 109.173C77.7804 109.132 77.7804 109.082 77.8088 109.014C77.8418 108.941 77.8965 108.848 77.9807 108.739L80.0605 105.923L79.09 103.337C79.0536 103.223 79.0286 103.13 79.0217 103.067C79.0172 102.996 79.0365 102.943 79.0786 102.906C79.1298 102.871 79.1992 102.85 79.3096 102.835C79.4131 102.829 79.5622 102.824 79.7465 102.824C79.8899 102.824 80.0071 102.824 80.089 102.829C80.1451 102.837 80.1944 102.847 80.2362 102.855L80.2364 102.855C80.2538 102.859 80.27 102.862 80.2847 102.864C80.3302 102.88 80.3621 102.906 80.3825 102.939C80.4019 102.962 80.4235 103.004 80.4383 103.047L81.1699 105.127L82.6376 103.027C82.6661 102.986 82.6968 102.954 82.7275 102.922L82.7275 102.922C82.7583 102.901 82.7969 102.877 82.8516 102.864C82.8701 102.861 82.89 102.858 82.9116 102.854L82.9119 102.854L82.9121 102.854C82.9552 102.846 83.0046 102.837 83.062 102.829C83.1531 102.824 83.2714 102.824 83.4182 102.824C83.6002 102.824 83.7402 102.829 83.8426 102.835C83.9416 102.85 84.0144 102.871 84.0497 102.906C84.0826 102.943 84.0849 102.996 84.0542 103.067C84.0246 103.13 83.9711 103.223 83.8881 103.337L81.9675 105.94ZM40.207 118.231C40.207 118.157 40.1979 118.063 40.1763 117.943L39.1739 112.301C39.1659 112.233 39.1511 112.186 39.1261 112.148C39.1056 112.112 39.0669 112.087 39.0055 112.068C38.9349 112.051 38.8473 112.04 38.7301 112.04C38.6163 112.031 38.4616 112.026 38.2614 112.026C38.093 112.026 37.953 112.031 37.8483 112.04C37.7437 112.04 37.6583 112.051 37.598 112.068C37.5354 112.087 37.4899 112.112 37.4592 112.145C37.4316 112.176 37.4064 112.215 37.3782 112.258C37.3727 112.266 37.3671 112.275 37.3614 112.283L34.3644 117.94C34.3064 118.052 34.2643 118.145 34.2472 118.213C34.2267 118.28 34.2301 118.334 34.2631 118.375C34.2916 118.411 34.3508 118.435 34.4327 118.449C34.5226 118.455 34.6432 118.457 34.7922 118.457C34.939 118.457 35.0573 118.457 35.1506 118.449C35.2462 118.445 35.3224 118.431 35.3793 118.415C35.4351 118.395 35.4772 118.375 35.5056 118.347C35.5363 118.313 35.5648 118.273 35.5875 118.231L36.2202 116.976H38.6584L38.8724 118.255C38.878 118.3 38.8928 118.338 38.9042 118.361C38.9213 118.392 38.9543 118.411 38.9964 118.425C39.0442 118.438 39.1033 118.449 39.1807 118.455C39.2638 118.457 39.3684 118.457 39.4959 118.457C39.6756 118.457 39.8179 118.455 39.9225 118.449C40.0249 118.438 40.1 118.419 40.1399 118.383C40.1899 118.347 40.207 118.296 40.207 118.231ZM38.0736 113.274H38.0759L38.5242 115.984H36.6946L38.0736 113.274ZM46.4205 112.39C46.4273 112.341 46.4273 112.301 46.4273 112.278C46.4273 112.214 46.4182 112.163 46.3955 112.121C46.3818 112.079 46.3477 112.061 46.2999 112.061H43.2119C43.097 112.061 42.9969 112.092 42.9047 112.161C42.8251 112.224 42.7693 112.333 42.7477 112.468L41.7305 118.261C41.7203 118.296 41.7248 118.327 41.7362 118.347C41.7589 118.375 41.7897 118.392 41.8375 118.411C41.8864 118.427 41.9501 118.438 42.032 118.449C42.1139 118.455 42.2186 118.457 42.3495 118.457C42.4792 118.457 42.5861 118.455 42.6737 118.449C42.7602 118.438 42.8285 118.427 42.8854 118.411C42.9411 118.392 42.9753 118.375 43.0037 118.347C43.0333 118.327 43.0447 118.296 43.0538 118.261L43.9549 113.122H46.1042C46.1497 113.122 46.1895 113.103 46.218 113.066C46.2498 113.032 46.2771 112.993 46.301 112.934C46.3306 112.881 46.3477 112.819 46.3659 112.751C46.3818 112.68 46.3955 112.612 46.4034 112.555C46.4137 112.494 46.4205 112.442 46.4205 112.39ZM51.7056 112.348C51.7135 112.301 51.7135 112.264 51.7135 112.248C51.7135 112.121 51.6612 112.061 51.5793 112.061H48.3491C48.2341 112.061 48.1386 112.092 48.0464 112.161C47.9565 112.216 47.8996 112.32 47.8735 112.468L46.895 118.021C46.8847 118.094 46.8847 118.155 46.895 118.207C46.9052 118.255 46.9257 118.296 46.9587 118.332C46.9826 118.364 47.0235 118.392 47.0679 118.406C47.1157 118.425 47.1612 118.427 47.2147 118.427H50.4722C50.5177 118.427 50.5598 118.411 50.586 118.383C50.6212 118.347 50.6497 118.3 50.6724 118.25C50.6997 118.193 50.7145 118.136 50.7293 118.075C50.7453 118.01 50.7578 117.951 50.7714 117.89C50.7771 117.831 50.7828 117.773 50.7828 117.726C50.7873 117.676 50.7873 117.638 50.7873 117.615C50.7828 117.548 50.7748 117.506 50.7544 117.464C50.735 117.432 50.7032 117.415 50.6611 117.415H48.3138L48.6335 115.619H50.5939C50.636 115.619 50.6758 115.603 50.7043 115.568C50.7407 115.534 50.7703 115.49 50.7873 115.441C50.8135 115.389 50.8329 115.33 50.8477 115.266C50.8636 115.203 50.8727 115.142 50.8806 115.082C50.8833 115.063 50.8861 115.046 50.8888 115.03C50.8952 114.99 50.901 114.955 50.9034 114.919V114.814C50.9034 114.754 50.892 114.713 50.8727 114.678C50.8522 114.645 50.8181 114.626 50.7714 114.626H48.8008L49.0818 113.066H51.3983C51.4382 113.066 51.4769 113.057 51.5098 113.015C51.5394 112.981 51.5713 112.937 51.5963 112.884C51.6214 112.823 51.643 112.768 51.6532 112.706C51.6726 112.64 51.6839 112.577 51.6885 112.516C51.6999 112.454 51.7033 112.399 51.7056 112.348ZM57.5754 118.347C57.5993 118.322 57.613 118.292 57.6209 118.255L58.6848 112.23C58.6859 112.201 58.6848 112.167 58.6654 112.143C58.6541 112.112 58.6211 112.092 58.5756 112.079C58.5198 112.061 58.4572 112.05 58.3753 112.04C58.2911 112.031 58.1876 112.026 58.0579 112.026C57.9316 112.026 57.8235 112.031 57.7393 112.04C57.6528 112.05 57.5823 112.061 57.5288 112.079C57.4742 112.092 57.4332 112.112 57.4093 112.143C57.382 112.167 57.3649 112.201 57.3615 112.23L56.9565 114.569H54.5216L54.9346 112.23C54.9403 112.201 54.9346 112.167 54.9153 112.143C54.9016 112.112 54.8698 112.092 54.8265 112.079C54.7776 112.061 54.7105 112.05 54.6263 112.04C54.5421 112.031 54.4363 112.026 54.3111 112.026C54.1837 112.026 54.0767 112.031 53.9891 112.04C53.9049 112.05 53.8344 112.061 53.7809 112.079C53.7251 112.092 53.6853 112.112 53.6603 112.143C53.6364 112.167 53.6182 112.201 53.6148 112.23L52.5543 118.255C52.5475 118.292 52.5532 118.322 52.5669 118.347C52.5873 118.375 52.6181 118.392 52.6658 118.411C52.7114 118.427 52.7808 118.438 52.8581 118.449C52.9412 118.455 53.0493 118.457 53.1756 118.457C53.3076 118.457 53.41 118.455 53.4976 118.449C53.584 118.438 53.6489 118.427 53.7081 118.411C53.7638 118.392 53.8025 118.375 53.8253 118.347C53.8571 118.322 53.8685 118.292 53.8765 118.255L54.3248 115.679H56.7539L56.3068 118.255C56.2977 118.292 56.3011 118.322 56.3125 118.347C56.3375 118.375 56.366 118.392 56.4126 118.411C56.4604 118.427 56.5252 118.438 56.6083 118.449C56.6891 118.455 56.796 118.457 56.9223 118.457C57.0475 118.457 57.1545 118.455 57.2443 118.449C57.3308 118.438 57.4014 118.427 57.4548 118.411C57.5083 118.392 57.5459 118.375 57.5754 118.347ZM65.078 112.312C65.0793 112.292 65.0803 112.277 65.0803 112.264C65.0769 112.201 65.0655 112.145 65.0439 112.111C65.0177 112.076 64.9916 112.061 64.9506 112.061H60.3721C60.3278 112.061 60.2982 112.076 60.2629 112.107L60.2558 112.116C60.2292 112.152 60.2003 112.191 60.1742 112.248C60.1525 112.301 60.1298 112.362 60.1139 112.428C60.0956 112.494 60.0877 112.561 60.0797 112.624C60.0649 112.688 60.057 112.747 60.0558 112.799C60.0513 112.85 60.0513 112.889 60.0513 112.916L60.0517 112.921C60.056 112.98 60.0599 113.032 60.082 113.061C60.0991 113.099 60.1321 113.119 60.1867 113.119H61.8023L60.9023 118.25C60.8967 118.287 60.9023 118.313 60.9149 118.338C60.9319 118.364 60.9626 118.389 61.0104 118.403C61.0525 118.425 61.1162 118.435 61.2027 118.449C61.2824 118.455 61.3916 118.457 61.5179 118.457C61.6521 118.457 61.758 118.455 61.8387 118.449C61.9286 118.435 61.9946 118.425 62.0492 118.403C62.1039 118.389 62.146 118.364 62.1733 118.338C62.1994 118.313 62.2154 118.287 62.2279 118.25L63.1256 113.119H64.7583C64.7959 113.119 64.8346 113.099 64.8687 113.061C64.8994 113.031 64.9313 112.981 64.9552 112.926C64.9779 112.867 64.9961 112.808 65.0121 112.743C65.0337 112.672 65.0439 112.611 65.0542 112.544C65.0655 112.485 65.0735 112.424 65.0746 112.371C65.0757 112.347 65.077 112.328 65.078 112.312ZM70.5645 113.043C70.5907 112.889 70.6066 112.765 70.6032 112.672C70.6032 112.577 70.5645 112.49 70.4996 112.428C70.4371 112.368 70.3278 112.294 70.1674 112.216C70.0127 112.137 69.8238 112.07 69.6179 112.026C69.4074 111.976 69.1844 111.952 68.95 111.952C68.5324 111.952 68.1546 112.014 67.8156 112.143C67.4754 112.266 67.175 112.434 66.9122 112.643C66.6448 112.862 66.4172 113.103 66.2272 113.386C66.0406 113.669 65.8882 113.97 65.7664 114.281C65.6458 114.596 65.5548 114.919 65.5047 115.248C65.449 115.581 65.4285 115.896 65.4399 116.199C65.4456 116.593 65.5127 116.935 65.6288 117.233C65.7471 117.522 65.9132 117.761 66.1214 117.956C66.333 118.152 66.5834 118.296 66.8758 118.392C67.175 118.478 67.5061 118.534 67.8679 118.534C68.0887 118.534 68.298 118.517 68.4914 118.478C68.6814 118.449 68.8544 118.403 69.0069 118.358C69.1571 118.302 69.2845 118.25 69.3983 118.193C69.4984 118.138 69.5701 118.091 69.6099 118.054C69.6406 118.021 69.6691 117.979 69.6941 117.927C69.6972 117.919 69.7004 117.91 69.7038 117.9C69.7176 117.862 69.7329 117.82 69.743 117.773C69.7601 117.713 69.7726 117.652 69.7874 117.584C69.7923 117.546 69.7984 117.506 69.8043 117.469C69.808 117.445 69.8116 117.422 69.8147 117.4C69.8172 117.379 69.8198 117.359 69.8224 117.339C69.827 117.304 69.8315 117.271 69.8352 117.244C69.8454 117.202 69.8454 117.165 69.8454 117.139C69.8454 117.084 69.8295 117.037 69.8181 117.006C69.7988 116.976 69.7726 116.958 69.7305 116.958C69.6622 116.958 69.5928 116.984 69.5143 117.037C69.4592 117.071 69.391 117.109 69.3148 117.151C69.2857 117.168 69.2553 117.184 69.2242 117.202C69.1036 117.255 68.9625 117.31 68.7941 117.361C68.628 117.408 68.4243 117.434 68.1876 117.434C67.9851 117.434 67.8076 117.407 67.6438 117.347C67.4868 117.294 67.3457 117.204 67.2273 117.091C67.1158 116.976 67.0282 116.829 66.9668 116.656C66.9019 116.482 66.8678 116.283 66.861 116.051C66.8542 115.861 66.8678 115.653 66.9019 115.435C66.9349 115.211 66.9861 114.991 67.059 114.761C67.1272 114.543 67.2228 114.327 67.3457 114.118C67.4549 113.915 67.5903 113.733 67.7439 113.572C67.9032 113.413 68.0807 113.284 68.2855 113.189C68.4835 113.091 68.7053 113.043 68.9568 113.043C69.1798 113.043 69.3675 113.066 69.5143 113.122C69.6691 113.18 69.7953 113.236 69.8943 113.299C69.9945 113.366 70.0752 113.417 70.1333 113.474C70.1959 113.529 70.2539 113.552 70.296 113.552C70.354 113.552 70.4075 113.511 70.4553 113.417C70.4996 113.324 70.5383 113.195 70.5645 113.043ZM76.6546 112.298C76.6555 112.285 76.6563 112.274 76.6563 112.264C76.6517 112.201 76.638 112.145 76.6176 112.111C76.5891 112.076 76.5641 112.061 76.5243 112.061H71.9492C71.9071 112.061 71.8684 112.076 71.8388 112.107C71.8081 112.145 71.7774 112.186 71.7535 112.248C71.7273 112.301 71.7046 112.362 71.6932 112.428C71.6756 112.485 71.6656 112.542 71.6559 112.597C71.6543 112.606 71.6527 112.615 71.6511 112.624C71.6402 112.675 71.6366 112.723 71.6332 112.767C71.6324 112.778 71.6315 112.788 71.6306 112.799C71.6261 112.85 71.6261 112.889 71.6261 112.916C71.6261 112.977 71.6374 113.031 71.6625 113.061C71.6727 113.099 71.7125 113.119 71.7615 113.119H73.3794L72.4817 118.25C72.4703 118.287 72.476 118.313 72.4874 118.338C72.5101 118.364 72.5408 118.389 72.5841 118.403C72.6285 118.425 72.6922 118.435 72.7775 118.449C72.8617 118.455 72.9687 118.457 73.095 118.457C73.2224 118.457 73.3316 118.455 73.4158 118.449C73.5034 118.435 73.5705 118.425 73.6286 118.403C73.6832 118.389 73.7207 118.364 73.7492 118.338C73.7788 118.313 73.7936 118.287 73.8015 118.25L74.7038 113.119H76.3331C76.3729 113.119 76.4116 113.099 76.4435 113.061C76.4799 113.031 76.5083 112.981 76.5334 112.926C76.5561 112.867 76.5732 112.808 76.5891 112.743C76.6059 112.682 76.6149 112.628 76.6244 112.571C76.6259 112.562 76.6274 112.553 76.6289 112.544C76.638 112.485 76.646 112.424 76.6517 112.371C76.6517 112.34 76.6533 112.317 76.6546 112.298ZM82.1552 113.904C82.2042 113.736 82.2292 113.552 82.2224 113.355C82.2155 113.133 82.1666 112.942 82.0744 112.777C81.9834 112.612 81.8492 112.484 81.6774 112.371C81.5021 112.266 81.2882 112.186 81.0379 112.137C80.7842 112.082 80.4895 112.061 80.1459 112.061H78.5826C78.4642 112.061 78.3527 112.092 78.2651 112.161C78.1752 112.216 78.1161 112.32 78.099 112.468L77.1159 118.021C77.0886 118.157 77.1102 118.265 77.1717 118.332C77.2365 118.395 77.3389 118.427 77.4732 118.427H79.2755C79.6453 118.427 79.965 118.395 80.2437 118.332C80.5202 118.273 80.7626 118.181 80.9731 118.069C81.1779 117.962 81.3565 117.831 81.5021 117.69C81.6512 117.542 81.765 117.39 81.8549 117.233C81.947 117.067 82.0096 116.902 82.0517 116.738C82.0892 116.563 82.1052 116.403 82.0972 116.247C82.0938 116.071 82.0653 115.91 82.0176 115.772C81.9618 115.632 81.8901 115.512 81.7957 115.41C81.7058 115.309 81.5977 115.224 81.4726 115.161C81.3451 115.096 81.2109 115.052 81.0652 115.02C81.2461 114.959 81.41 114.87 81.5556 114.754C81.7001 114.647 81.823 114.522 81.9277 114.379C82.0312 114.234 82.1018 114.079 82.1552 113.904ZM80.8069 113.355C80.849 113.427 80.8661 113.506 80.8661 113.601C80.8695 113.712 80.8547 113.843 80.8149 113.97C80.7728 114.098 80.7114 114.213 80.6238 114.322C80.5373 114.429 80.419 114.513 80.2824 114.578C80.1345 114.647 79.9525 114.681 79.7374 114.681H78.999L79.2948 113.031H80.0082C80.1641 113.031 80.2972 113.037 80.4007 113.066C80.5032 113.091 80.5851 113.13 80.6556 113.18C80.7262 113.231 80.7728 113.292 80.8069 113.355ZM80.469 115.806C80.6317 115.928 80.7125 116.097 80.7227 116.308C80.733 116.447 80.7034 116.588 80.6624 116.72C80.6146 116.855 80.5396 116.981 80.4383 117.084C80.3325 117.188 80.1993 117.276 80.0435 117.343C79.8808 117.407 79.676 117.438 79.4416 117.438H78.5097L78.8306 115.631H79.7067C80.048 115.631 80.3063 115.686 80.469 115.806Z" fill="#005BAB"/>
<path fill-rule="evenodd" clip-rule="evenodd" d="M43.4564 77.9302C43.4735 77.8316 43.527 77.5256 43.6191 77.0065L44.8013 70.4298C45.1062 68.6799 45.6353 67.4967 46.3874 66.8983C47.1361 66.2942 48.4479 65.9905 50.3253 65.9905H57.9645C59.4538 65.9905 60.5234 66.1866 61.1537 66.5776C61.7806 66.9663 62.0969 67.6826 62.0969 68.7252C62.0969 69.1242 62.0412 69.6863 61.9183 70.3969L60.7429 76.9725C60.4335 78.6521 59.9328 79.7605 59.2411 80.3068C58.5561 80.8553 57.2579 81.1296 55.3555 81.1296H47.5104C46.0096 81.1296 44.956 80.9415 44.3519 80.5743C43.7466 80.2071 43.4416 79.5418 43.4416 78.5694C43.4416 78.2362 43.4496 78.0231 43.4564 77.9302ZM63.4566 84.1669C64.9516 82.9191 65.9859 80.7363 66.5571 77.6117L67.9122 69.8631C68.1261 68.6799 68.2331 67.6622 68.2331 66.8065C68.2331 64.6509 67.5902 63.1356 66.3079 62.263C65.1405 61.4753 63.2154 61.0854 60.5245 61.0854H49.6483C46.2008 61.0854 43.7033 61.711 42.1616 62.9532C40.6131 64.193 39.5424 66.5016 38.9473 69.8631L37.5933 77.6117C37.4272 78.532 37.343 79.4194 37.343 80.2694C37.343 82.2878 37.9654 83.7521 39.2136 84.6656C40.4629 85.5722 42.4677 86.029 45.2245 86.029H56.1053C59.505 86.029 61.957 85.409 63.4566 84.1669ZM7.40638 61.2313L3.06683 85.8292H8.97199L12.4593 66.1239H27.7263L24.2401 85.8292H30.1521L34.4905 61.2313H7.40638ZM200.636 85.8295L204.974 61.2316H179.283L176.649 76.2279C176.317 78.0696 175.862 79.3174 175.277 79.9656C174.699 80.6162 173.669 80.9392 172.199 80.9392L171.347 85.8295L173.839 85.8363C176.138 85.8363 178.005 85.1166 179.446 83.6875C180.879 82.2572 181.87 79.9962 182.413 76.9L184.336 66.1231H198.215L194.728 85.8295H200.636ZM70.6028 85.8292L74.9424 61.2313H100.174L99.3606 65.8746H80.034L79.0714 71.2613H97.7893L97.0429 75.551H78.3251L77.3261 81.1904H96.6515L95.83 85.8292H70.6028ZM119.495 70.1997L113.025 61.2316H105.018L114.302 73.1792L99.288 85.8295H107.968L118.436 76.118L125.478 85.8295H134.161L123.628 73.1792L137.115 61.2316H129.11L119.495 70.1997ZM238.25 85.8292H232.342L235.826 66.1239H235.008L216.681 85.8292H206.541L210.881 61.2313H216.793L213.303 80.94H214.123L232.659 61.2313H242.59L238.25 85.8292ZM142.951 85.9741H136.031L153.509 61.3207H162.291L170.953 85.9741H164L161.93 79.7601H147.269L142.951 85.9741ZM150.478 75.102H160.365L157.253 65.9391H156.971L150.478 75.102ZM123.148 109.8H117.208C116.968 111.264 116.473 112.231 115.711 112.705C114.955 113.179 113.66 113.416 111.831 113.416H104.254C102.757 113.416 101.695 113.226 101.069 112.849C100.438 112.467 100.126 111.735 100.126 110.65V110.201C100.126 110.025 100.182 109.607 100.303 108.945L101.374 102.856C101.702 100.937 102.223 99.7004 102.917 99.1496C103.618 98.5909 104.969 98.3075 106.959 98.3075H114.539C116.009 98.3075 117.07 98.5331 117.723 98.9671C118.374 99.4035 118.704 100.107 118.704 101.08L118.593 102.001H124.503C124.664 101.106 124.752 100.242 124.752 99.4148C124.752 97.1674 124.004 95.5705 122.507 94.6287C121.228 93.8252 119.236 93.4263 116.53 93.4263H106.706C103.031 93.4263 100.402 94.0643 98.8257 95.354C97.2487 96.6404 96.1417 99.0703 95.4977 102.639L94.2507 109.619C94.0413 110.826 93.9321 111.888 93.9321 112.812C93.9321 114.837 94.5294 116.267 95.7116 117.08C96.8994 117.898 98.9042 118.303 101.727 118.303H112.72C116.307 118.303 118.789 117.723 120.176 116.551C121.563 115.38 122.557 113.128 123.148 109.8ZM269.422 118.303H275.329L279.668 93.7016H269.74L251.204 113.416H250.381L253.873 93.7016H247.961L243.622 118.303H253.762L272.093 98.5965H272.909L269.422 118.303ZM280.247 109.448L283.022 93.7011H288.925L286.153 109.448H280.247ZM279.713 112.421L278.68 118.303H284.586L285.62 112.421H279.713ZM244.024 93.7015L239.685 118.303H233.777L237.264 98.5964H236.484L224.523 118.303H216.124L211.144 98.5964H210.361L206.588 118.303H200.965L205.309 93.7015H216.304L221.002 113.417H221.352L233.028 93.7015H244.024ZM144.086 103.129L145.761 93.7015H139.848L135.507 118.303H141.418L143.228 108.029H157.595L155.781 118.303H161.689L166.033 93.7015H160.125L158.451 103.129H144.086ZM171.023 118.303H164.099L181.58 93.6438H190.354L199.02 118.303H192.067L189.997 112.088H175.334L171.023 118.303ZM178.545 107.43H188.425L185.323 98.2656H185.038L178.545 107.43Z" fill="#F26327"/>
<path fill-rule="evenodd" clip-rule="evenodd" d="M215.195 13.1362L213.481 13.6394C213.028 20.3782 212.439 26.4756 210.897 31.01C209.264 35.8223 206.759 39.0502 204.771 41.611C204.38 42.1139 204.01 42.5911 203.67 43.0494C205.601 43.4586 208.536 43.0914 210.23 41.822C214.57 35.3666 214.934 30.474 214.91 21.9796C214.91 21.958 214.908 21.8817 214.903 21.7592C214.863 20.6312 214.686 15.5826 215.195 13.1362ZM243.588 16.9551L241.599 16.844C238.592 23.7653 235.698 29.9601 232.379 34.1636C228.858 38.6196 225.008 41.0831 221.954 43.0372C221.36 43.4176 220.796 43.7786 220.27 44.1313C222.154 45.2782 225.374 45.9854 227.635 45.2839C234.612 40.0978 236.824 35.0873 239.979 26.1498C239.988 26.1251 240.018 26.03 240.067 25.8765C240.471 24.602 242.15 19.3069 243.588 16.9551Z" fill="#F26327"/>
<path fill-rule="evenodd" clip-rule="evenodd" d="M12.3502 54.4588C29.7505 44.8368 46.046 34.9848 64.9414 28.408C89.3118 19.9194 113.523 15.8348 138.015 18.199C189.155 23.1358 219.076 51.6074 287.667 57.2151C228.168 63.2705 177.638 25.6869 118.993 24.515C96.3434 24.0662 74.8095 27.5025 55.2019 35.1242C40.5402 40.818 27.0551 48.6414 12.3502 54.4588Z" fill="#005BAB"/>
<path fill-rule="evenodd" clip-rule="evenodd" d="M217.024 21.1044C218.501 20.778 218.475 18.6836 218.475 18.6836C219.493 19.2069 219.164 18.4904 218.775 17.6438C218.553 17.161 218.312 16.6359 218.29 16.2741C218.348 15.9293 218.608 16.2187 218.892 16.5362C219.204 16.8846 219.547 17.2669 219.687 16.8827C219.773 16.6561 219.728 16.2848 219.688 15.9479C219.661 15.7221 219.635 15.5118 219.652 15.3708C219.669 15.2264 219.786 15.2633 219.887 15.2954C220.039 15.3433 220.157 15.3804 219.855 14.7849C218.946 12.9795 218.992 12.2054 219.446 12.0989C219.631 12.0592 219.881 12.1216 220.161 12.2757C220.267 12.3321 220.274 12.5225 220.282 12.7264C220.29 12.9368 220.298 13.1615 220.417 13.2685C220.528 13.3688 220.733 13.3708 220.944 13.3727C221.186 13.375 221.435 13.3773 221.555 13.528C221.625 13.6219 221.639 13.9065 221.653 14.1825C221.67 14.5493 221.687 14.901 221.837 14.769C222.43 14.2586 222.378 14.8462 222.32 15.5046C222.271 16.0624 222.218 16.6711 222.548 16.7059C222.671 16.5518 222.977 16.3342 223.319 16.0984C223.371 16.065 223.397 16.0817 223.424 16.0983C223.476 16.1317 223.529 16.1647 223.786 15.7834C223.906 15.6078 223.97 15.1828 224.024 14.8188C224.067 14.5366 224.104 14.2912 224.157 14.2273C224.216 14.1539 224.329 14.2436 224.449 14.3383C224.607 14.463 224.775 14.5964 224.846 14.378C225.003 13.8843 224.741 13.0088 224.5 12.2018C224.267 11.4192 224.052 10.7011 224.257 10.4578C224.485 10.1889 224.776 10.2823 225.176 10.4108C225.435 10.4939 225.74 10.5918 226.103 10.6154C226.251 10.4364 226.136 10.0755 226.04 9.77249C226.006 9.66477 225.974 9.56437 225.957 9.48205C225.888 9.16811 225.646 8.44391 224.957 8.47565L225.516 7.96111L224.422 7.70045C224.648 7.03286 223.947 6.99629 223.337 6.9645C223.128 6.9536 222.93 6.94326 222.783 6.90825L222.519 6.34612L223.462 6.51952L223.319 5.91545L224.045 5.74885L225.194 5.49158L223.748 4.47952L222.562 4.61892L222.39 4.31972L221.135 4.79005C221.046 4.70923 220.958 4.62783 220.869 4.54622C220.707 4.39782 220.544 4.24869 220.381 4.10098C220.067 4.28938 219.734 4.36633 219.401 4.44323C218.739 4.59626 218.077 4.74912 217.565 5.77945C217.495 5.74933 217.425 5.71928 217.354 5.68922C217.124 5.59143 216.895 5.49353 216.67 5.39298C216.277 5.60612 215.889 5.82246 215.502 6.03864C215.374 6.10983 215.247 6.18101 215.119 6.25205C215.596 5.53827 215.353 5.14663 215.109 4.75311C214.985 4.5543 214.862 4.355 214.83 4.11345C214.782 4.23942 214.749 4.33268 214.71 4.44279C214.673 4.54667 214.63 4.66555 214.565 4.84105C214.217 4.44109 213.871 4.03872 213.525 3.63665C213.46 3.56134 213.395 3.48605 213.331 3.41078C213.077 3.63111 212.826 3.8457 212.573 4.0622C212.488 4.13413 212.404 4.20628 212.319 4.27892C212.282 4.06543 212.347 3.83078 212.411 3.5965C212.477 3.35817 212.542 3.12021 212.501 2.90532C212.486 2.80554 212.364 2.72959 212.242 2.65348C212.12 2.57744 211.998 2.50124 211.981 2.40098C211.955 1.88192 211.93 1.36512 211.906 0.844916C211.812 0.978283 211.674 1.06278 211.536 1.1472C211.261 1.31602 210.986 1.48452 211.063 2.04285C210.972 1.94759 210.881 1.85249 210.79 1.75749C210.343 1.28962 209.898 0.824074 209.454 0.353049C208.68 -0.0881088 208.344 -0.0184741 208.008 0.0512281C207.841 0.0859206 207.673 0.12063 207.452 0.0923825C207.463 0.513599 207.668 0.854291 207.856 1.16651C208.21 1.754 208.503 2.24068 207.328 2.97332C207.128 4.03 207.538 4.27826 207.917 4.50741C208.285 4.7295 208.623 4.93364 208.346 5.83838C208.114 6.59586 207.225 6.94162 206.347 7.28298C205.535 7.59894 204.733 7.91112 204.469 8.54251C204.386 8.74244 204.198 8.99517 203.982 9.28546C203.49 9.94797 202.851 10.8061 202.981 11.6784C203.026 11.9616 203.704 12.1322 204.43 12.3149C205.636 12.6186 206.976 12.956 205.772 13.8998C205.878 14.241 205.391 15.3569 204.903 16.4753C204.397 17.6341 203.891 18.7956 204.04 19.1006C204.257 19.5294 205.168 18.8349 206.04 18.1713C206.783 17.6052 207.496 17.0616 207.724 17.2567C207.945 17.4464 208.081 17.7501 208.199 18.0119C208.432 18.532 208.592 18.8868 209.199 17.854C210.611 16.6929 210.915 16.6978 211.31 16.7042C211.619 16.7092 211.983 16.715 212.979 16.1619C212.579 16.9967 213.231 16.7431 213.824 16.5125C214.368 16.3013 214.861 16.1094 214.452 16.7898C214.084 17.4012 214.727 17.8746 215.351 18.3342C215.958 18.781 216.547 19.2149 216.173 19.75C215.812 20.259 216.23 20.3672 216.63 20.4705C217.013 20.5696 217.379 20.6643 217.024 21.1044ZM236.75 15.4968C236.957 15.73 237.163 15.9619 236.857 16.1994C238.09 15.4888 238.968 16.6188 239.068 17.4642C238.996 17.7762 238.221 18.6411 237.464 19.486C236.766 20.2649 236.084 21.0269 235.981 21.3232C235.885 21.5986 236.093 21.5333 236.294 21.4704C236.484 21.4107 236.667 21.3532 236.575 21.593C236.413 22.0284 236.227 22.4683 236.054 22.8798C235.362 24.5216 234.862 25.7103 236.788 24.3492C237.799 23.6341 238.391 22.4804 238.561 21.7324C238.816 21.5207 239.044 21.6442 239.287 21.7755C239.568 21.9275 239.869 22.0901 240.252 21.755C240.386 21.6396 240.488 21.1204 240.592 20.5897C240.7 20.0368 240.811 19.4712 240.963 19.3365C241.173 19.1511 241.422 19.3466 241.68 19.5487C241.956 19.7654 242.243 19.9896 242.499 19.7604C243.124 19.1914 244.415 18.8548 244.614 19.7604C244.65 19.93 244.459 20.298 244.257 20.6856C244.042 21.0982 243.816 21.533 243.84 21.7743C243.86 21.9888 244.169 22.1574 244.486 22.3305C244.824 22.5151 245.172 22.7048 245.19 22.9609C245.207 23.2107 244.918 23.5232 244.63 23.8352C244.339 24.1502 244.048 24.4648 244.073 24.7142C244.113 25.1987 244.515 25.395 244.894 25.5802C245.196 25.7282 245.485 25.8692 245.563 26.1444C245.134 27.1282 245.095 28.4213 245.822 27.9895C246.167 27.7862 246.516 27.5734 246.863 27.3616L247.018 27.2676C247.21 27.1509 247.355 26.6463 247.501 26.142C247.645 25.6421 247.79 25.1426 247.979 25.0213C248.168 24.8989 248.402 25.1553 248.637 25.4128C248.874 25.6727 249.112 25.9337 249.306 25.8067C249.633 25.5857 250.078 24.5564 250.469 23.6546C250.701 23.1179 250.914 22.6263 251.07 22.3772C251.285 22.038 251.4 22.1133 251.509 22.1847C251.623 22.259 251.731 22.3292 251.937 21.9228C252.104 21.5916 251.868 20.9427 251.636 20.3027C251.402 19.6591 251.172 19.0245 251.357 18.7313C251.557 18.4112 252.254 18.5003 252.924 18.586L252.97 18.5919C253.247 18.6272 252.993 18.3895 252.72 18.1337C252.476 17.9051 252.216 17.662 252.306 17.5866C252.726 17.2478 253.386 17.0347 253.831 17.318C254.622 17.8186 254.798 17.4223 254.917 17.1549C254.984 17.0039 255.033 16.894 255.164 17.0098C255.98 17.7362 256.811 17.8994 257.197 17.5368C256.666 16.8202 255.779 16.1272 254.591 15.1991C254.259 14.9397 253.904 14.6619 253.526 14.36C253.344 14.2177 253.457 14.1128 253.569 14.0084C253.68 13.9051 253.79 13.8023 253.613 13.6642C253.578 13.636 253.542 13.6065 253.504 13.5758C252.917 13.101 251.989 12.3503 250.662 12.2056C250.361 11.9611 250.388 11.7594 250.413 11.5758C250.438 11.3883 250.461 11.2197 250.128 11.0439C249.104 10.4976 248.011 10.2313 246.801 10.5702C246.146 10.756 249 9.02769 249.462 8.96423C249.618 8.94462 249.793 8.93443 249.968 8.92421C250.147 8.91375 250.326 8.90326 250.488 8.88263C250.87 8.89268 250.924 8.88043 251.233 8.81024C251.272 8.80133 251.315 8.79148 251.364 8.78063C251.204 8.67179 251.197 8.6612 251.188 8.65652C251.178 8.65145 251.164 8.6533 250.949 8.54489C250.936 8.52805 250.915 8.50925 250.895 8.49096C250.822 8.42561 250.757 8.36681 251.098 8.42703C251.261 8.48936 251.399 8.44403 251.453 8.36356C251.453 8.36356 251.301 8.13349 251.035 8.03263C251.137 7.76321 250.978 7.82812 250.614 7.97678C250.541 8.00634 250.461 8.03921 250.373 8.07343C250.255 8.11659 250.291 8.03674 250.349 7.9114C250.391 7.8195 250.445 7.70316 250.457 7.59289C250.397 7.57577 250.327 7.62633 250.249 7.68359C250.155 7.75142 250.049 7.82864 249.93 7.81389C250.028 7.48121 250.01 7.45348 249.886 7.25817C249.871 7.23458 249.855 7.20854 249.837 7.17923C249.578 7.36169 249.191 7.37983 249.137 7.34923C248.94 7.2332 248.905 7.10629 248.87 6.97823C248.833 6.84486 248.796 6.71024 248.575 6.58536C248.368 6.46743 248.187 6.77787 248.008 7.08388C247.835 7.38074 247.664 7.67342 247.475 7.56683C247.275 7.44972 247.056 6.87238 246.849 6.3254C246.664 5.83487 246.487 5.36877 246.342 5.28089C245.984 5.05652 245.647 5.54169 245.435 5.84686C245.329 5.9995 245.255 6.10711 245.224 6.05836C245.022 5.719 244.971 5.37679 244.926 5.07231C244.914 4.99242 244.902 4.91512 244.889 4.84116C244.835 4.56576 243.286 4.61903 242.513 6.57629C242.386 6.56496 242.423 6.27729 242.469 5.91883C242.542 5.34538 242.639 4.59078 242.124 4.49663C241.111 4.95336 240.932 4.18076 240.784 3.53918C240.701 3.18098 240.628 2.86362 240.424 2.82383C240.01 2.74676 239.168 4.70969 239.149 6.18643C239.134 6.95466 239.342 7.59211 239.484 8.02843C239.616 8.43532 239.691 8.66729 239.477 8.66729C239.277 8.66729 238.911 8.21396 238.464 7.58043L238.437 7.54247C238.1 7.05636 237.701 6.48115 237.603 7.30616C236.834 6.13316 235.726 5.59029 235.419 5.65489C235.041 5.11316 232.677 3.91749 231.506 5.45543C232.471 5.78863 234.006 6.57969 232.866 7.06249C234.019 7.96654 234.516 8.08076 234.513 8.17955C234.51 8.25612 234.207 8.32342 233.677 8.74209C234.147 9.60559 234.577 10.1432 234.902 10.551C235.135 10.8422 235.315 11.0673 235.419 11.2978C235.113 11.0042 234.675 10.9521 234.225 11.0246C234.126 11.0337 234.155 11.1221 234.185 11.2105C234.222 11.2966 234.255 11.3918 234.152 11.4258C233.85 11.536 233.447 11.6237 233.091 11.7013C232.688 11.789 232.345 11.8638 232.271 11.9438C232.137 12.0883 232.194 12.1311 232.251 12.1737C232.308 12.2163 232.365 12.2588 232.231 12.4028C230.699 12.94 230.579 14.4938 230.881 14.4031C231.236 14.2943 231.362 14.2116 231.471 14.14C231.59 14.0616 231.689 13.9965 232.045 13.9248C232.175 13.9021 232.239 14.0168 232.304 14.1331C232.401 14.3066 232.5 14.4834 232.821 14.2127C232.987 14.1855 233.097 14.273 233.207 14.3606C233.309 14.4411 233.41 14.5218 233.555 14.5142C233.741 14.5068 233.929 14.4954 234.117 14.4839C235.035 14.4281 235.966 14.3716 236.644 14.7805C236.331 15.0252 236.541 15.2617 236.75 15.4968Z" fill="#23923C"/>
</svg>
