<svg width="71" height="85" viewBox="0 0 71 85" fill="none" xmlns="http://www.w3.org/2000/svg">
<g clip-path="url(#clip0_259_19418)">
<path d="M4.70508 85.0001C4.34554 84.8717 3.98156 84.7544 3.62424 84.6171C1.36714 83.7472 0.0111048 81.7041 0.00666601 79.0833C-0.00665023 73.2727 0.00666601 67.4644 0.00666601 61.6538C0.00666601 58.2494 0.00666601 54.8457 0.00666601 51.4428C0.00666601 47.662 2.3481 45.329 6.11882 45.3245C7.53256 45.3245 8.94852 45.3245 10.3623 45.3245C11.4231 45.3245 12.0445 45.8668 12.0445 46.7412C12.0445 47.6155 11.4364 48.1424 10.3623 48.149C8.86418 48.149 7.3661 48.149 5.86803 48.149C4.01707 48.1645 2.8519 49.3133 2.84968 51.1594C2.84081 60.4829 2.84081 69.807 2.84968 79.1319C2.84968 80.8474 3.91942 82.118 5.51293 82.1379C9.42125 82.1889 13.3318 82.1534 17.3733 82.1534V81.0843C17.3733 64.4532 17.3733 47.8244 17.3733 31.1977C17.3733 28.2338 18.9912 26.0069 21.6678 25.3296C22.2895 25.19 22.9259 25.1254 23.5631 25.137C31.5262 25.1252 39.4879 25.1252 47.448 25.137C51.2653 25.137 53.6112 27.4989 53.6156 31.3084C53.6156 33.6879 53.6156 36.0675 53.6156 38.4471C53.6156 39.5096 52.9632 40.1648 52.0621 40.0829C51.2831 40.0098 50.7904 39.4387 50.7859 38.5334C50.7726 36.1538 50.7859 33.7743 50.7859 31.3947C50.7859 29.0484 49.7317 27.9881 47.3947 27.9881H23.5897C21.2882 27.9881 20.2163 29.0506 20.2163 31.3283C20.2163 47.9564 20.2163 64.5853 20.2163 81.2149V82.1003H27.6823V81.2769C27.6823 76.8498 27.6823 72.4227 27.6823 67.9956C27.6823 66.5015 28.1261 66.061 29.6042 66.061C33.5695 66.061 37.5363 66.061 41.5045 66.061C42.8361 66.061 43.3133 66.5413 43.3155 67.8562C43.3155 72.2832 43.3155 76.7103 43.3155 81.1374V82.107H50.7815V81.0998C50.7815 69.8668 50.7815 58.6331 50.7815 47.3986C50.7815 45.6964 51.1588 45.3267 52.8944 45.3267H64.879C68.6097 45.3267 70.9867 47.662 70.9911 51.3631C71 60.5758 71 69.7893 70.9911 79.0036C70.9911 82.0737 69.482 84.0128 66.4925 84.8672C66.4194 84.9013 66.3514 84.9452 66.2905 84.9978H58.8023C58.172 84.5308 57.6638 83.9973 57.9634 83.1296C58.263 82.2619 58.9799 82.1534 59.7811 82.1623C61.5011 82.1844 63.2211 82.1623 64.9411 82.1623C67.0273 82.1623 68.1503 81.0555 68.1525 79.0102C68.1525 69.7709 68.1525 60.5323 68.1525 51.2944C68.1525 49.2823 67.0184 48.1557 65.0144 48.1512C62.1292 48.1512 59.244 48.1512 56.3588 48.1512H53.6201V49.1982C53.6201 60.4563 53.6245 71.7144 53.6334 82.9725C53.6334 83.8579 53.4115 84.5374 52.6413 84.9934L4.70508 85.0001ZM40.4215 82.1424V68.9408H30.5763V82.1424H40.4215Z" fill="#6C6A6A" fill-opacity="0.5"/>
<path d="M35.9983 -2.49548e-05C36.3467 0.442683 36.7639 0.856613 37.0258 1.34581C37.6783 2.56325 38.2354 3.83162 38.8923 5.04464C39.0862 5.34545 39.3906 5.55844 39.7401 5.63787C41.2116 5.90349 42.6941 6.10271 44.1789 6.30193C44.8314 6.39268 45.3418 6.66052 45.5682 7.31573C45.7946 7.97094 45.5083 8.49333 45.0422 8.94268C43.9902 9.96534 42.9538 11.0057 41.8774 12.0018C41.7084 12.1393 41.5826 12.3224 41.5149 12.5292C41.4473 12.736 41.4406 12.9578 41.4957 13.1683C41.7642 14.6071 41.9839 16.0459 42.2547 17.4914C42.379 18.1554 42.2924 18.7066 41.7442 19.1272C41.196 19.5478 40.6212 19.4791 40.0331 19.167C38.7015 18.4498 37.3499 17.7282 35.9827 17.0597C35.8302 16.9962 35.6665 16.9635 35.5011 16.9635C35.3358 16.9635 35.1721 16.9962 35.0195 17.0597C33.6768 17.7127 32.3563 18.4189 31.0446 19.1272C30.4365 19.4526 29.8484 19.5699 29.2691 19.1272C28.6899 18.6845 28.6433 18.0935 28.7764 17.4117C29.0538 16.0017 29.258 14.5806 29.5199 13.1683C29.5746 12.958 29.5674 12.7364 29.4994 12.5299C29.4313 12.3235 29.3051 12.1409 29.136 12.004C28.0618 11.0057 27.0276 9.96312 25.9733 8.94268C25.5073 8.49997 25.2121 7.98865 25.4496 7.31794C25.687 6.64724 26.233 6.38604 26.9188 6.29529C28.3747 6.10271 29.8284 5.89906 31.271 5.63123C31.4449 5.59176 31.6093 5.51846 31.7548 5.41553C31.9003 5.31259 32.024 5.18204 32.1188 5.03136C32.7846 3.81834 33.3328 2.54997 33.9853 1.33474C34.2494 0.843334 34.6666 0.43383 35.0129 -0.0133057L35.9983 -2.49548e-05ZM35.4989 4.64841C35.0217 5.60466 34.6112 6.39932 34.225 7.21391C34.1029 7.52235 33.8958 7.79001 33.6275 7.98588C33.3592 8.18176 33.0408 8.29783 32.7091 8.32068C31.8214 8.41807 30.9337 8.58852 29.8462 8.76339C30.5541 9.45844 31.1068 10.0694 31.7304 10.594C32.485 11.2271 32.6448 11.9752 32.4406 12.8939C32.263 13.6819 32.1632 14.4876 31.9967 15.4195C32.9178 14.937 33.7145 14.5518 34.4758 14.1091C34.7773 13.9124 35.1298 13.8077 35.49 13.8077C35.8503 13.8077 36.2028 13.9124 36.5043 14.1091C37.2744 14.5518 38.08 14.9347 38.99 15.4062C38.8191 14.4278 38.697 13.611 38.5306 12.8053C38.3552 11.9531 38.4906 11.2403 39.1964 10.6493C39.8444 10.1092 40.4348 9.5005 41.2093 8.77224C40.0619 8.59516 39.172 8.42472 38.2753 8.32953C37.9436 8.30695 37.6251 8.19097 37.3567 7.99506C37.0884 7.79916 36.8813 7.53136 36.7595 7.22276C36.3977 6.40597 35.9761 5.6113 35.4989 4.64841Z" fill="#6C6A6A" fill-opacity="0.5"/>
<path d="M35.4057 42.3273C32.8024 42.3273 30.199 42.3273 27.5979 42.3273C26.6414 42.3273 26.0843 41.909 25.9511 41.1453C25.7869 40.209 26.4438 39.5095 27.5336 39.505C30.1369 39.494 32.738 39.505 35.3413 39.505C38.0046 39.505 40.6626 39.505 43.3155 39.505C44.4252 39.505 45.091 40.0407 45.0799 40.9195C45.0688 41.7983 44.4141 42.3295 43.3044 42.3317C40.6656 42.3317 38.0356 42.3273 35.4057 42.3273Z" fill="#6C6A6A" fill-opacity="0.5"/>
<path d="M2.36807 23.1315C2.74536 22.4298 2.29262 21.9074 1.76441 21.3141C1.0076 20.4641 1.39599 19.3219 2.52787 19.1006C2.87289 19.0574 3.20081 18.9259 3.47968 18.7187C3.75855 18.5116 3.97887 18.2359 4.11916 17.9186C4.62962 16.9225 6.00564 16.9734 6.54273 17.985C6.86232 18.5871 7.20853 18.9257 7.92539 19.0519C9.28143 19.291 9.66316 20.535 8.69108 21.5067C8.22057 21.976 8.1318 22.4165 8.20503 23.0341C8.36705 24.3998 7.30174 25.1679 6.10328 24.5348C5.86116 24.3874 5.58242 24.3107 5.29876 24.3134C5.01509 24.3162 4.73789 24.3983 4.49868 24.5503C3.41562 25.1059 2.35032 24.433 2.36807 23.1315Z" fill="#6C6A6A" fill-opacity="0.5"/>
<path d="M62.7595 23.1027C63.0546 22.4386 62.7062 21.9052 62.1625 21.3318C61.3946 20.5173 61.7785 19.3397 62.8838 19.0917C63.6339 18.9302 64.1244 18.6756 64.4928 17.9341C65.0121 16.8848 66.4059 16.9535 66.9474 18.027C67.0595 18.2979 67.242 18.534 67.4761 18.711C67.7101 18.8881 67.9873 18.9996 68.279 19.0342C69.6839 19.2887 70.0545 20.5261 69.0314 21.5443C68.5875 21.9871 68.4322 22.3811 68.5875 22.9898C68.7429 23.5985 68.5875 24.2449 67.9861 24.4795C67.4865 24.6698 66.9348 24.6737 66.4325 24.4906C66.1959 24.3633 65.9301 24.2994 65.6613 24.3052C65.3925 24.3111 65.1298 24.3864 64.8989 24.5238C63.7804 25.1214 62.7128 24.4441 62.7595 23.1027Z" fill="#6C6A6A" fill-opacity="0.5"/>
<path d="M14.8165 16.0083C15.0385 15.393 14.7921 14.8595 14.255 14.2995C13.4161 13.4296 13.84 12.2055 15.0252 11.9708C15.691 11.8402 16.1349 11.6366 16.4678 10.9725C17.0603 9.79493 18.3964 9.79272 19.0001 10.9725C19.3352 11.6233 19.7547 11.8579 20.4382 11.9731C21.6145 12.1634 22.065 13.4406 21.2439 14.2951C20.7489 14.8086 20.507 15.238 20.6402 16.0083C20.8621 17.2501 19.7746 18.0404 18.6427 17.4914C17.9769 17.1682 17.4709 17.2037 16.8184 17.5091C15.7465 18.005 14.7899 17.3055 14.8165 16.0083Z" fill="#6C6A6A" fill-opacity="0.5"/>
<path d="M50.3199 15.995C50.6816 15.331 50.2688 14.8263 49.7362 14.2552C48.9394 13.403 49.3611 12.1922 50.5196 11.9819C51.2343 11.8535 51.6737 11.6056 52.011 10.926C52.5592 9.81925 53.9619 9.81925 54.5056 10.926C54.8274 11.5901 55.2402 11.8358 55.926 11.9575C57.1689 12.1789 57.5861 13.403 56.7205 14.3238C56.4922 14.5319 56.3205 14.7944 56.2215 15.0867C56.1226 15.3789 56.0995 15.6915 56.1546 15.995C56.3255 17.29 55.238 18.0448 54.075 17.4383C53.4581 17.1173 53.0009 17.1638 52.4016 17.4693C51.3164 18.0226 50.2666 17.3032 50.3199 15.995Z" fill="#6C6A6A" fill-opacity="0.5"/>
<path d="M35.4612 55.9539C33.6857 55.9539 31.9102 55.9539 30.1347 55.9539C29.0405 55.9539 28.3592 55.3828 28.3924 54.5062C28.4257 53.6296 29.0583 53.1294 30.1236 53.1294C33.6982 53.1294 37.2736 53.1294 40.8498 53.1294C41.9395 53.1294 42.6253 53.7027 42.592 54.577C42.5587 55.4514 41.9262 55.9494 40.8609 55.9539C39.0654 55.9583 37.2744 55.9539 35.4612 55.9539Z" fill="#6C6A6A" fill-opacity="0.5"/>
<path d="M11.5297 62.506C11.5297 63.4468 11.5297 64.3853 11.5297 65.3239C11.5163 66.3111 10.9659 66.9176 10.1159 66.9176C9.2659 66.9176 8.70884 66.3178 8.70218 65.3305C8.69182 63.4505 8.69182 61.5719 8.70218 59.6948C8.70218 58.7032 9.25702 58.0989 10.1093 58.0989C10.9615 58.0989 11.5163 58.7054 11.5297 59.6882C11.5408 60.6268 11.5297 61.5675 11.5297 62.506Z" fill="#6C6A6A" fill-opacity="0.5"/>
<path d="M62.3023 62.5879C62.3023 63.5265 62.3178 64.4672 62.3023 65.4058C62.2868 66.3443 61.7252 66.9154 60.8974 66.9176C60.0696 66.9198 59.4881 66.3333 59.4793 65.4146C59.46 63.48 59.46 61.5461 59.4793 59.6129C59.4793 58.6921 60.0696 58.0989 60.8886 58.0989C61.7075 58.0989 62.2845 58.6855 62.3023 59.6041C62.3178 60.598 62.3023 61.5941 62.3023 62.5879Z" fill="#6C6A6A" fill-opacity="0.5"/>
</g>
<defs>
<clipPath id="clip0_259_19418">
<rect width="71" height="85" fill="white"/>
</clipPath>
</defs>
</svg>
