<svg width="48" height="48" viewBox="0 0 48 48" fill="none" xmlns="http://www.w3.org/2000/svg">
<g clip-path="url(#clip0_259_19282)">
<path d="M44.6512 24.5651C44.6512 22.8557 44.6512 21.2705 44.6512 19.6811C44.6512 18.728 45.1788 18.0708 46.0289 17.8992C46.2482 17.858 46.4734 17.8612 46.6914 17.9087C46.9093 17.9561 47.1155 18.0468 47.2977 18.1754C47.48 18.3039 47.6346 18.4677 47.7523 18.6571C47.8701 18.8465 47.9486 19.0576 47.9832 19.2778C47.9986 19.3991 48.0055 19.5212 48.0042 19.6434C47.9958 23.9177 48.0237 28.1919 47.9609 32.4647C47.9421 34.8417 47.5172 37.198 46.7046 39.432C45.1956 43.5081 42.2474 45.9906 38.1113 47.1362C35.7913 47.7809 33.4196 48.0042 31.02 48.0014C25.8901 48.0014 20.7601 48.0279 15.6301 47.9623C12.9862 47.9288 10.3898 47.4907 7.93018 46.4469C4.29242 44.9119 2.06035 42.1434 0.950596 38.4036C0.366281 36.4638 0.0584785 34.4513 0.0362723 32.4256C-0.00281341 26.8076 -0.00281341 21.1901 0.0362723 15.573C0.0425587 13.178 0.467737 10.8025 1.2926 8.55397C2.75412 4.62304 5.56968 2.16011 9.55084 0.969805C11.5254 0.380338 13.5723 0.0675711 15.6328 0.0404484C19.1408 -0.00839169 22.6473 0.00695804 26.1553 0.00556261C27.0305 0.00556261 27.7173 0.563734 27.8625 1.33541C27.943 1.71515 27.8857 2.11116 27.7008 2.45251C27.5158 2.79385 27.2154 3.05824 26.8532 3.19831C26.5387 3.30448 26.208 3.35454 25.8761 3.34622C22.4728 3.36436 19.071 3.34622 15.6677 3.38808C13.7987 3.39872 11.942 3.69231 10.1609 4.25883C6.83438 5.33611 4.85637 7.65252 3.99509 10.9918C3.55516 12.7352 3.33661 14.5271 3.3446 16.3251C3.3446 21.664 3.31668 27.0029 3.37949 32.3405C3.39485 33.7247 3.69636 35.1048 3.87365 36.4863C3.90565 36.6382 3.94905 36.7874 4.00347 36.9328L6.07501 35.5458C8.41596 33.9773 10.7402 32.4061 13.0783 30.8446C15.7641 29.0514 19.0235 29.2538 21.4231 31.4195C22.4687 32.3614 23.6091 32.8051 24.9632 32.3586C25.4814 32.16 25.9581 31.8666 26.3689 31.4934C29.2696 29.0319 32.1479 26.5466 35.0347 24.0711C37.7721 21.7254 41.2814 21.7198 44.037 24.0558C44.2073 24.2009 44.3818 24.3391 44.6512 24.5651ZM5.32401 40.12C6.11443 41.3741 7.23094 42.3899 8.55416 43.0588C10.7806 44.1988 13.1928 44.5798 15.6468 44.6091C20.7773 44.6705 25.9082 44.6765 31.0396 44.6272C32.7301 44.6138 34.4168 44.4635 36.083 44.1779C40.3336 43.4383 43.0626 40.9935 44.0607 36.7221C44.6386 34.2508 44.6735 31.7432 44.6372 29.2301C44.6031 29.0482 44.5039 28.8849 44.358 28.771C43.4939 28.0104 42.6187 27.2611 41.7421 26.5145C40.3978 25.3675 38.6585 25.3829 37.3128 26.5397C34.3228 29.11 31.3285 31.6762 28.3301 34.2383C27.893 34.6119 27.4138 34.9331 26.9021 35.1955C24.6993 36.3119 21.5585 36.1723 19.2455 33.9759C17.9403 32.741 16.3811 32.6768 14.8972 33.6745L8.78588 37.7938L5.32401 40.12Z" fill="#BDBDBD"/>
<path d="M17.2689 21.198C16.0555 21.1916 14.8711 20.8262 13.8653 20.1477C12.8595 19.4692 12.0773 18.508 11.6173 17.3856C11.1574 16.2631 11.0403 15.0296 11.2809 13.8407C11.5215 12.6518 12.109 11.5608 12.9692 10.7053C13.8295 9.84984 14.9239 9.26825 16.1145 9.03393C17.305 8.79961 18.5383 8.92306 19.6588 9.3887C20.7792 9.85434 21.7366 10.6413 22.4101 11.6503C23.0836 12.6593 23.443 13.8451 23.443 15.0581C23.4417 15.8667 23.2809 16.6672 22.9698 17.4136C22.6587 18.1601 22.2033 18.8378 21.6298 19.4081C21.0564 19.9785 20.376 20.4301 19.6277 20.7372C18.8794 21.0443 18.0778 21.2009 17.2689 21.198ZM17.2842 17.8489C17.8364 17.8489 18.3762 17.6853 18.8353 17.3786C19.2944 17.0719 19.6522 16.6361 19.8635 16.1261C20.0749 15.6161 20.1301 15.055 20.0224 14.5136C19.9147 13.9722 19.6488 13.475 19.2584 13.0847C18.8679 12.6943 18.3704 12.4285 17.8289 12.3209C17.2873 12.2132 16.726 12.2684 16.2158 12.4797C15.7057 12.6909 15.2697 13.0486 14.9629 13.5076C14.6561 13.9665 14.4924 14.5061 14.4924 15.0581C14.4935 15.7975 14.7881 16.5063 15.3116 17.0288C15.835 17.5513 16.5445 17.8448 17.2842 17.8448V17.8489Z" fill="#BDBDBD"/>
<path d="M40.201 10.0764C40.201 11.4286 40.201 12.7487 40.201 14.0688C40.2075 14.3296 40.1878 14.5904 40.1424 14.8474C40.0604 15.2424 39.8371 15.594 39.5143 15.8361C39.1915 16.0781 38.7914 16.1941 38.3891 16.1623C37.9868 16.1304 37.6099 15.9529 37.3293 15.663C37.0486 15.3731 36.8835 14.9908 36.8648 14.5879C36.8382 13.2803 36.8536 11.9728 36.8522 10.6639V10.0527H34.8616C34.0408 10.0527 33.2214 10.0722 32.402 10.0457C31.4165 10.0136 30.6906 9.27266 30.699 8.35307C30.7074 7.43348 31.4444 6.71762 32.4341 6.70646C33.6904 6.6939 34.9468 6.70646 36.2031 6.70646H36.8229C36.8326 6.47761 36.8494 6.28784 36.8494 6.10782C36.8494 4.85194 36.8494 3.59605 36.8494 2.34016C36.8578 1.31034 37.5585 0.562385 38.5008 0.555408C39.443 0.548431 40.1759 1.2894 40.1926 2.31365C40.2122 3.56954 40.1926 4.82542 40.1926 6.08131V6.70367H42.4847C43.1827 6.70367 43.8806 6.6953 44.5786 6.70367C45.5864 6.72042 46.3025 7.40139 46.3151 8.34191C46.3277 9.28242 45.606 10.029 44.5786 10.0457C43.2706 10.0667 41.9626 10.0457 40.6533 10.0527C40.5262 10.0527 40.3908 10.0653 40.201 10.0764Z" fill="#BDBDBD"/>
</g>
<defs>
<clipPath id="clip0_259_19282">
<rect width="48" height="48" fill="white"/>
</clipPath>
</defs>
</svg>
