<svg width="71" height="79" viewBox="0 0 71 79" fill="none" xmlns="http://www.w3.org/2000/svg">
<g clip-path="url(#clip0_259_19512)">
<path d="M3.278 37.4043H7.54524C8.84706 37.4043 9.5312 37.8965 9.51397 38.8145C9.49675 39.7325 8.83475 40.1731 7.58461 40.1731H2.93346V44.992C3.21893 45.0043 3.54378 45.0314 3.86616 45.0314C6.51247 45.0314 9.15796 45.0314 11.8026 45.0314C12.5064 45.0314 13.1857 45.0855 13.5474 45.8017C13.9092 46.5179 13.572 47.0913 13.1512 47.6648C10.8921 50.7363 8.65757 53.8176 6.38614 56.8891C6.04899 57.342 5.96039 57.7062 6.25817 58.2058C6.99644 59.4684 7.73473 60.7506 8.5296 62.1658C8.83722 61.7646 9.04147 61.5087 9.23342 61.2453C12.9248 56.2074 16.6162 51.1793 20.278 46.1241C20.5072 45.7648 20.828 45.4731 21.2073 45.2789C21.5866 45.0847 22.0108 44.995 22.4363 45.0191C31.9403 45.0437 41.4444 45.0338 50.9509 45.0387C51.2856 45.0387 51.731 44.9797 51.9353 45.1618C52.329 45.5187 52.7794 45.9961 52.8557 46.4785C52.9566 47.1258 52.4816 47.6328 51.7827 47.7534C51.4165 47.8011 51.0467 47.8167 50.6778 47.8001C41.6052 47.8001 32.5318 47.7952 23.4575 47.7854C23.1591 47.7629 22.8602 47.8223 22.5931 47.9572C22.326 48.092 22.1007 48.2973 21.9416 48.5508C18.2765 53.606 14.595 58.6472 10.897 63.6745C10.7198 63.9206 10.5574 64.1667 10.363 64.462C10.8363 65.0418 11.3442 65.5925 11.8838 66.111C12.2028 66.328 12.5838 66.4351 12.9691 66.4162C18.4446 66.4359 23.9177 66.4309 29.3933 66.4309C29.6394 66.4309 29.8855 66.4309 30.1316 66.4309C31.1873 66.4654 31.8173 67.0167 31.7902 67.8732C31.7631 68.7296 31.1774 69.1923 30.1316 69.1923C25.5181 69.1923 20.9047 69.1923 16.2913 69.1923H15.5949L15.5481 69.4384C21.3977 73.8906 28.0102 76.2115 35.393 76.2361C42.8521 76.2607 49.5211 73.93 55.4323 69.4458L55.388 69.1997H54.4036C50.3136 69.1997 46.2235 69.217 42.131 69.1751C41.5917 69.1766 41.069 68.9885 40.6544 68.6435C39.9654 67.9667 40.3764 66.8001 41.3337 66.5318C41.6925 66.4495 42.061 66.4164 42.4288 66.4334C47.5647 66.4334 52.7031 66.4162 57.8391 66.4334C58.1541 66.4491 58.4683 66.3904 58.7565 66.2621C59.0446 66.1339 59.2985 65.9396 59.4977 65.6951C63.922 60.8902 66.8077 54.8714 67.7836 48.413C67.7975 48.2073 67.7975 48.0009 67.7836 47.7952H63.6493C61.6486 47.7952 59.6503 47.8075 57.652 47.7952C56.6184 47.7952 56.05 47.2636 56.0573 46.4121C56.0647 45.5605 56.6381 45.0461 57.6766 45.0412C60.7848 45.024 63.8904 45.0412 66.9961 45.0412H68.0691V40.1731H66.9937C61.7027 40.1731 56.4117 40.1731 51.1207 40.1731C50.4145 40.1731 49.7574 40.1239 49.3833 39.4077C49.0093 38.6915 49.3636 38.118 49.7771 37.552C53.1748 32.9152 56.57 28.2751 59.9628 23.6318C60.1794 23.3365 60.3886 23.0387 60.7454 22.539L57.1131 19.3273C56.9703 19.5168 56.7464 19.8023 56.5348 20.0951C51.923 26.3973 47.3162 32.7035 42.7142 39.0139C42.1138 39.8433 41.4543 40.2026 40.4108 40.1952C35.3069 40.1485 30.2005 40.1952 25.0941 40.1534C24.6019 40.1534 23.9842 40.018 23.6864 39.6981C23.3886 39.3781 23.2557 38.6718 23.4255 38.31C23.5556 38.0855 23.733 37.8921 23.9456 37.7433C24.1581 37.5945 24.4006 37.4939 24.656 37.4486C25.9381 37.3329 27.235 37.4043 28.527 37.4043C32.2504 37.4043 35.9713 37.4166 39.6922 37.3822C39.8919 37.3788 40.0889 37.3351 40.2713 37.2534C40.4536 37.1718 40.6174 37.054 40.7529 36.9072C45.4631 30.5263 50.1528 24.1273 54.822 17.7103C54.8736 17.6365 54.9056 17.5503 54.9819 17.4076C54.7777 17.2427 54.5833 17.0606 54.3692 16.9153C48.9207 13.0587 42.8447 11.0825 36.183 10.8757C35.9073 10.8757 35.6293 10.8757 35.3536 10.861C34.3693 10.8265 33.7343 10.29 33.7466 9.47533C33.7589 8.6607 34.3939 8.09217 35.3856 8.09956C39.1287 8.12417 42.8176 8.59179 46.3564 9.83466C59.1089 14.3262 67.1561 23.1617 70.1633 36.3362C74.3469 54.6126 62.2884 73.6568 43.9742 77.9983C24.9808 82.5046 6.28278 71.4295 1.21574 52.5944C-0.708696 45.4424 -0.317409 38.3494 2.18535 31.3794C2.54464 30.3778 3.27553 29.9643 4.07779 30.2719C4.88005 30.5796 5.09662 31.3032 4.80131 32.2778C4.29682 33.9415 3.80955 35.6101 3.278 37.4043ZM53.37 37.3526H67.4785C67.348 34.4657 64.5672 27.7936 62.3425 25.0888L53.37 37.3526ZM4.52815 54.3345H4.83084L9.55334 47.8715H2.96545L4.52815 54.3345Z" fill="#6C6A6A" fill-opacity="0.5"/>
<path d="M16.4439 0C22.5519 0.26088 27.2719 2.95336 30.129 8.36786C32.9862 13.7824 32.5604 19.1969 29.2333 24.3652C28.8838 24.9067 28.495 25.4309 28.1086 25.9404C27.4885 26.7427 26.7133 26.8904 26.0365 26.3637C25.4041 25.8715 25.3721 25.1331 25.8643 24.3086C26.7453 22.832 27.833 21.4365 28.3941 19.8466C30.1167 14.9243 29.1471 10.3909 25.4853 6.65738C21.8234 2.92383 17.2166 1.82862 12.2603 3.52188C7.30401 5.21515 4.44442 8.84041 3.71353 14.0113C3.24398 17.125 4.01544 20.2986 5.86191 22.8492C7.78142 25.5564 9.6911 28.276 11.7115 30.9119C13.5574 33.2675 14.7819 36.0493 15.2725 39.0016C15.3118 39.2477 15.3118 39.5455 15.457 39.7055C15.7203 39.9959 16.0796 40.3922 16.3946 40.3872C16.5904 40.3506 16.7747 40.2679 16.9321 40.1459C17.0896 40.0239 17.2158 39.8662 17.3003 39.6858C17.5482 38.9589 17.7294 38.2109 17.8417 37.4511C18.4495 34.2098 20.4355 31.7216 22.3599 29.2088C22.8275 28.5984 23.5387 28.5393 24.1761 29.0119C24.8134 29.4844 24.9144 30.1391 24.5378 30.811C24.2302 31.3434 23.8769 31.8482 23.4821 32.3196C21.7263 34.3992 20.5927 36.9319 20.2115 39.6268C20.1723 39.8694 20.118 40.1094 20.0491 40.3454C19.8515 41.1708 19.3811 41.9054 18.714 42.43C18.0469 42.9547 17.2222 43.2388 16.3736 43.2362C15.5249 43.2337 14.702 42.9446 14.0381 42.4159C13.3741 41.8872 12.9081 41.1499 12.7156 40.3232C12.5654 39.7277 12.4399 39.1247 12.3267 38.5217C11.9728 36.6745 11.2074 34.9307 10.0873 33.4198C7.89216 30.4172 5.62565 27.4589 3.5634 24.3652C0.159948 19.2559 -0.211645 13.7996 2.63072 8.36786C5.49523 2.90168 10.2571 0.228886 16.4439 0Z" fill="#6C6A6A" fill-opacity="0.5"/>
<path d="M16.3922 6.54416C18.1866 6.54567 19.9402 7.07997 21.4306 8.07934C22.921 9.07871 24.0812 10.4981 24.764 12.1577C25.4468 13.8173 25.6216 15.6422 25.2661 17.4012C24.9106 19.1602 24.0409 20.7741 22.7673 22.0382C21.4936 23.3023 19.8733 24.1597 18.1118 24.5018C16.3503 24.8439 14.5269 24.6552 12.8727 23.9597C11.2186 23.2641 9.80815 22.0931 8.82027 20.5949C7.83238 19.0968 7.31151 17.3391 7.3237 15.5445C7.32724 14.3578 7.56472 13.1834 8.02256 12.0885C8.4804 10.9936 9.14961 9.99981 9.99189 9.16385C10.8342 8.3279 11.833 7.66623 12.9312 7.21672C14.0295 6.7672 15.2055 6.53866 16.3922 6.54416ZM16.3774 9.31541C15.1347 9.31591 13.92 9.68453 12.8866 10.3748C11.8532 11.065 11.0473 12.0459 10.5707 13.1937C10.0942 14.3415 9.96826 15.6047 10.2089 16.824C10.4495 18.0433 11.0458 19.164 11.9226 20.0447C12.7995 20.9254 13.9175 21.5266 15.1356 21.7724C16.3538 22.0183 17.6175 21.8978 18.7672 21.4261C19.9169 20.9544 20.9012 20.1527 21.5958 19.1222C22.2904 18.0916 22.6642 16.8784 22.67 15.6356C22.6792 14.8054 22.5229 13.9816 22.2102 13.2124C21.8976 12.4433 21.4348 11.7441 20.8491 11.1557C20.2633 10.5674 19.5661 10.1016 18.7984 9.78562C18.0306 9.46965 17.2076 9.3098 16.3774 9.31541Z" fill="#6C6A6A" fill-opacity="0.5"/>
<path d="M37.4502 64.1175C37.4502 65.8403 37.4502 67.4843 37.4502 69.1406C37.4502 70.2678 36.9901 70.8462 36.1164 70.8634C35.2428 70.8807 34.6916 70.258 34.6842 69.1185C34.6842 67.4621 34.6842 65.8058 34.6842 64.0879C32.8779 63.4948 31.485 62.4316 30.7147 60.6596C30.1794 59.4381 30.0863 58.0684 30.4514 56.7857C30.808 55.5185 31.5818 54.4086 32.6476 53.6358C33.7133 52.863 35.0086 52.4725 36.3239 52.5274C37.6392 52.5824 38.8974 53.0796 39.895 53.9386C40.8926 54.7976 41.5711 55.9681 41.8208 57.2607C42.2343 59.6702 41.3877 62.7343 37.4502 64.1175ZM39.1311 58.3855C39.1369 57.986 39.0639 57.5893 38.9162 57.2182C38.7685 56.847 38.5491 56.5085 38.2704 56.2223C37.9917 55.9361 37.6594 55.7076 37.2923 55.5501C36.9252 55.3925 36.5306 55.3089 36.1312 55.3041C35.7295 55.3025 35.3314 55.38 34.9597 55.5323C34.5879 55.6845 34.2498 55.9085 33.9646 56.1915C33.6794 56.4744 33.4527 56.8107 33.2975 57.1813C33.1423 57.5518 33.0616 57.9493 33.06 58.351C33.0584 58.7528 33.1359 59.1509 33.2881 59.5227C33.4403 59.8944 33.6643 60.2326 33.9472 60.5178C34.2301 60.803 34.5664 61.0297 34.9369 61.1849C35.3074 61.3402 35.7049 61.4209 36.1066 61.4225C36.5051 61.4235 36.8998 61.3455 37.268 61.1931C37.6362 61.0407 37.9706 60.8168 38.2518 60.5344C38.533 60.2521 38.7555 59.9168 38.9064 59.5479C39.0573 59.1791 39.1337 58.784 39.1311 58.3855Z" fill="#6C6A6A" fill-opacity="0.5"/>
</g>
<defs>
<clipPath id="clip0_259_19512">
<rect width="71" height="79" fill="white"/>
</clipPath>
</defs>
</svg>
