<svg width="30" height="30" viewBox="0 0 30 30" fill="none" xmlns="http://www.w3.org/2000/svg">
<g clip-path="url(#clip0_1258_21480)">
<path d="M0.0115832 15.7723C0.0115832 13.6529 -0.00272062 11.5325 0.0169468 9.41389C0.0294625 8.03993 0.285139 6.70709 0.910921 5.46812C2.01856 3.25208 3.87624 2.05155 6.26315 1.62425C6.99903 1.49821 7.74434 1.43541 8.49094 1.43653C12.3163 1.41865 16.1425 1.4267 19.9678 1.43653C20.2092 1.43653 20.3593 1.3829 20.5042 1.1612C20.7312 0.799508 21.0483 0.502987 21.4244 0.300684C21.8005 0.0983804 22.2228 -0.00276478 22.6497 0.00715282C24.2222 -0.000892469 25.7947 0.0017893 27.3681 0.00715282C28.066 0.0118688 28.7337 0.292139 29.2258 0.786911C29.7179 1.28168 29.9946 1.95087 29.9955 2.64869C29.9955 4.21037 29.9955 5.77205 29.9955 7.33373C29.9955 8.26073 29.5968 8.99285 28.8333 9.50775C28.7441 9.55755 28.6712 9.63223 28.6236 9.72269C28.576 9.81315 28.5556 9.9155 28.5651 10.0173C28.5723 13.854 28.5723 17.6913 28.5651 21.5292C28.5651 22.8084 28.4257 24.0688 27.9626 25.2712C26.9792 27.826 25.0706 29.275 22.4289 29.7846C21.6837 29.9218 20.9275 29.99 20.1698 29.9884C16.2551 30.008 12.3404 29.9964 8.42567 29.9991C7.06415 29.9991 5.73392 29.8248 4.47073 29.2956C2.17321 28.3328 0.825102 26.5673 0.286929 24.1788C0.116486 23.3853 0.0266322 22.5767 0.0187365 21.7652C-0.0188104 19.77 0.00621956 17.772 0.00621956 15.7759L0.0115832 15.7723ZM2.6506 24.5024C2.78112 24.4201 2.87677 24.3629 2.96796 24.3012C4.61585 23.1958 6.26315 22.0894 7.90985 20.9821C8.29037 20.7157 8.72444 20.5355 9.18179 20.4541C9.63914 20.3728 10.1087 20.3922 10.5578 20.511C11.1711 20.6603 11.6538 21.0366 12.1303 21.4291C13.482 22.5411 15.1028 22.5268 16.4267 21.3942C18.3083 19.7852 20.1877 18.1728 22.065 16.5572C23.33 15.4729 24.9132 15.4264 26.2354 16.4285C26.2888 16.4639 26.344 16.4965 26.4008 16.5259V10.0271C26.3602 10.0155 26.3186 10.0075 26.2766 10.003C25.0947 10.003 23.912 9.99136 22.7293 10.0092C22.3717 10.0195 22.0157 9.9575 21.6826 9.82706C21.3496 9.69661 21.0462 9.50035 20.7907 9.25002C20.5352 8.99969 20.3327 8.70042 20.1955 8.37009C20.0582 8.03976 19.989 7.68516 19.9919 7.32748C20.0009 6.18951 20.0009 5.05155 20.0035 3.91359C20.0035 3.80721 19.991 3.70084 19.983 3.57122H19.5485C15.8832 3.57122 12.209 3.56675 8.53921 3.57658C7.95953 3.57347 7.38042 3.61351 6.80669 3.69637C4.60483 4.03606 3.05825 5.1919 2.4575 7.39809C2.26973 8.08612 2.17148 8.79548 2.16517 9.50864C2.13835 13.6582 2.14819 17.8087 2.15444 21.9592C2.16155 22.8303 2.32976 23.6925 2.6506 24.5024ZM25.8412 4.15316C25.8412 4.00388 25.8412 3.89482 25.8412 3.78576C25.8412 3.24941 25.8528 2.71305 25.8412 2.1767C25.8349 1.67879 25.4836 1.31764 25.0098 1.30691C24.536 1.29619 24.173 1.64124 24.1462 2.14184C24.1274 2.49941 24.1391 2.85697 24.1382 3.21454C24.1382 3.52295 24.1382 3.83135 24.1382 4.15406C23.4328 4.15406 22.7758 4.14601 22.1196 4.15406C21.909 4.1583 21.7075 4.24038 21.5538 4.38448C21.4002 4.52858 21.3054 4.72446 21.2878 4.93433C21.2701 5.1442 21.3308 5.35318 21.4582 5.52092C21.5855 5.68867 21.7705 5.80329 21.9774 5.84267C22.1758 5.8703 22.3762 5.88048 22.5764 5.87306C23.0851 5.87306 23.5937 5.87306 24.1382 5.87306C24.1382 6.01967 24.1382 6.14124 24.1382 6.26013C24.1382 6.79649 24.1274 7.33284 24.1462 7.86919C24.1641 8.36264 24.5101 8.69964 24.9669 8.71037C25.4559 8.72199 25.8349 8.34207 25.8421 7.81645C25.8501 7.18355 25.8421 6.55155 25.8421 5.90971C25.8918 5.89803 25.9423 5.88997 25.9932 5.88558C26.5734 5.88558 27.1553 5.89094 27.7328 5.88022C28.2978 5.87038 28.7073 5.48242 28.7037 4.9863C28.7001 4.49017 28.3032 4.16121 27.7257 4.15852C27.1187 4.15137 26.509 4.15316 25.8412 4.15316Z" fill="#F34336"/>
<path d="M2.65066 24.5024C2.32993 23.6928 2.16172 22.8308 2.1545 21.9601C2.14825 17.8096 2.13841 13.6591 2.16523 9.50952C2.17271 8.79621 2.27216 8.08684 2.46114 7.39898C3.06189 5.19278 4.60668 4.03693 6.81033 3.69724C7.38315 3.61422 7.96136 3.57389 8.54016 3.57657C12.2055 3.56673 15.8797 3.5712 19.5495 3.5712H19.983C19.9911 3.70082 20.0036 3.8072 20.0036 3.91358C20.0036 5.05154 20.0036 6.1895 19.992 7.32746C19.9891 7.68515 20.0583 8.03975 20.1955 8.37008C20.3328 8.70041 20.5352 8.99968 20.7907 9.25001C21.0463 9.50034 21.3496 9.6966 21.6827 9.82704C22.0158 9.95749 22.3718 10.0195 22.7293 10.0092C23.9121 9.99135 25.0948 10.003 26.2766 10.003C26.3187 10.0075 26.3602 10.0155 26.4009 10.0271V16.5259C26.344 16.4965 26.2888 16.4639 26.2355 16.4285C24.9133 15.4264 23.3301 15.4729 22.0651 16.5572C20.1842 18.1663 18.3047 19.7786 16.4268 21.3942C15.1028 22.5268 13.4821 22.5411 12.1304 21.4291C11.6539 21.0366 11.1711 20.6603 10.5579 20.511C10.1088 20.3922 9.6392 20.3727 9.18185 20.4541C8.7245 20.5355 8.29043 20.7157 7.90991 20.9821C6.26381 22.0906 4.61651 23.1969 2.96802 24.3012C2.87683 24.3629 2.78118 24.4201 2.65066 24.5024ZM10.0108 6.62395C9.34193 6.62309 8.68781 6.82024 8.13087 7.19055C7.57393 7.56087 7.13909 8.08776 6.88116 8.70482C6.62323 9.32188 6.55376 10.0015 6.68151 10.658C6.80926 11.3144 7.12851 11.9184 7.59901 12.3937C8.06951 12.869 8.67021 13.1944 9.32538 13.3289C9.98055 13.4634 10.6609 13.4009 11.2806 13.1493C11.9003 12.8977 12.4316 12.4684 12.8077 11.9153C13.1837 11.3622 13.3875 10.7102 13.3936 10.0414C13.4004 9.59348 13.3179 9.14868 13.1509 8.73303C12.9838 8.31737 12.7355 7.9392 12.4205 7.62065C12.1055 7.3021 11.7302 7.04956 11.3164 6.87781C10.9026 6.70605 10.4588 6.61853 10.0108 6.62037V6.62395Z" fill="white"/>
<path d="M25.8412 4.15321C26.5063 4.15321 27.1187 4.15321 27.7311 4.15321C28.3086 4.15321 28.7046 4.49379 28.7091 4.98098C28.7136 5.46817 28.3032 5.86864 27.7382 5.8749C27.1589 5.88563 26.5761 5.8749 25.9986 5.88026C25.9477 5.88465 25.8972 5.89271 25.8475 5.9044C25.8475 6.54623 25.8537 7.17824 25.8475 7.81113C25.8403 8.33944 25.4613 8.71936 24.9723 8.70505C24.5155 8.69433 24.1677 8.35732 24.1516 7.86388C24.1328 7.32752 24.1445 6.79117 24.1436 6.25482C24.1436 6.13503 24.1436 6.01435 24.1436 5.86775C23.5991 5.86775 23.0905 5.86775 22.5818 5.86775C22.3816 5.87516 22.1812 5.86499 21.9828 5.83735C21.7759 5.79797 21.5909 5.68335 21.4636 5.51561C21.3362 5.34786 21.2755 5.13889 21.2932 4.92902C21.3108 4.71915 21.4056 4.52326 21.5592 4.37917C21.7128 4.23507 21.9144 4.15298 22.125 4.14874C22.7811 4.13712 23.4382 4.14874 24.1436 4.14874C24.1436 3.82603 24.1436 3.51763 24.1436 3.20923C24.1436 2.85166 24.1328 2.49409 24.1516 2.13652C24.1784 1.63593 24.5467 1.29176 25.0152 1.3016C25.4836 1.31143 25.8403 1.67347 25.8466 2.17139C25.8546 2.70774 25.8466 3.24409 25.8466 3.78044C25.8403 3.89487 25.8412 4.00392 25.8412 4.15321Z" fill="#F34336"/>
<path d="M26.2015 4.99974C26.6717 5.47084 27.1062 5.90171 27.5371 6.34063C27.9438 6.75094 27.9841 7.26941 27.6426 7.61715C27.3011 7.96488 26.7289 7.95773 26.3222 7.5653C25.9154 7.17287 25.4997 6.74825 25.0885 6.33973C25.0494 6.30724 25.0082 6.27738 24.9651 6.25034C24.511 6.70445 24.0711 7.15588 23.6152 7.59748C23.2362 7.96667 22.6989 7.96667 22.3636 7.61268C22.0481 7.28193 22.0427 6.79921 22.3788 6.43807C22.7427 6.04653 23.1298 5.67644 23.5079 5.29653L23.7815 5.02299C23.3962 4.6386 23.035 4.28014 22.6774 3.9181C22.5308 3.78113 22.3965 3.63157 22.276 3.47114C22.158 3.29699 22.1085 3.08533 22.1372 2.87691C22.166 2.66849 22.2708 2.47807 22.4315 2.34231C22.5922 2.20656 22.7975 2.13509 23.0078 2.14165C23.2181 2.14822 23.4185 2.23236 23.5705 2.37788C24.0434 2.83378 24.5011 3.30398 25.0009 3.80279L25.6651 3.13771C25.9181 2.88652 26.163 2.62549 26.4285 2.38771C26.8004 2.05249 27.3055 2.06947 27.6292 2.40827C27.9528 2.74706 27.9492 3.25302 27.6023 3.61059C27.2295 3.99408 26.8442 4.36595 26.4643 4.74319L26.2015 4.99974Z" fill="white"/>
<path d="M10.0108 6.62037C10.6814 6.62108 11.3366 6.82082 11.8936 7.19426C12.4506 7.5677 12.8841 8.09805 13.1394 8.71811C13.3947 9.33817 13.4601 10.02 13.3275 10.6773C13.1949 11.3346 12.8701 11.9378 12.3944 12.4104C11.9186 12.8829 11.3133 13.2037 10.6551 13.3319C9.99692 13.4602 9.31545 13.3903 8.69706 13.1309C8.07866 12.8716 7.55116 12.4345 7.18139 11.8751C6.81161 11.3157 6.61621 10.6592 6.61993 9.98866C6.62442 9.09284 6.98382 8.23533 7.61939 7.60398C8.25497 6.97264 9.11489 6.61894 10.0108 6.62037Z" fill="#FEC109"/>
</g>
<defs>
<clipPath id="clip0_1258_21480">
<rect width="30" height="30" fill="white"/>
</clipPath>
</defs>
</svg>
