<svg width="30" height="23" viewBox="0 0 30 23" fill="none" xmlns="http://www.w3.org/2000/svg">
<g filter="url(#filter0_d_259_19649)">
<g clip-path="url(#clip0_259_19649)">
<path d="M14.5 14.9999H8.13C7.1174 15.0025 6.13897 14.6339 5.37981 13.9638C4.62065 13.2937 4.13342 12.3686 4.01024 11.3635C3.88707 10.3584 4.13653 9.34309 4.71142 8.50951C5.28631 7.67594 6.14675 7.08198 7.13 6.83996C7.37 6.78996 7.43996 6.68994 7.46996 6.44994C7.53989 5.37079 7.85891 4.32249 8.40197 3.38732C8.94503 2.45215 9.69735 1.65553 10.6 1.05993C11.6044 0.443234 12.752 0.0986017 13.93 0.0599295C15.4287 -0.0782784 16.9343 0.238845 18.25 0.969903C19.0391 1.43436 19.7236 2.05704 20.2605 2.79876C20.7975 3.54048 21.1752 4.38525 21.37 5.27996C21.4759 5.72834 21.556 6.1824 21.61 6.63995C21.61 6.76995 21.61 6.81991 21.79 6.84991C22.7425 7.05333 23.5927 7.58606 24.1913 8.35442C24.7898 9.12278 25.0983 10.0776 25.0625 11.0509C25.0267 12.0242 24.6488 12.9537 23.9954 13.676C23.342 14.3983 22.4549 14.8671 21.49 14.9999C21.25 14.9999 21.01 14.9999 20.77 14.9999H14.5Z" fill="white"/>
<path d="M15.2501 5.99005V11.8801C15.2642 11.9876 15.2554 12.0969 15.2243 12.2007C15.1933 12.3046 15.1406 12.4008 15.0698 12.483C14.999 12.5651 14.9117 12.6313 14.8135 12.6774C14.7153 12.7234 14.6085 12.7482 14.5001 12.7501C14.3921 12.7496 14.2855 12.7261 14.1873 12.6812C14.0892 12.6363 14.0016 12.5709 13.9307 12.4896C13.8597 12.4082 13.8069 12.3127 13.7758 12.2093C13.7446 12.1059 13.7359 11.9971 13.7501 11.8901V6.00006L13.5501 6.18005L12.0701 7.62006C12.0007 7.69294 11.9173 7.75114 11.825 7.79114C11.7326 7.83114 11.6332 7.85214 11.5325 7.85291C11.4319 7.85367 11.3322 7.83413 11.2392 7.79553C11.1463 7.75693 11.0621 7.70006 10.9916 7.62823C10.9211 7.55641 10.8658 7.47109 10.8289 7.37744C10.7921 7.28379 10.7745 7.18367 10.7771 7.08307C10.7798 6.98247 10.8027 6.88345 10.8444 6.79187C10.8862 6.70029 10.9459 6.61805 11.0201 6.55005L13.4201 4.21008C13.5593 4.06364 13.7268 3.94699 13.9124 3.86731C14.0981 3.78763 14.298 3.74658 14.5001 3.74658C14.7021 3.74658 14.9021 3.78763 15.0877 3.86731C15.2734 3.94699 15.4409 4.06364 15.5801 4.21008C16.3801 4.98008 17.18 5.77005 17.97 6.55005C18.0504 6.6153 18.1165 6.69649 18.164 6.78851C18.2114 6.88053 18.2393 6.98138 18.2459 7.08472C18.2524 7.18805 18.2376 7.29162 18.2022 7.38892C18.1667 7.48621 18.1115 7.57517 18.0401 7.65009C17.9689 7.72768 17.8824 7.78959 17.786 7.83197C17.6896 7.87435 17.5854 7.89624 17.4801 7.89624C17.3748 7.89624 17.2706 7.87435 17.1742 7.83197C17.0778 7.78959 16.9913 7.72768 16.9201 7.65009L15.5001 6.20007L15.2501 5.99005Z" fill="#118DFF"/>
</g>
</g>
<defs>
<filter id="filter0_d_259_19649" x="0" y="0" width="29.08" height="23" filterUnits="userSpaceOnUse" color-interpolation-filters="sRGB">
<feFlood flood-opacity="0" result="BackgroundImageFix"/>
<feColorMatrix in="SourceAlpha" type="matrix" values="0 0 0 0 0 0 0 0 0 0 0 0 0 0 0 0 0 0 127 0" result="hardAlpha"/>
<feOffset dy="4"/>
<feGaussianBlur stdDeviation="2"/>
<feComposite in2="hardAlpha" operator="out"/>
<feColorMatrix type="matrix" values="0 0 0 0 0 0 0 0 0 0 0 0 0 0 0 0 0 0 0.25 0"/>
<feBlend mode="normal" in2="BackgroundImageFix" result="effect1_dropShadow_259_19649"/>
<feBlend mode="normal" in="SourceGraphic" in2="effect1_dropShadow_259_19649" result="shape"/>
</filter>
<clipPath id="clip0_259_19649">
<rect x="4" width="21.08" height="15" rx="4" fill="white"/>
</clipPath>
</defs>
</svg>
